SplineFontDB: 3.0
FontName: Sedan-Regular
FullName: Sedan
FamilyName: Sedan
Weight: Book
Copyright: Copyright (c) 2012, Sebastian Salazar (sebotas26@hotmail.com), with Reserved Font Name 'Sedan'
Version: 1.001
ItalicAngle: 0
UnderlinePosition: -50
UnderlineWidth: 50
Ascent: 800
Descent: 200
sfntRevision: 0x00010042
LayerCount: 2
Layer: 0 1 "Back"  1
Layer: 1 1 "Fore"  0
XUID: [1021 649 716459133 42820]
FSType: 0
OS2Version: 3
OS2_WeightWidthSlopeOnly: 0
OS2_UseTypoMetrics: 1
CreationTime: 1329338460
ModificationTime: 1351749401
PfmFamily: 17
TTFWeight: 400
TTFWidth: 5
LineGap: 0
VLineGap: 0
Panose: 2 0 5 3 0 0 0 2 0 4
OS2TypoAscent: 978
OS2TypoAOffset: 0
OS2TypoDescent: -407
OS2TypoDOffset: 0
OS2TypoLinegap: 0
OS2WinAscent: 978
OS2WinAOffset: 0
OS2WinDescent: 407
OS2WinDOffset: 0
HheadAscent: 978
HheadAOffset: 0
HheadDescent: -407
HheadDOffset: 0
OS2SubXSize: 650
OS2SubYSize: 600
OS2SubXOff: 0
OS2SubYOff: 75
OS2SupXSize: 650
OS2SupYSize: 600
OS2SupXOff: 0
OS2SupYOff: 350
OS2StrikeYSize: 50
OS2StrikeYPos: 262
OS2Vendor: 'PYRS'
OS2CodePages: 20000001.00000000
OS2UnicodeRanges: 8000002f.4000004a.00000000.00000000
Lookup: 258 0 0 "'kern' Horizontal Kerning in Latin lookup 0"  {"'kern' Horizontal Kerning in Latin lookup 0 subtable"  } ['kern' ('latn' <'dflt' > ) ]
DEI: 91125
TtTable: prep
PUSHW_1
 511
SCANCTRL
PUSHB_1
 4
SCANTYPE
EndTTInstrs
ShortTable: maxp 16
  1
  0
  243
  126
  7
  0
  0
  2
  0
  1
  1
  0
  64
  0
  0
  0
EndShort
LangName: 1033 "" "" "" "SebastianSalazar: Sedan: 2012" "" "Version 1.001" "" "Sedan is a trademark of Sebastian Salazar." "Sebastian Salazar" "Sebastian Salazar" "" "" "" "This Font Software is licensed under the SIL Open Font License, Version 1.1. This license is available with a FAQ at: http://scripts.sil.org/OFL" "http://scripts.sil.org/OFL" 
GaspTable: 1 65535 15 1
Encoding: UnicodeBmp
UnicodeInterp: none
NameList: AGL For New Fonts
DisplaySize: -24
AntiAlias: 1
FitToEm: 1
BeginChars: 65550 243

StartChar: exclam
Encoding: 33 33 4
Width: 320
GlyphClass: 2
Flags: W
LayerCount: 2
Fore
SplineSet
184 178 m 1,0,1
 175 169 175 169 168 169 c 0,2,3
 141 169 141 169 141 204 c 2,4,-1
 141 280 l 2,5,6
 141 527 141 527 85 656 c 1,7,8
 129 684 129 684 157 684 c 0,9,10
 214 684 214 684 214 567 c 0,11,12
 214 524 214 524 199 392.5 c 128,-1,13
 184 261 184 261 184 222 c 128,-1,14
 184 183 184 183 184 178 c 1,0,1
119.5 83.5 m 128,-1,16
 136 101 136 101 159.5 101 c 128,-1,17
 183 101 183 101 200 84.5 c 128,-1,18
 217 68 217 68 217 45 c 128,-1,19
 217 22 217 22 201.5 4.5 c 128,-1,20
 186 -13 186 -13 162.5 -13 c 128,-1,21
 139 -13 139 -13 121 2.5 c 128,-1,22
 103 18 103 18 103 42 c 128,-1,15
 103 66 103 66 119.5 83.5 c 128,-1,16
EndSplineSet
EndChar

StartChar: quotedbl
Encoding: 34 34 5
Width: 380
GlyphClass: 2
Flags: W
LayerCount: 2
Fore
SplineSet
72 545.5 m 128,-1,1
 56 612 56 612 56 633.5 c 128,-1,2
 56 655 56 655 69 668.5 c 128,-1,3
 82 682 82 682 99 682 c 128,-1,4
 116 682 116 682 129 668.5 c 128,-1,5
 142 655 142 655 142 633.5 c 128,-1,6
 142 612 142 612 126 545.5 c 128,-1,7
 110 479 110 479 111 442 c 1,8,9
 106 438 106 438 99 438 c 128,-1,10
 92 438 92 438 87 442 c 1,11,0
 88 479 88 479 72 545.5 c 128,-1,1
253 545.5 m 128,-1,13
 237 612 237 612 237 633.5 c 128,-1,14
 237 655 237 655 250 668.5 c 128,-1,15
 263 682 263 682 280 682 c 128,-1,16
 297 682 297 682 310 668.5 c 128,-1,17
 323 655 323 655 323 633.5 c 128,-1,18
 323 612 323 612 307 545.5 c 128,-1,19
 291 479 291 479 292 442 c 1,20,21
 287 438 287 438 280 438 c 128,-1,22
 273 438 273 438 268 442 c 1,23,12
 269 479 269 479 253 545.5 c 128,-1,13
EndSplineSet
EndChar

StartChar: numbersign
Encoding: 35 35 6
Width: 554
GlyphClass: 2
Flags: W
LayerCount: 2
Fore
SplineSet
527 231 m 1,0,-1
 356 231 l 1,1,-1
 324 28 l 2,2,3
 320 -2 320 -2 275 -2 c 1,4,-1
 308 231 l 1,5,-1
 178 231 l 1,6,-1
 146 28 l 2,7,8
 142 -2 142 -2 97 -2 c 1,9,-1
 130 231 l 1,10,-1
 48 231 l 1,11,12
 31 230 31 230 23 241 c 128,-1,13
 15 252 15 252 12 275 c 1,14,-1
 137 278 l 1,15,-1
 157 415 l 1,16,-1
 68 418 l 2,17,18
 51 418 51 418 43 428 c 128,-1,19
 35 438 35 438 30 462 c 1,20,-1
 163 460 l 1,21,-1
 191 652 l 2,22,23
 193 668 193 668 208.5 677 c 128,-1,24
 224 686 224 686 238 687 c 2,25,-1
 252 688 l 1,26,-1
 215 459 l 1,27,-1
 341 458 l 1,28,-1
 369 652 l 2,29,30
 371 668 371 668 386.5 677 c 128,-1,31
 402 686 402 686 416 687 c 2,32,-1
 430 688 l 1,33,-1
 392 457 l 1,34,-1
 473 456 l 2,35,36
 489 456 489 456 500.5 442.5 c 128,-1,37
 512 429 512 429 515 416 c 2,38,-1
 518 402 l 1,39,-1
 384 406 l 1,40,-1
 365 284 l 1,41,-1
 482 287 l 2,42,43
 498 287 498 287 509 273 c 128,-1,44
 520 259 520 259 524 245 c 2,45,-1
 527 231 l 1,0,-1
208 413 m 1,46,-1
 186 279 l 1,47,-1
 316 283 l 1,48,-1
 334 408 l 1,49,-1
 208 413 l 1,46,-1
EndSplineSet
EndChar

StartChar: dollar
Encoding: 36 36 7
Width: 520
GlyphClass: 2
Flags: W
LayerCount: 2
Fore
SplineSet
409 690 m 1,0,1
 407 700 407 700 421.5 700 c 128,-1,2
 436 700 436 700 439 692 c 0,3,4
 461 610 461 610 465 536 c 1,5,6
 462 530 462 530 449 530 c 128,-1,7
 436 530 436 530 433 533 c 1,8,9
 408 609 408 609 362 631 c 0,10,11
 340 642 340 642 310 644 c 1,12,-1
 295 398 l 1,13,14
 379 347 379 347 407 319 c 0,15,16
 467 260 467 260 467 182.5 c 128,-1,17
 467 105 467 105 411.5 56.5 c 128,-1,18
 356 8 356 8 272 0 c 1,19,-1
 267 -90 l 2,20,21
 266 -102 266 -102 258.5 -109 c 128,-1,22
 251 -116 251 -116 243.5 -116 c 128,-1,23
 236 -116 236 -116 228 -113 c 1,24,-1
 234 -2 l 1,25,26
 166 1 166 1 109 27 c 1,27,-1
 117 8 l 2,28,29
 120 2 120 2 112.5 -3.5 c 128,-1,30
 105 -9 105 -9 95.5 -9 c 128,-1,31
 86 -9 86 -9 84 -4 c 0,32,33
 53 77 53 77 46 180 c 0,34,35
 46 190 46 190 61.5 190 c 128,-1,36
 77 190 77 190 78 183 c 1,37,38
 93 133 93 133 132.5 86.5 c 128,-1,39
 172 40 172 40 236 35 c 1,40,-1
 250 303 l 1,41,42
 203 330 203 330 173 352 c 128,-1,43
 143 374 143 374 135 383 c 128,-1,44
 127 392 127 392 113.5 407.5 c 128,-1,45
 100 423 100 423 94 438 c 0,46,47
 80 476 80 476 80 511 c 0,48,49
 80 575 80 575 132 622 c 128,-1,50
 184 669 184 669 270 679 c 1,51,-1
 273 739 l 2,52,53
 275 771 275 771 303 771 c 0,54,55
 310 771 310 771 318 769 c 1,56,57
 316 744 316 744 312 682 c 1,58,59
 358 682 358 682 404 669 c 1,60,-1
 413 667 l 1,61,62
 409 683 409 683 409 690 c 1,0,1
364 140 m 0,63,64
 364 219 364 219 288 277 c 1,65,66
 277 77 277 77 274 36 c 1,67,68
 319 43 319 43 341.5 72 c 128,-1,69
 364 101 364 101 364 140 c 0,63,64
178 541 m 0,70,71
 178 476 178 476 256 423 c 1,72,-1
 268 643 l 1,73,74
 178 629 178 629 178 541 c 0,70,71
EndSplineSet
EndChar

StartChar: percent
Encoding: 37 37 8
Width: 809
GlyphClass: 2
Flags: W
LayerCount: 2
Fore
SplineSet
194 -9 m 2,0,1
 178 -33 178 -33 166.5 -33 c 128,-1,2
 155 -33 155 -33 138 -16 c 1,3,-1
 625 682 l 2,4,5
 638 701 638 701 648 701 c 0,6,7
 663 701 663 701 680 684 c 1,8,-1
 194 -9 l 2,0,1
700 274 m 128,-1,10
 742 226 742 226 742 159.5 c 128,-1,11
 742 93 742 93 699 44 c 128,-1,12
 656 -5 656 -5 588 -5 c 128,-1,13
 520 -5 520 -5 477.5 42 c 128,-1,14
 435 89 435 89 435 158.5 c 128,-1,15
 435 228 435 228 479.5 275 c 128,-1,16
 524 322 524 322 591 322 c 128,-1,9
 658 322 658 322 700 274 c 128,-1,10
672.5 87 m 128,-1,18
 707 113 707 113 707 160 c 128,-1,19
 707 207 707 207 672.5 231.5 c 128,-1,20
 638 256 638 256 588 256 c 128,-1,21
 538 256 538 256 504 230.5 c 128,-1,22
 470 205 470 205 470 158 c 128,-1,23
 470 111 470 111 503.5 86 c 128,-1,24
 537 61 537 61 587.5 61 c 128,-1,17
 638 61 638 61 672.5 87 c 128,-1,18
336 624 m 128,-1,26
 378 576 378 576 378 509.5 c 128,-1,27
 378 443 378 443 335 394 c 128,-1,28
 292 345 292 345 224 345 c 128,-1,29
 156 345 156 345 113.5 392 c 128,-1,30
 71 439 71 439 71 508.5 c 128,-1,31
 71 578 71 578 115.5 625 c 128,-1,32
 160 672 160 672 227 672 c 128,-1,25
 294 672 294 672 336 624 c 128,-1,26
308.5 437 m 128,-1,34
 343 463 343 463 343 510 c 128,-1,35
 343 557 343 557 308.5 581.5 c 128,-1,36
 274 606 274 606 224 606 c 128,-1,37
 174 606 174 606 140 580.5 c 128,-1,38
 106 555 106 555 106 508 c 128,-1,39
 106 461 106 461 139.5 436 c 128,-1,40
 173 411 173 411 223.5 411 c 128,-1,33
 274 411 274 411 308.5 437 c 128,-1,34
EndSplineSet
EndChar

StartChar: ampersand
Encoding: 38 38 9
Width: 820
GlyphClass: 2
Flags: W
LayerCount: 2
Fore
SplineSet
638 429 m 1,0,-1
 755 432 l 2,1,2
 764 432 764 432 764 417 c 128,-1,3
 764 402 764 402 755 402 c 2,4,-1
 712 402 l 2,5,6
 696 402 696 402 684 375 c 1,7,8
 661 328 661 328 615.5 265.5 c 128,-1,9
 570 203 570 203 512 148 c 1,10,11
 631 49 631 49 700 49 c 0,12,13
 738 49 738 49 764 78 c 0,14,15
 773 88 773 88 780 88 c 0,16,17
 793 88 793 88 793 76 c 0,18,19
 793 55 793 55 748.5 21 c 128,-1,20
 704 -13 704 -13 648 -13 c 0,21,22
 559 -13 559 -13 438 90 c 1,23,24
 302 -13 302 -13 186 -13 c 0,25,26
 122 -13 122 -13 76.5 22.5 c 128,-1,27
 31 58 31 58 31 127 c 0,28,29
 31 207 31 207 88 267 c 0,30,31
 119 299 119 299 141 317 c 128,-1,32
 163 335 163 335 207 367 c 1,33,34
 151 465 151 465 151 531 c 128,-1,35
 151 597 151 597 200 634.5 c 128,-1,36
 249 672 249 672 308 672 c 128,-1,37
 367 672 367 672 403.5 639.5 c 128,-1,38
 440 607 440 607 440 566 c 128,-1,39
 440 525 440 525 416.5 490.5 c 128,-1,40
 393 456 393 456 369 436 c 128,-1,41
 345 416 345 416 299 383 c 1,42,43
 367 279 367 279 481 175 c 1,44,45
 532 226 532 226 562 279 c 128,-1,46
 592 332 592 332 592 365 c 0,47,48
 592 379 592 379 586.5 390 c 128,-1,49
 581 401 581 401 572 401 c 2,50,-1
 531 401 l 2,51,52
 523 401 523 401 523 416 c 128,-1,53
 523 431 523 431 531 431 c 2,54,-1
 638 429 l 1,0,-1
248 62 m 0,55,56
 325 62 325 62 407 118 c 1,57,58
 302 214 302 214 226 335 c 1,59,60
 121 255 121 255 121 176 c 0,61,62
 121 119 121 119 158 90.5 c 128,-1,63
 195 62 195 62 248 62 c 0,55,56
249.5 614.5 m 128,-1,65
 230 593 230 593 230 547 c 128,-1,66
 230 501 230 501 279 417 c 1,67,68
 361 487 361 487 361 561.5 c 128,-1,69
 361 636 361 636 298 636 c 0,70,64
 269 636 269 636 249.5 614.5 c 128,-1,65
EndSplineSet
EndChar

StartChar: quotesingle
Encoding: 39 39 10
Width: 300
GlyphClass: 2
Flags: W
LayerCount: 2
Fore
SplineSet
175 543 m 0,0,1
 175 579 175 579 127 579 c 0,2,3
 121 579 121 579 114 578 c 1,4,5
 88 591 88 591 88 620 c 128,-1,6
 88 649 88 649 104 665.5 c 128,-1,7
 120 682 120 682 149.5 682 c 128,-1,8
 179 682 179 682 199 656 c 128,-1,9
 219 630 219 630 219 596 c 0,10,11
 219 531 219 531 184.5 491 c 128,-1,12
 150 451 150 451 87 416 c 1,13,-1
 76 435 l 1,14,15
 118 456 118 456 146.5 487 c 128,-1,16
 175 518 175 518 175 543 c 0,0,1
EndSplineSet
EndChar

StartChar: parenleft
Encoding: 40 40 11
Width: 485
GlyphClass: 2
Flags: W
LayerCount: 2
Fore
SplineSet
506 -364 m 0,0,1
 518 -364 518 -364 518 -385.5 c 128,-1,2
 518 -407 518 -407 506 -407 c 0,3,4
 427 -407 427 -407 348.5 -357 c 128,-1,5
 270 -307 270 -307 207 -221 c 128,-1,6
 144 -135 144 -135 105 -6.5 c 128,-1,7
 66 122 66 122 66 263.5 c 128,-1,8
 66 405 66 405 105.5 526 c 128,-1,9
 145 647 145 647 208.5 726.5 c 128,-1,10
 272 806 272 806 350 851 c 128,-1,11
 428 896 428 896 507 896 c 0,12,13
 519 896 519 896 519 874.5 c 128,-1,14
 519 853 519 853 506 853 c 0,15,16
 413 853 413 853 328.5 772 c 128,-1,17
 244 691 244 691 192.5 555 c 128,-1,18
 141 419 141 419 141 260.5 c 128,-1,19
 141 102 141 102 194 -45 c 128,-1,20
 247 -192 247 -192 331.5 -278 c 128,-1,21
 416 -364 416 -364 506 -364 c 0,0,1
EndSplineSet
EndChar

StartChar: parenright
Encoding: 41 41 12
Width: 485
GlyphClass: 2
Flags: W
LayerCount: 2
Fore
SplineSet
-21 -364 m 0,0,1
 69 -364 69 -364 153.5 -278 c 128,-1,2
 238 -192 238 -192 291 -45 c 128,-1,3
 344 102 344 102 344 260.5 c 128,-1,4
 344 419 344 419 292.5 555 c 128,-1,5
 241 691 241 691 156.5 772 c 128,-1,6
 72 853 72 853 -21 853 c 0,7,8
 -34 853 -34 853 -34 874.5 c 128,-1,9
 -34 896 -34 896 -22 896 c 0,10,11
 57 896 57 896 135 851 c 128,-1,12
 213 806 213 806 276.5 726.5 c 128,-1,13
 340 647 340 647 379.5 526 c 128,-1,14
 419 405 419 405 419 263.5 c 128,-1,15
 419 122 419 122 380 -6.5 c 128,-1,16
 341 -135 341 -135 278 -221 c 128,-1,17
 215 -307 215 -307 136.5 -357 c 128,-1,18
 58 -407 58 -407 -21 -407 c 0,19,20
 -33 -407 -33 -407 -33 -385.5 c 128,-1,21
 -33 -364 -33 -364 -21 -364 c 0,0,1
EndSplineSet
EndChar

StartChar: asterisk
Encoding: 42 42 13
Width: 500
GlyphClass: 2
Flags: W
LayerCount: 2
Fore
SplineSet
78 545 m 2,0,1
 69 550 69 550 69 561.5 c 128,-1,2
 69 573 69 573 77 582 c 128,-1,3
 85 591 85 591 92.5 591 c 128,-1,4
 100 591 100 591 105 588 c 2,5,-1
 232 496 l 1,6,-1
 228 658 l 2,7,8
 228 664 228 664 236 668.5 c 128,-1,9
 244 673 244 673 252 673 c 0,10,11
 271 673 271 673 271 655 c 0,12,13
 271 651 271 651 270 633 c 0,14,15
 265 545 265 545 264 495 c 1,16,-1
 400 579 l 2,17,18
 406 582 406 582 412 582 c 128,-1,19
 418 582 418 582 424 576 c 128,-1,20
 430 570 430 570 430 560 c 128,-1,21
 430 550 430 550 419 545 c 2,22,-1
 278 473 l 1,23,-1
 420 404 l 1,24,25
 432 397 432 397 432 386 c 128,-1,26
 432 375 432 375 424 367 c 128,-1,27
 416 359 416 359 408 359 c 128,-1,28
 400 359 400 359 394 362 c 2,29,-1
 263 449 l 1,30,-1
 270 284 l 2,31,32
 270 269 270 269 248 269 c 128,-1,33
 226 269 226 269 226 286 c 2,34,-1
 233 446 l 1,35,-1
 96 358 l 2,36,37
 93 356 93 356 85.5 356 c 128,-1,38
 78 356 78 356 71 364 c 128,-1,39
 64 372 64 372 64 382.5 c 128,-1,40
 64 393 64 393 74 397 c 2,41,-1
 219 471 l 1,42,-1
 78 545 l 2,0,1
EndSplineSet
EndChar

StartChar: plus
Encoding: 43 43 14
Width: 520
GlyphClass: 2
Flags: W
LayerCount: 2
Fore
SplineSet
284 29 m 2,0,1
 284 2 284 2 255 2 c 0,2,3
 252 2 252 2 248 2 c 1,4,-1
 237 5 l 1,5,6
 237 47 237 47 235 233 c 1,7,-1
 70 233 l 2,8,9
 53 233 53 233 44 243.5 c 128,-1,10
 35 254 35 254 34 265 c 2,11,-1
 33 276 l 1,12,13
 74 276 74 276 234 278 c 1,14,-1
 232 458 l 2,15,16
 232 505 232 505 275 505 c 0,17,18
 279 505 279 505 284 505 c 1,19,-1
 284 278 l 1,20,-1
 441 281 l 2,21,22
 488 281 488 281 488 240 c 0,23,24
 488 236 488 236 488 233 c 1,25,-1
 284 233 l 1,26,-1
 284 29 l 2,0,1
EndSplineSet
EndChar

StartChar: comma
Encoding: 44 44 15
Width: 260
GlyphClass: 2
Flags: W
LayerCount: 2
Fore
SplineSet
159 -37 m 0,0,1
 159 -1 159 -1 111 -1 c 0,2,3
 105 -1 105 -1 98 -2 c 1,4,5
 72 11 72 11 72 40 c 128,-1,6
 72 69 72 69 88 85.5 c 128,-1,7
 104 102 104 102 133.5 102 c 128,-1,8
 163 102 163 102 183 76 c 128,-1,9
 203 50 203 50 203 16 c 0,10,11
 203 -49 203 -49 168.5 -89 c 128,-1,12
 134 -129 134 -129 71 -164 c 1,13,-1
 60 -145 l 1,14,15
 102 -124 102 -124 130.5 -93 c 128,-1,16
 159 -62 159 -62 159 -37 c 0,0,1
EndSplineSet
EndChar

StartChar: hyphen
Encoding: 45 45 16
Width: 250
GlyphClass: 2
Flags: W
LayerCount: 2
Fore
SplineSet
6 227 m 1,0,1
 10 227 10 227 37 227 c 128,-1,2
 64 227 64 227 129.5 240.5 c 128,-1,3
 195 254 195 254 211 254 c 0,4,5
 240 254 240 254 240 230 c 0,6,7
 240 226 240 226 238 214 c 1,8,9
 198 212 198 212 132 196.5 c 128,-1,10
 66 181 66 181 46 181 c 128,-1,11
 26 181 26 181 17.5 192.5 c 128,-1,12
 9 204 9 204 8 216 c 1,13,-1
 6 227 l 1,0,1
EndSplineSet
EndChar

StartChar: period
Encoding: 46 46 17
Width: 260
GlyphClass: 2
Flags: W
LayerCount: 2
Fore
SplineSet
170.5 4.5 m 128,-1,1
 154 -13 154 -13 130.5 -13 c 128,-1,2
 107 -13 107 -13 90 3.5 c 128,-1,3
 73 20 73 20 73 43 c 128,-1,4
 73 66 73 66 88.5 83.5 c 128,-1,5
 104 101 104 101 127.5 101 c 128,-1,6
 151 101 151 101 169 85.5 c 128,-1,7
 187 70 187 70 187 46 c 128,-1,0
 187 22 187 22 170.5 4.5 c 128,-1,1
EndSplineSet
EndChar

StartChar: slash
Encoding: 47 47 18
Width: 580
GlyphClass: 2
Flags: W
LayerCount: 2
Fore
SplineSet
99 -113 m 2,0,1
 87 -137 87 -137 73.5 -137 c 128,-1,2
 60 -137 60 -137 43 -120 c 1,3,-1
 509 746 l 2,4,5
 520 766 520 766 530 766 c 0,6,7
 548 766 548 766 563 749 c 1,8,-1
 99 -113 l 2,0,1
EndSplineSet
EndChar

StartChar: zero
Encoding: 48 48 19
Width: 556
GlyphClass: 2
Flags: W
LayerCount: 2
Fore
SplineSet
428.5 386 m 128,-1,1
 489 317 489 317 489 221.5 c 128,-1,2
 489 126 489 126 427 56.5 c 128,-1,3
 365 -13 365 -13 268.5 -13 c 128,-1,4
 172 -13 172 -13 111 54 c 128,-1,5
 50 121 50 121 50 221 c 128,-1,6
 50 321 50 321 113.5 388 c 128,-1,7
 177 455 177 455 272.5 455 c 128,-1,0
 368 455 368 455 428.5 386 c 128,-1,1
395 111 m 128,-1,9
 448 150 448 150 448 222.5 c 128,-1,10
 448 295 448 295 395 332.5 c 128,-1,11
 342 370 342 370 268.5 370 c 128,-1,12
 195 370 195 370 143 331.5 c 128,-1,13
 91 293 91 293 91 220 c 128,-1,14
 91 147 91 147 142.5 109.5 c 128,-1,15
 194 72 194 72 268 72 c 128,-1,8
 342 72 342 72 395 111 c 128,-1,9
EndSplineSet
EndChar

StartChar: one
Encoding: 49 49 20
Width: 404
GlyphClass: 2
Flags: W
LayerCount: 2
Fore
SplineSet
196 442 m 1,0,-1
 324 445 l 2,1,2
 331 445 331 445 331 430 c 128,-1,3
 331 415 331 415 326 415 c 2,4,-1
 256 415 l 2,5,6
 244 415 244 415 244 398 c 2,7,-1
 244 118 l 2,8,9
 244 30 244 30 265 30 c 2,10,-1
 326 30 l 2,11,12
 334 30 334 30 334 15 c 128,-1,13
 334 0 334 0 328 0 c 2,14,-1
 207 1 l 1,15,-1
 79 -2 l 2,16,17
 72 -2 72 -2 72 13 c 128,-1,18
 72 28 72 28 77 28 c 2,19,-1
 147 28 l 2,20,21
 159 28 159 28 159 45 c 2,22,-1
 159 325 l 2,23,24
 159 413 159 413 138 413 c 2,25,-1
 77 413 l 2,26,27
 69 413 69 413 69 428 c 128,-1,28
 69 443 69 443 75 443 c 2,29,-1
 196 442 l 1,0,-1
EndSplineSet
EndChar

StartChar: two
Encoding: 50 50 21
Width: 483
GlyphClass: 2
Flags: W
LayerCount: 2
Fore
SplineSet
408 135 m 2,0,1
 410 143 410 143 425.5 143 c 128,-1,2
 441 143 441 143 441 137 c 2,3,-1
 429 -22 l 2,4,5
 429 -29 429 -29 413.5 -29 c 128,-1,6
 398 -29 398 -29 398 -22 c 2,7,-1
 398 0 l 1,8,-1
 46 0 l 2,9,10
 38 0 38 0 38 8.5 c 128,-1,11
 38 17 38 17 46 22 c 0,12,13
 154 87 154 87 231.5 178 c 128,-1,14
 309 269 309 269 309 338 c 0,15,16
 309 371 309 371 286 393.5 c 128,-1,17
 263 416 263 416 227.5 416 c 128,-1,18
 192 416 192 416 167.5 393 c 128,-1,19
 143 370 143 370 143 333 c 128,-1,20
 143 296 143 296 158 278 c 1,21,22
 144 256 144 256 107 256 c 0,23,24
 87 256 87 256 72.5 271 c 128,-1,25
 58 286 58 286 58 310 c 0,26,27
 58 368 58 368 113.5 411.5 c 128,-1,28
 169 455 169 455 237.5 455 c 128,-1,29
 306 455 306 455 356 421 c 128,-1,30
 406 387 406 387 406 328 c 0,31,32
 406 209 406 209 159 62 c 1,33,-1
 161 59 l 1,34,35
 179 60 179 60 205 60 c 0,36,37
 350 60 350 60 403 97 c 1,38,-1
 408 135 l 2,0,1
EndSplineSet
EndChar

StartChar: three
Encoding: 51 51 22
Width: 551
GlyphClass: 2
Flags: W
LayerCount: 2
Fore
SplineSet
74 -186 m 1,0,1
 42 -159 42 -159 42 -123.5 c 128,-1,2
 42 -88 42 -88 59.5 -71.5 c 128,-1,3
 77 -55 77 -55 95 -55 c 2,4,-1
 113 -55 l 1,5,6
 145 -194 145 -194 259 -194 c 0,7,8
 316 -194 316 -194 357.5 -153.5 c 128,-1,9
 399 -113 399 -113 399 -45 c 128,-1,10
 399 23 399 23 365 74.5 c 128,-1,11
 331 126 331 126 273 139 c 1,12,13
 210 114 210 114 192 73 c 0,14,15
 188 64 188 64 188 58 c 2,16,-1
 188 53 l 1,17,18
 173 48 173 48 161.5 55 c 128,-1,19
 150 62 150 62 150 80.5 c 128,-1,20
 150 99 150 99 169.5 117.5 c 128,-1,21
 189 136 189 136 216.5 151 c 128,-1,22
 244 166 244 166 272 184.5 c 128,-1,23
 300 203 300 203 319.5 235.5 c 128,-1,24
 339 268 339 268 339 311.5 c 128,-1,25
 339 355 339 355 314.5 382.5 c 128,-1,26
 290 410 290 410 247.5 410 c 128,-1,27
 205 410 205 410 176 385 c 128,-1,28
 147 360 147 360 147 333 c 128,-1,29
 147 306 147 306 160 281 c 1,30,31
 144 247 144 247 107 247 c 0,32,33
 86 247 86 247 71 262 c 128,-1,34
 56 277 56 277 56 303 c 0,35,36
 56 367 56 367 127 411 c 128,-1,37
 198 455 198 455 265.5 455 c 128,-1,38
 333 455 333 455 385.5 419 c 128,-1,39
 438 383 438 383 438 325 c 0,40,41
 438 232 438 232 315 165 c 1,42,-1
 315 163 l 1,43,44
 402 139 402 139 448.5 84 c 128,-1,45
 495 29 495 29 495 -35 c 0,46,47
 495 -126 495 -126 415.5 -181.5 c 128,-1,48
 336 -237 336 -237 233.5 -237 c 128,-1,49
 131 -237 131 -237 74 -186 c 1,0,1
EndSplineSet
EndChar

StartChar: four
Encoding: 52 52 23
Width: 556
GlyphClass: 2
Flags: W
LayerCount: 2
Fore
SplineSet
364 -223 m 1,0,-1
 200 -226 l 2,1,2
 193 -226 193 -226 193 -210.5 c 128,-1,3
 193 -195 193 -195 198 -195 c 2,4,-1
 293 -195 l 2,5,6
 306 -195 306 -195 308 -184 c 0,7,8
 308 -180 308 -180 308 -171 c 2,9,-1
 308 5 l 1,10,-1
 48 5 l 2,11,12
 37 5 37 5 37 20.5 c 128,-1,13
 37 36 37 36 49 51 c 2,14,-1
 371 472 l 1,15,16
 408 472 408 472 408 451 c 0,17,18
 408 447 408 447 406 417 c 0,19,20
 398 327 398 327 398 190 c 2,21,-1
 398 53 l 1,22,-1
 496 53 l 2,23,24
 509 53 509 53 509 29 c 128,-1,25
 509 5 509 5 496 5 c 2,26,-1
 398 5 l 1,27,-1
 398 -105 l 2,28,29
 398 -193 398 -193 419 -193 c 2,30,-1
 500 -192 l 2,31,32
 508 -192 508 -192 508 -208 c 128,-1,33
 508 -224 508 -224 502 -224 c 2,34,-1
 364 -223 l 1,0,-1
308 51 m 1,35,-1
 308 257 l 1,36,-1
 310 327 l 1,37,-1
 307 327 l 1,38,-1
 103 51 l 1,39,-1
 308 51 l 1,35,-1
EndSplineSet
EndChar

StartChar: five
Encoding: 53 53 24
Width: 556
GlyphClass: 2
Flags: W
LayerCount: 2
Fore
SplineSet
237 221 m 0,0,1
 335 221 335 221 403.5 160 c 128,-1,2
 472 99 472 99 472 0 c 128,-1,3
 472 -99 472 -99 386.5 -168.5 c 128,-1,4
 301 -238 301 -238 198 -238 c 0,5,6
 139 -238 139 -238 96 -211.5 c 128,-1,7
 53 -185 53 -185 53 -148 c 0,8,9
 53 -128 53 -128 67 -111.5 c 128,-1,10
 81 -95 81 -95 104 -95 c 0,11,12
 109 -95 109 -95 119 -97 c 1,13,14
 127 -141 127 -141 157 -166 c 128,-1,15
 187 -191 187 -191 227 -191 c 0,16,17
 310 -191 310 -191 357 -140.5 c 128,-1,18
 404 -90 404 -90 404 -18.5 c 128,-1,19
 404 53 404 53 344 102.5 c 128,-1,20
 284 152 284 152 192 152 c 0,21,22
 152 152 152 152 145 136 c 1,23,24
 139 126 139 126 124.5 126 c 128,-1,25
 110 126 110 126 110 135 c 2,26,-1
 141 421 l 1,27,-1
 369 440 l 2,28,29
 426 444 426 444 443 473 c 0,30,31
 447 480 447 480 456 480 c 128,-1,32
 465 480 465 480 465 472 c 1,33,34
 460 433 460 433 436 402 c 128,-1,35
 412 371 412 371 363 367 c 2,36,-1
 172 350 l 1,37,-1
 154 209 l 1,38,39
 193 221 193 221 237 221 c 0,0,1
EndSplineSet
EndChar

StartChar: six
Encoding: 54 54 25
Width: 556
GlyphClass: 2
Flags: W
LayerCount: 2
Fore
SplineSet
239 294 m 0,0,1
 226 294 226 294 226 309.5 c 128,-1,2
 226 325 226 325 256.5 338.5 c 128,-1,3
 287 352 287 352 322 352 c 0,4,5
 398 352 398 352 450 306.5 c 128,-1,6
 502 261 502 261 502 194 c 0,7,8
 502 98 502 98 436.5 42.5 c 128,-1,9
 371 -13 371 -13 282 -13 c 128,-1,10
 193 -13 193 -13 128.5 53 c 128,-1,11
 64 119 64 119 64 238 c 0,12,13
 64 323 64 323 94.5 397.5 c 128,-1,14
 125 472 125 472 170.5 521 c 128,-1,15
 216 570 216 570 273 608 c 0,16,17
 382 680 382 680 470 693 c 1,18,19
 488 693 488 693 488 680 c 0,20,21
 488 674 488 674 484 673 c 0,22,23
 325 607 325 607 245 499.5 c 128,-1,24
 165 392 165 392 165 266.5 c 128,-1,25
 165 141 165 141 204.5 82.5 c 128,-1,26
 244 24 244 24 301 24 c 0,27,28
 344 24 344 24 373 63.5 c 128,-1,29
 402 103 402 103 402 164.5 c 128,-1,30
 402 226 402 226 375 267 c 128,-1,31
 348 308 348 308 295 308 c 0,32,33
 278 308 278 308 259 301 c 128,-1,34
 240 294 240 294 239 294 c 0,0,1
EndSplineSet
EndChar

StartChar: seven
Encoding: 55 55 26
Width: 480
GlyphClass: 2
Flags: W
LayerCount: 2
Fore
SplineSet
486 434 m 0,0,1
 486 429 486 429 478 416 c 1,2,3
 377 288 377 288 297 141 c 0,4,5
 253 60 253 60 227 -26 c 128,-1,6
 201 -112 201 -112 201 -187 c 0,7,8
 201 -196 201 -196 196 -200 c 0,9,10
 184 -208 184 -208 155.5 -223 c 128,-1,11
 127 -238 127 -238 120 -239 c 0,12,13
 114 -239 114 -239 114 -201.5 c 128,-1,14
 114 -164 114 -164 126 -107.5 c 128,-1,15
 138 -51 138 -51 164.5 4.5 c 128,-1,16
 191 60 191 60 214.5 103.5 c 128,-1,17
 238 147 238 147 280 202 c 1,18,19
 340 284 340 284 408 366 c 1,20,-1
 269 366 l 2,21,22
 177 366 177 366 138 361 c 128,-1,23
 99 356 99 356 79 338 c 0,24,25
 74 334 74 334 62 310 c 0,26,27
 60 307 60 307 52.5 307 c 128,-1,28
 45 307 45 307 37.5 311 c 128,-1,29
 30 315 30 315 30 318 c 128,-1,30
 30 321 30 321 34 328 c 2,31,-1
 46 353 l 2,32,33
 55 371 55 371 72 413.5 c 128,-1,34
 89 456 89 456 94 472 c 1,35,36
 96 475 96 475 101 475 c 128,-1,37
 106 475 106 475 114.5 470.5 c 128,-1,38
 123 466 123 466 123 462 c 1,39,-1
 117 442 l 1,40,-1
 336 442 l 2,41,42
 384 442 384 442 426 445 c 128,-1,43
 468 448 468 448 471 448 c 0,44,45
 486 448 486 448 486 434 c 0,0,1
EndSplineSet
EndChar

StartChar: eight
Encoding: 56 56 27
Width: 524
GlyphClass: 2
Flags: W
LayerCount: 2
Fore
SplineSet
66 153 m 0,0,1
 66 209 66 209 102.5 258 c 128,-1,2
 139 307 139 307 188 341 c 1,3,4
 84 412 84 412 84 505 c 0,5,6
 84 576 84 576 144 630.5 c 128,-1,7
 204 685 204 685 278.5 685 c 128,-1,8
 353 685 353 685 398.5 645 c 128,-1,9
 444 605 444 605 444 549 c 128,-1,10
 444 493 444 493 407 445 c 128,-1,11
 370 397 370 397 320 366 c 1,12,13
 374 329 374 329 404 300 c 0,14,15
 458 246 458 246 458 181 c 0,16,17
 458 92 458 92 396.5 39.5 c 128,-1,18
 335 -13 335 -13 254 -13 c 128,-1,19
 173 -13 173 -13 119.5 34 c 128,-1,20
 66 81 66 81 66 153 c 0,0,1
376 141 m 0,21,22
 376 238 376 238 219 321 c 1,23,24
 142 260 142 260 142 177 c 0,25,26
 142 110 142 110 180 72 c 128,-1,27
 218 34 218 34 271.5 34 c 128,-1,28
 325 34 325 34 350.5 66.5 c 128,-1,29
 376 99 376 99 376 141 c 0,21,22
228 430.5 m 128,-1,31
 246 419 246 419 264 406 c 128,-1,32
 282 393 282 393 288 389 c 1,33,34
 364 450 364 450 364 523 c 0,35,36
 364 572 364 572 330.5 605.5 c 128,-1,37
 297 639 297 639 253 639 c 128,-1,38
 209 639 209 639 182 611.5 c 128,-1,39
 155 584 155 584 155 544.5 c 128,-1,40
 155 505 155 505 182.5 473.5 c 128,-1,30
 210 442 210 442 228 430.5 c 128,-1,31
EndSplineSet
EndChar

StartChar: nine
Encoding: 57 57 28
Width: 548
GlyphClass: 2
Flags: W
LayerCount: 2
Fore
SplineSet
315 155 m 0,0,1
 328 155 328 155 328 139.5 c 128,-1,2
 328 124 328 124 297.5 110.5 c 128,-1,3
 267 97 267 97 232 97 c 0,4,5
 156 97 156 97 105 141.5 c 128,-1,6
 54 186 54 186 54 253 c 0,7,8
 54 349 54 349 118 402 c 128,-1,9
 182 455 182 455 271.5 455 c 128,-1,10
 361 455 361 455 425.5 389 c 128,-1,11
 490 323 490 323 490 204 c 0,12,13
 490 119 490 119 459 45 c 128,-1,14
 428 -29 428 -29 383 -77 c 128,-1,15
 338 -125 338 -125 280 -162 c 0,16,17
 172 -233 172 -233 83 -246 c 1,18,19
 65 -246 65 -246 65 -233 c 0,20,21
 65 -227 65 -227 69 -226 c 0,22,23
 229 -160 229 -160 309 -54.5 c 128,-1,24
 389 51 389 51 389 176 c 128,-1,25
 389 301 389 301 349.5 359.5 c 128,-1,26
 310 418 310 418 253 418 c 0,27,28
 209 418 209 418 181.5 380.5 c 128,-1,29
 154 343 154 343 154 281.5 c 128,-1,30
 154 220 154 220 180 180.5 c 128,-1,31
 206 141 206 141 259 141 c 0,32,33
 276 141 276 141 295 148 c 128,-1,34
 314 155 314 155 315 155 c 0,0,1
EndSplineSet
EndChar

StartChar: colon
Encoding: 58 58 29
Width: 260
GlyphClass: 2
Flags: W
LayerCount: 2
Fore
SplineSet
170.5 340.5 m 128,-1,1
 154 323 154 323 130.5 323 c 128,-1,2
 107 323 107 323 90 339.5 c 128,-1,3
 73 356 73 356 73 379 c 128,-1,4
 73 402 73 402 88.5 419.5 c 128,-1,5
 104 437 104 437 127.5 437 c 128,-1,6
 151 437 151 437 169 421.5 c 128,-1,7
 187 406 187 406 187 382 c 128,-1,0
 187 358 187 358 170.5 340.5 c 128,-1,1
170.5 4.5 m 128,-1,9
 154 -13 154 -13 130.5 -13 c 128,-1,10
 107 -13 107 -13 90 3.5 c 128,-1,11
 73 20 73 20 73 43 c 128,-1,12
 73 66 73 66 88.5 83.5 c 128,-1,13
 104 101 104 101 127.5 101 c 128,-1,14
 151 101 151 101 169 85.5 c 128,-1,15
 187 70 187 70 187 46 c 128,-1,8
 187 22 187 22 170.5 4.5 c 128,-1,9
EndSplineSet
EndChar

StartChar: semicolon
Encoding: 59 59 30
Width: 260
GlyphClass: 2
Flags: W
LayerCount: 2
Fore
SplineSet
172.5 340.5 m 128,-1,1
 156 323 156 323 132.5 323 c 128,-1,2
 109 323 109 323 92 339.5 c 128,-1,3
 75 356 75 356 75 379 c 128,-1,4
 75 402 75 402 90.5 419.5 c 128,-1,5
 106 437 106 437 129.5 437 c 128,-1,6
 153 437 153 437 171 421.5 c 128,-1,7
 189 406 189 406 189 382 c 128,-1,0
 189 358 189 358 172.5 340.5 c 128,-1,1
159 -37 m 0,8,9
 159 -1 159 -1 111 -1 c 0,10,11
 105 -1 105 -1 98 -2 c 1,12,13
 72 11 72 11 72 40 c 128,-1,14
 72 69 72 69 88 85.5 c 128,-1,15
 104 102 104 102 133.5 102 c 128,-1,16
 163 102 163 102 183 76 c 128,-1,17
 203 50 203 50 203 16 c 0,18,19
 203 -49 203 -49 168.5 -89 c 128,-1,20
 134 -129 134 -129 71 -164 c 1,21,-1
 60 -145 l 1,22,23
 102 -124 102 -124 130.5 -93 c 128,-1,24
 159 -62 159 -62 159 -37 c 0,8,9
EndSplineSet
EndChar

StartChar: less
Encoding: 60 60 31
Width: 473
GlyphClass: 2
Flags: W
LayerCount: 2
Fore
SplineSet
34 235 m 128,-1,1
 34 247 34 247 97.5 293.5 c 128,-1,2
 161 340 161 340 242 383 c 128,-1,3
 323 426 323 426 362 426 c 0,4,5
 382 426 382 426 395 419.5 c 128,-1,6
 408 413 408 413 411 406 c 2,7,-1
 414 400 l 1,8,9
 331 367 331 367 258 325.5 c 128,-1,10
 185 284 185 284 160.5 265.5 c 128,-1,11
 136 247 136 247 122 235 c 1,12,13
 154 203 154 203 242 153.5 c 128,-1,14
 330 104 330 104 414 70 c 1,15,16
 410 59 410 59 396 51.5 c 128,-1,17
 382 44 382 44 362 44 c 0,18,19
 323 44 323 44 242 87 c 128,-1,20
 161 130 161 130 97.5 176.5 c 128,-1,0
 34 223 34 223 34 235 c 128,-1,1
EndSplineSet
EndChar

StartChar: equal
Encoding: 61 61 32
Width: 520
GlyphClass: 2
Flags: W
LayerCount: 2
Fore
SplineSet
440 360 m 2,0,1
 467 360 467 360 477 350.5 c 128,-1,2
 487 341 487 341 487 329.5 c 128,-1,3
 487 318 487 318 487 314 c 1,4,-1
 71 314 l 2,5,6
 54 314 54 314 45 324 c 128,-1,7
 36 334 36 334 35 344 c 2,8,-1
 34 355 l 1,9,-1
 440 360 l 2,0,1
440 196 m 2,10,11
 467 196 467 196 477 186.5 c 128,-1,12
 487 177 487 177 487 165.5 c 128,-1,13
 487 154 487 154 487 150 c 1,14,-1
 71 150 l 2,15,16
 54 150 54 150 45 160 c 128,-1,17
 36 170 36 170 35 180 c 2,18,-1
 34 191 l 1,19,-1
 440 196 l 2,10,11
EndSplineSet
EndChar

StartChar: greater
Encoding: 62 62 33
Width: 454
GlyphClass: 2
Flags: W
LayerCount: 2
Fore
SplineSet
415 235 m 128,-1,1
 415 223 415 223 351.5 176.5 c 128,-1,2
 288 130 288 130 207 87 c 128,-1,3
 126 44 126 44 87 44 c 0,4,5
 67 44 67 44 54 50.5 c 128,-1,6
 41 57 41 57 38 64 c 2,7,-1
 35 70 l 1,8,9
 119 104 119 104 192 145 c 0,10,11
 295 203 295 203 327 235 c 1,12,13
 313 247 313 247 288.5 265.5 c 128,-1,14
 264 284 264 284 191 325.5 c 128,-1,15
 118 367 118 367 35 400 c 1,16,17
 39 411 39 411 53 418.5 c 128,-1,18
 67 426 67 426 87 426 c 0,19,20
 126 426 126 426 207 383 c 128,-1,21
 288 340 288 340 351.5 293.5 c 128,-1,0
 415 247 415 247 415 235 c 128,-1,1
EndSplineSet
EndChar

StartChar: question
Encoding: 63 63 34
Width: 406
GlyphClass: 2
Flags: W
LayerCount: 2
Fore
SplineSet
115 196 m 1,0,-1
 108 354 l 2,1,2
 108 374 108 374 156 374 c 0,3,4
 239 374 239 374 257.5 383 c 128,-1,5
 276 392 276 392 289 402 c 0,6,7
 314 423 314 423 314 473 c 128,-1,8
 314 523 314 523 270.5 566 c 128,-1,9
 227 609 227 609 171 609 c 0,10,11
 134 609 134 609 86 571 c 1,12,13
 45 584 45 584 45 626 c 0,14,15
 45 651 45 651 63 670 c 128,-1,16
 81 689 81 689 111 689 c 0,17,18
 210 689 210 689 283 613 c 128,-1,19
 356 537 356 537 356 435 c 0,20,21
 356 364 356 364 308.5 323.5 c 128,-1,22
 261 283 261 283 189 283 c 0,23,24
 178 283 178 283 156 285 c 1,25,26
 154 255 154 255 154 223 c 128,-1,27
 154 191 154 191 156 178 c 1,28,29
 147 170 147 170 135 170 c 0,30,31
 115 170 115 170 115 196 c 1,0,-1
180.5 4.5 m 128,-1,33
 164 -13 164 -13 140.5 -13 c 128,-1,34
 117 -13 117 -13 100 3.5 c 128,-1,35
 83 20 83 20 83 43 c 128,-1,36
 83 66 83 66 98.5 83.5 c 128,-1,37
 114 101 114 101 137.5 101 c 128,-1,38
 161 101 161 101 179 85.5 c 128,-1,39
 197 70 197 70 197 46 c 128,-1,32
 197 22 197 22 180.5 4.5 c 128,-1,33
EndSplineSet
EndChar

StartChar: at
Encoding: 64 64 35
Width: 856
GlyphClass: 2
Flags: W
LayerCount: 2
Fore
SplineSet
177 330 m 128,-1,1
 283 430 283 430 427.5 430 c 128,-1,2
 572 430 572 430 572 321 c 0,3,4
 572 287 572 287 558.5 207.5 c 128,-1,5
 545 128 545 128 545 107 c 0,6,7
 545 57 545 57 576 57 c 0,8,9
 587 57 587 57 598 67.5 c 128,-1,10
 609 78 609 78 613 78 c 0,11,12
 622 78 622 78 622 68 c 0,13,14
 620 42 620 42 593 18 c 128,-1,15
 566 -6 566 -6 536 -6 c 0,16,17
 473 -6 473 -6 473 76 c 0,18,19
 473 84 473 84 475 100 c 1,20,-1
 472 100 l 1,21,22
 451 51 451 51 404.5 19 c 128,-1,23
 358 -13 358 -13 312 -13 c 0,24,25
 221 -13 221 -13 221 54 c 0,26,27
 221 114 221 114 292 166 c 128,-1,28
 363 218 363 218 484 253 c 1,29,30
 487 272 487 272 487 297 c 0,31,32
 487 384 487 384 414 384 c 0,33,34
 344 384 344 384 278.5 349.5 c 128,-1,35
 213 315 213 315 169 247.5 c 128,-1,36
 125 180 125 180 125 96 c 0,37,38
 125 -8 125 -8 201.5 -67 c 128,-1,39
 278 -126 278 -126 383 -126 c 0,40,41
 553 -126 553 -126 652 -22.5 c 128,-1,42
 751 81 751 81 751 219 c 0,43,44
 751 349 751 349 660 446 c 0,45,46
 615 493 615 493 542 521 c 128,-1,47
 469 549 469 549 378 549 c 256,48,49
 287 549 287 549 221 524 c 0,50,51
 200 516 200 516 197 516 c 0,52,53
 185 516 185 516 185 530 c 128,-1,54
 185 544 185 544 205 551 c 0,55,56
 302 588 302 588 404.5 588 c 128,-1,57
 507 588 507 588 585.5 559 c 128,-1,58
 664 530 664 530 712 481 c 0,59,60
 808 381 808 381 808 241 c 0,61,62
 808 165 808 165 778 92.5 c 128,-1,63
 748 20 748 20 693.5 -38.5 c 128,-1,64
 639 -97 639 -97 552.5 -133 c 128,-1,65
 466 -169 466 -169 362 -169 c 0,66,67
 234 -169 234 -169 152.5 -102.5 c 128,-1,68
 71 -36 71 -36 71 87 c 0,69,0
 71 230 71 230 177 330 c 128,-1,1
354 157.5 m 128,-1,71
 316 123 316 123 316 82.5 c 128,-1,72
 316 42 316 42 356.5 42 c 128,-1,73
 397 42 397 42 433.5 91 c 128,-1,74
 470 140 470 140 481 224 c 1,75,70
 392 192 392 192 354 157.5 c 128,-1,71
EndSplineSet
EndChar

StartChar: A
Encoding: 65 65 36
Width: 655
GlyphClass: 2
Flags: W
LayerCount: 2
Fore
SplineSet
533 1 m 1,0,-1
 406 -2 l 2,1,2
 397 -2 397 -2 397 15 c 128,-1,3
 397 32 397 32 406 32 c 2,4,-1
 463 32 l 2,5,6
 484 32 484 32 484 49 c 0,7,8
 484 56 484 56 446 168.5 c 128,-1,9
 408 281 408 281 399 309 c 1,10,-1
 218 309 l 1,11,12
 147 83 147 83 147 48 c 0,13,14
 147 33 147 33 153 33 c 2,15,-1
 225 33 l 2,16,17
 236 33 236 33 236 16.5 c 128,-1,18
 236 0 236 0 223 0 c 2,19,-1
 94 1 l 1,20,-1
 -17 -2 l 2,21,22
 -26 -2 -26 -2 -26 15 c 128,-1,23
 -26 32 -26 32 -17 32 c 2,24,-1
 33 32 l 2,25,26
 55 32 55 32 66 54 c 0,27,28
 108 145 108 145 172.5 325 c 128,-1,29
 237 505 237 505 260.5 563.5 c 128,-1,30
 284 622 284 622 284 628.5 c 128,-1,31
 284 635 284 635 280 643 c 128,-1,32
 276 651 276 651 276 653 c 0,33,34
 276 661 276 661 290.5 661 c 128,-1,35
 305 661 305 661 317.5 668 c 128,-1,36
 330 675 330 675 334 684 c 0,37,38
 345 706 345 706 354 706 c 0,39,40
 358 706 358 706 368 676 c 1,41,-1
 569 133 l 2,42,43
 607 33 607 33 622 33 c 2,44,-1
 658 33 l 2,45,46
 668 33 668 33 668 16.5 c 128,-1,47
 668 0 668 0 660 0 c 2,48,-1
 533 1 l 1,0,-1
309 569 m 1,49,50
 278 489 278 489 231 349 c 1,51,-1
 385 349 l 1,52,53
 318 552 318 552 313 569 c 1,54,-1
 309 569 l 1,49,50
EndSplineSet
EndChar

StartChar: B
Encoding: 66 66 37
Width: 664
GlyphClass: 2
Flags: W
LayerCount: 2
Fore
SplineSet
59 673 m 2,0,-1
 190 671 l 1,1,-1
 305 671 l 2,2,3
 433 671 433 671 497 621.5 c 128,-1,4
 561 572 561 572 561 500 c 0,5,6
 561 447 561 447 520 405.5 c 128,-1,7
 479 364 479 364 417 352 c 1,8,-1
 417 348 l 1,9,10
 507 332 507 332 559 284 c 128,-1,11
 611 236 611 236 611 175 c 0,12,13
 611 102 611 102 534 51 c 128,-1,14
 457 0 457 0 326 0 c 2,15,-1
 229 0 l 1,16,-1
 59 -2 l 2,17,18
 51 -2 51 -2 51 15 c 128,-1,19
 51 32 51 32 59 32 c 2,20,-1
 102 32 l 2,21,22
 127 32 127 32 135 41.5 c 128,-1,23
 143 51 143 51 143 78 c 2,24,-1
 143 551 l 2,25,26
 143 639 143 639 122 639 c 2,27,-1
 59 639 l 2,28,29
 51 639 51 639 51 656 c 128,-1,30
 51 673 51 673 59 673 c 2,0,-1
246 128 m 2,31,32
 246 40 246 40 268 40 c 2,33,-1
 319 40 l 2,34,35
 402 40 402 40 446 77 c 128,-1,36
 490 114 490 114 490 175 c 0,37,38
 490 241 490 241 444 280 c 0,39,40
 392 325 392 325 246 331 c 1,41,-1
 246 128 l 2,31,32
246 585 m 2,42,-1
 246 371 l 1,43,44
 270 367 270 367 299 367 c 0,45,46
 372 367 372 367 412.5 403.5 c 128,-1,47
 453 440 453 440 453 495 c 128,-1,48
 453 550 453 550 409 590.5 c 128,-1,49
 365 631 365 631 275 631 c 0,50,51
 246 631 246 631 246 585 c 2,42,-1
EndSplineSet
EndChar

StartChar: C
Encoding: 67 67 38
Width: 727
GlyphClass: 2
Flags: W
LayerCount: 2
Fore
SplineSet
644 139 m 2,0,1
 646 150 646 150 661.5 150 c 128,-1,2
 677 150 677 150 677 141 c 2,3,-1
 669 2 l 2,4,5
 669 -6 669 -6 653.5 -6 c 128,-1,6
 638 -6 638 -6 638 2 c 2,7,-1
 638 26 l 1,8,9
 540 -13 540 -13 446 -13 c 0,10,11
 274 -13 274 -13 160 73.5 c 128,-1,12
 46 160 46 160 46 313 c 0,13,14
 46 428 46 428 106 514.5 c 128,-1,15
 166 601 166 601 258 642.5 c 128,-1,16
 350 684 350 684 446.5 684 c 128,-1,17
 543 684 543 684 619 645 c 1,18,-1
 619 668 l 2,19,20
 619 677 619 677 633.5 677 c 128,-1,21
 648 677 648 677 648 668 c 0,22,23
 648 587 648 587 658 520 c 0,24,25
 660 510 660 510 643 510 c 128,-1,26
 626 510 626 510 625 520 c 2,27,-1
 617 567 l 1,28,29
 539 639 539 639 430.5 639 c 128,-1,30
 322 639 322 639 246 559.5 c 128,-1,31
 170 480 170 480 170 334.5 c 128,-1,32
 170 189 170 189 250.5 110.5 c 128,-1,33
 331 32 331 32 452 32 c 0,34,35
 550 32 550 32 638 92 c 1,36,-1
 644 139 l 2,0,1
EndSplineSet
EndChar

StartChar: D
Encoding: 68 68 39
Width: 761
GlyphClass: 2
Flags: W
LayerCount: 2
Fore
SplineSet
60 673 m 2,0,-1
 192 671 l 1,1,-1
 328 671 l 2,2,3
 514 671 514 671 624.5 578.5 c 128,-1,4
 735 486 735 486 735 334 c 128,-1,5
 735 182 735 182 625 91 c 128,-1,6
 515 0 515 0 347 0 c 2,7,-1
 230 0 l 1,8,-1
 60 -2 l 2,9,10
 52 -2 52 -2 52 15 c 128,-1,11
 52 32 52 32 60 32 c 2,12,-1
 103 32 l 2,13,14
 128 32 128 32 136 41.5 c 128,-1,15
 144 51 144 51 144 78 c 2,16,-1
 144 554 l 2,17,18
 144 639 144 639 123 639 c 2,19,-1
 60 639 l 2,20,21
 51 639 51 639 51 656 c 128,-1,22
 51 673 51 673 60 673 c 2,0,-1
282 631 m 0,23,24
 247 631 247 631 247 590 c 2,25,-1
 247 128 l 2,26,27
 247 40 247 40 268 40 c 2,28,-1
 350 41 l 2,29,30
 474 43 474 43 547.5 115.5 c 128,-1,31
 621 188 621 188 621 319.5 c 128,-1,32
 621 451 621 451 540 535.5 c 128,-1,33
 459 620 459 620 285 631 c 0,34,35
 283 631 283 631 282 631 c 0,23,24
EndSplineSet
EndChar

StartChar: E
Encoding: 69 69 40
Width: 614
GlyphClass: 2
Flags: W
LayerCount: 2
Fore
SplineSet
64 673 m 2,0,-1
 190 671 l 1,1,-1
 480 671 l 1,2,-1
 480 692 l 2,3,4
 480 701 480 701 494.5 701 c 128,-1,5
 509 701 509 701 509 692 c 0,6,7
 509 592 509 592 519 540 c 0,8,9
 521 532 521 532 505 532 c 128,-1,10
 489 532 489 532 487 540 c 0,11,12
 471 603 471 603 449 613 c 1,13,14
 396 633 396 633 279 634 c 1,15,16
 259 633 259 633 252.5 623 c 128,-1,17
 246 613 246 613 246 588 c 2,18,-1
 246 352 l 1,19,20
 308 353 308 353 367 358 c 128,-1,21
 426 363 426 363 431 366 c 1,22,-1
 441 425 l 2,23,24
 442 432 442 432 453 432 c 0,25,26
 474 432 474 432 472 423 c 0,27,28
 467 384 467 384 467 335 c 128,-1,29
 467 286 467 286 472 247 c 0,30,31
 474 239 474 239 457.5 239 c 128,-1,32
 441 239 441 239 441 245 c 1,33,-1
 430 305 l 1,34,35
 424 308 424 308 366.5 313.5 c 128,-1,36
 309 319 309 319 246 320 c 1,37,-1
 246 128 l 2,38,39
 246 40 246 40 267 40 c 2,40,-1
 318 40 l 1,41,42
 473 42 473 42 530 82 c 1,43,-1
 537 137 l 2,44,45
 539 145 539 145 554.5 145 c 128,-1,46
 570 145 570 145 570 139 c 2,47,-1
 561 -22 l 2,48,49
 561 -29 561 -29 545.5 -29 c 128,-1,50
 530 -29 530 -29 530 -22 c 2,51,-1
 530 0 l 1,52,-1
 283 0 l 1,53,-1
 59 -2 l 2,54,55
 51 -2 51 -2 51 15 c 128,-1,56
 51 32 51 32 59 32 c 2,57,-1
 102 32 l 2,58,59
 127 32 127 32 135 41.5 c 128,-1,60
 143 51 143 51 143 78 c 2,61,-1
 143 552 l 2,62,63
 143 640 143 640 122 640 c 2,64,-1
 64 640 l 2,65,66
 56 640 56 640 56 656.5 c 128,-1,67
 56 673 56 673 64 673 c 2,0,-1
EndSplineSet
EndChar

StartChar: F
Encoding: 70 70 41
Width: 551
GlyphClass: 2
Flags: W
LayerCount: 2
Fore
SplineSet
525 538 m 2,0,1
 525 532 525 532 510 532 c 128,-1,2
 495 532 495 532 493 540 c 0,3,4
 477 603 477 603 455 613 c 1,5,6
 402 633 402 633 279 634 c 1,7,8
 260 632 260 632 253 623 c 128,-1,9
 246 614 246 614 246 588 c 2,10,-1
 246 348 l 1,11,12
 309 349 309 349 370.5 354 c 128,-1,13
 432 359 432 359 437 362 c 1,14,-1
 447 421 l 2,15,16
 448 428 448 428 459 428 c 0,17,18
 480 428 480 428 478 419 c 0,19,20
 473 380 473 380 473 331 c 128,-1,21
 473 282 473 282 478 243 c 0,22,23
 480 235 480 235 463.5 235 c 128,-1,24
 447 235 447 235 447 241 c 1,25,-1
 436 301 l 1,26,27
 430 304 430 304 369.5 309.5 c 128,-1,28
 309 315 309 315 246 316 c 1,29,-1
 246 128 l 2,30,31
 246 40 246 40 267 40 c 2,32,-1
 325 40 l 2,33,34
 333 40 333 40 333 20 c 128,-1,35
 333 0 333 0 325 0 c 2,36,-1
 199 1 l 1,37,-1
 59 -2 l 2,38,39
 51 -2 51 -2 51 15 c 128,-1,40
 51 32 51 32 59 32 c 2,41,-1
 102 32 l 2,42,43
 127 32 127 32 135 41.5 c 128,-1,44
 143 51 143 51 143 78 c 2,45,-1
 143 552 l 2,46,47
 143 640 143 640 122 640 c 2,48,-1
 64 640 l 2,49,50
 56 640 56 640 56 656.5 c 128,-1,51
 56 673 56 673 64 673 c 2,52,-1
 190 671 l 1,53,-1
 486 671 l 1,54,-1
 486 692 l 2,55,56
 486 701 486 701 500.5 701 c 128,-1,57
 515 701 515 701 515 692 c 2,58,-1
 525 538 l 2,0,1
EndSplineSet
EndChar

StartChar: G
Encoding: 71 71 42
Width: 767
GlyphClass: 2
Flags: W
LayerCount: 2
Fore
SplineSet
618 286 m 1,0,-1
 758 289 l 2,1,2
 766 289 766 289 766 272 c 128,-1,3
 766 255 766 255 758 255 c 2,4,-1
 727 255 l 2,5,6
 702 255 702 255 694 245.5 c 128,-1,7
 686 236 686 236 686 187.5 c 128,-1,8
 686 139 686 139 688.5 88.5 c 128,-1,9
 691 38 691 38 693.5 18.5 c 128,-1,10
 696 -1 696 -1 698.5 -15 c 128,-1,11
 701 -29 701 -29 701 -35 c 0,12,13
 701 -47 701 -47 685 -47 c 0,14,15
 679 -47 679 -47 665.5 -10 c 128,-1,16
 652 27 652 27 638 27 c 1,17,18
 546 -13 546 -13 445 -13 c 0,19,20
 272 -13 272 -13 159 73 c 128,-1,21
 46 159 46 159 46 312 c 0,22,23
 46 428 46 428 105.5 514 c 128,-1,24
 165 600 165 600 257 641.5 c 128,-1,25
 349 683 349 683 457 683 c 0,26,27
 504 683 504 683 537 674.5 c 128,-1,28
 570 666 570 666 619 647 c 1,29,-1
 619 668 l 2,30,31
 619 677 619 677 633.5 677 c 128,-1,32
 648 677 648 677 648 668 c 0,33,34
 648 577 648 577 657 517 c 0,35,36
 658 513 658 513 652.5 510 c 128,-1,37
 647 507 647 507 636.5 507 c 128,-1,38
 626 507 626 507 625 516 c 2,39,-1
 618 560 l 1,40,41
 531 639 531 639 435 639 c 0,42,43
 322 639 322 639 246 558.5 c 128,-1,44
 170 478 170 478 170 334.5 c 128,-1,45
 170 191 170 191 250 111.5 c 128,-1,46
 330 32 330 32 451 32 c 0,47,48
 530 32 530 32 571 74 c 1,49,-1
 571 166 l 2,50,51
 571 254 571 254 550 254 c 2,52,-1
 444 254 l 2,53,54
 436 254 436 254 436 270.5 c 128,-1,55
 436 287 436 287 444 287 c 2,56,-1
 618 286 l 1,0,-1
EndSplineSet
EndChar

StartChar: H
Encoding: 72 72 43
Width: 845
GlyphClass: 2
Flags: W
LayerCount: 2
Fore
SplineSet
650 672 m 1,0,-1
 790 675 l 2,1,2
 798 675 798 675 798 658 c 128,-1,3
 798 641 798 641 790 641 c 2,4,-1
 747 641 l 2,5,6
 722 641 722 641 714 631.5 c 128,-1,7
 706 622 706 622 706 595 c 2,8,-1
 706 121 l 2,9,10
 706 33 706 33 727 33 c 2,11,-1
 785 33 l 2,12,13
 793 33 793 33 793 16.5 c 128,-1,14
 793 0 793 0 785 0 c 2,15,-1
 659 1 l 1,16,-1
 519 -2 l 2,17,18
 511 -2 511 -2 511 15 c 128,-1,19
 511 32 511 32 519 32 c 2,20,-1
 562 32 l 2,21,22
 587 32 587 32 595 41.5 c 128,-1,23
 603 51 603 51 603 78 c 2,24,-1
 603 314 l 1,25,-1
 246 314 l 1,26,-1
 246 121 l 2,27,28
 246 33 246 33 267 33 c 2,29,-1
 325 33 l 2,30,31
 333 33 333 33 333 16.5 c 128,-1,32
 333 0 333 0 325 0 c 2,33,-1
 199 1 l 1,34,-1
 59 -2 l 2,35,36
 51 -2 51 -2 51 15 c 128,-1,37
 51 32 51 32 59 32 c 2,38,-1
 102 32 l 2,39,40
 127 32 127 32 135 41.5 c 128,-1,41
 143 51 143 51 143 78 c 2,42,-1
 143 552 l 2,43,44
 143 640 143 640 122 640 c 2,45,-1
 64 640 l 2,46,47
 56 640 56 640 56 656.5 c 128,-1,48
 56 673 56 673 64 673 c 2,49,-1
 190 672 l 1,50,-1
 330 675 l 2,51,52
 338 675 338 675 338 658 c 128,-1,53
 338 641 338 641 330 641 c 2,54,-1
 287 641 l 2,55,56
 262 641 262 641 254 631.5 c 128,-1,57
 246 622 246 622 246 595 c 2,58,-1
 246 355 l 1,59,-1
 603 355 l 1,60,-1
 603 552 l 2,61,62
 603 640 603 640 582 640 c 2,63,-1
 524 640 l 2,64,65
 516 640 516 640 516 656.5 c 128,-1,66
 516 673 516 673 524 673 c 2,67,-1
 650 672 l 1,0,-1
EndSplineSet
EndChar

StartChar: I
Encoding: 73 73 44
Width: 384
GlyphClass: 2
Flags: W
LayerCount: 2
Fore
SplineSet
190 672 m 1,0,-1
 330 675 l 2,1,2
 338 675 338 675 338 658 c 128,-1,3
 338 641 338 641 330 641 c 2,4,-1
 287 641 l 2,5,6
 262 641 262 641 254 631.5 c 128,-1,7
 246 622 246 622 246 595 c 2,8,-1
 246 121 l 2,9,10
 246 33 246 33 267 33 c 2,11,-1
 325 33 l 2,12,13
 333 33 333 33 333 16.5 c 128,-1,14
 333 0 333 0 325 0 c 2,15,-1
 199 1 l 1,16,-1
 59 -2 l 2,17,18
 51 -2 51 -2 51 15 c 128,-1,19
 51 32 51 32 59 32 c 2,20,-1
 102 32 l 2,21,22
 127 32 127 32 135 41.5 c 128,-1,23
 143 51 143 51 143 78 c 2,24,-1
 143 552 l 2,25,26
 143 640 143 640 122 640 c 2,27,-1
 64 640 l 2,28,29
 56 640 56 640 56 656.5 c 128,-1,30
 56 673 56 673 64 673 c 2,31,-1
 190 672 l 1,0,-1
EndSplineSet
EndChar

StartChar: J
Encoding: 74 74 45
Width: 366
GlyphClass: 2
Flags: W
LayerCount: 2
Fore
SplineSet
199 672 m 1,0,-1
 339 675 l 2,1,2
 347 675 347 675 347 658 c 128,-1,3
 347 641 347 641 339 641 c 2,4,-1
 296 641 l 2,5,6
 271 641 271 641 263 631.5 c 128,-1,7
 255 622 255 622 255 595 c 2,8,-1
 255 132 l 2,9,10
 255 -32 255 -32 228 -101 c 1,11,12
 196 -177 196 -177 132 -225 c 128,-1,13
 68 -273 68 -273 -13 -273 c 0,14,15
 -39 -273 -39 -273 -52.5 -262 c 128,-1,16
 -66 -251 -66 -251 -66 -237 c 0,17,18
 -66 -199 -66 -199 -22 -182 c 1,19,20
 20 -208 20 -208 74 -208 c 0,21,22
 106 -208 106 -208 122 -177 c 0,23,24
 152 -115 152 -115 152 123 c 2,25,-1
 152 552 l 2,26,27
 152 640 152 640 131 640 c 2,28,-1
 73 640 l 2,29,30
 65 640 65 640 65 656.5 c 128,-1,31
 65 673 65 673 73 673 c 2,32,-1
 199 672 l 1,0,-1
EndSplineSet
EndChar

StartChar: K
Encoding: 75 75 46
Width: 712
GlyphClass: 2
Flags: W
LayerCount: 2
Fore
SplineSet
190 672 m 1,0,-1
 330 675 l 2,1,2
 338 675 338 675 338 658 c 128,-1,3
 338 641 338 641 330 641 c 2,4,-1
 287 641 l 2,5,6
 262 641 262 641 254 631.5 c 128,-1,7
 246 622 246 622 246 595 c 2,8,-1
 246 364 l 1,9,-1
 279 364 l 1,10,11
 514 590 514 590 514 624 c 0,12,13
 514 641 514 641 498 641 c 2,14,-1
 470 641 l 2,15,16
 463 641 463 641 463 657 c 128,-1,17
 463 673 463 673 470 673 c 2,18,-1
 578 671 l 1,19,-1
 687 673 l 2,20,21
 695 673 695 673 695 656.5 c 128,-1,22
 695 640 695 640 686 640 c 2,23,-1
 650 640 l 2,24,25
 638 640 638 640 547 552 c 128,-1,26
 456 464 456 464 357 383 c 1,27,-1
 357 379 l 1,28,-1
 580 153 l 2,29,30
 692 40 692 40 712 40 c 2,31,-1
 750 40 l 1,32,33
 763 34 763 34 763 17 c 128,-1,34
 763 0 763 0 752 0 c 2,35,36
 752 0 752 0 656 1 c 1,37,-1
 498 -2 l 2,38,39
 489 -2 489 -2 489 15 c 128,-1,40
 489 32 489 32 498 32 c 2,41,-1
 514 32 l 2,42,43
 539 32 539 32 539 47 c 0,44,45
 539 57 539 57 528 68 c 0,46,47
 337 272 337 272 284 327 c 1,48,-1
 246 327 l 1,49,-1
 246 121 l 2,50,51
 246 33 246 33 267 33 c 2,52,-1
 325 33 l 2,53,54
 333 33 333 33 333 16.5 c 128,-1,55
 333 0 333 0 325 0 c 2,56,-1
 199 1 l 1,57,-1
 59 -2 l 2,58,59
 51 -2 51 -2 51 15 c 128,-1,60
 51 32 51 32 59 32 c 2,61,-1
 102 32 l 2,62,63
 127 32 127 32 135 41.5 c 128,-1,64
 143 51 143 51 143 78 c 2,65,-1
 143 552 l 2,66,67
 143 640 143 640 122 640 c 2,68,-1
 64 640 l 2,69,70
 56 640 56 640 56 656.5 c 128,-1,71
 56 673 56 673 64 673 c 2,72,-1
 190 672 l 1,0,-1
EndSplineSet
EndChar

StartChar: L
Encoding: 76 76 47
Width: 577
GlyphClass: 2
Flags: W
LayerCount: 2
Fore
SplineSet
190 672 m 1,0,-1
 330 675 l 2,1,2
 338 675 338 675 338 658 c 128,-1,3
 338 641 338 641 330 641 c 2,4,-1
 287 641 l 2,5,6
 262 641 262 641 254 631.5 c 128,-1,7
 246 622 246 622 246 595 c 2,8,-1
 246 40 l 1,9,-1
 304 40 l 2,10,11
 463 40 463 40 524 82 c 1,12,-1
 531 137 l 2,13,14
 533 145 533 145 548.5 145 c 128,-1,15
 564 145 564 145 564 139 c 2,16,-1
 555 -22 l 2,17,18
 555 -29 555 -29 539.5 -29 c 128,-1,19
 524 -29 524 -29 524 -22 c 2,20,-1
 524 0 l 1,21,-1
 199 0 l 1,22,-1
 59 -2 l 2,23,24
 51 -2 51 -2 51 15 c 128,-1,25
 51 32 51 32 59 32 c 2,26,-1
 102 32 l 2,27,28
 127 32 127 32 135 41.5 c 128,-1,29
 143 51 143 51 143 78 c 2,30,-1
 143 552 l 2,31,32
 143 640 143 640 122 640 c 2,33,-1
 64 640 l 2,34,35
 56 640 56 640 56 656.5 c 128,-1,36
 56 673 56 673 64 673 c 2,37,38
 64 673 64 673 190 672 c 1,0,-1
EndSplineSet
EndChar

StartChar: M
Encoding: 77 77 48
Width: 963
GlyphClass: 2
Flags: W
LayerCount: 2
Fore
SplineSet
798 1 m 1,0,-1
 667 -2 l 2,1,2
 659 -2 659 -2 659 15 c 128,-1,3
 659 32 659 32 667 32 c 2,4,-1
 705 32 l 2,5,6
 724 32 724 32 732 40 c 128,-1,7
 740 48 740 48 739 65.5 c 128,-1,8
 738 83 738 83 730 190 c 0,9,10
 706 488 706 488 706 531 c 1,11,-1
 702 531 l 1,12,13
 685 493 685 493 591 277.5 c 128,-1,14
 497 62 497 62 474 14 c 1,15,16
 469 6 469 6 456 6 c 128,-1,17
 443 6 443 6 439 14 c 0,18,19
 414 53 414 53 338 241.5 c 128,-1,20
 262 430 262 430 223 540 c 1,21,-1
 219 540 l 1,22,23
 194 188 194 188 194 110.5 c 128,-1,24
 194 33 194 33 219 33 c 2,25,-1
 263 33 l 2,26,27
 276 33 276 33 276 16.5 c 128,-1,28
 276 0 276 0 263 0 c 2,29,-1
 158 1 l 1,30,-1
 32 -2 l 2,31,32
 23 -2 23 -2 23 15 c 128,-1,33
 23 32 23 32 32 32 c 2,34,-1
 65 32 l 2,35,36
 92 32 92 32 102.5 36.5 c 128,-1,37
 113 41 113 41 116 59 c 0,38,39
 126 117 126 117 147 314 c 0,40,41
 169 523 169 523 169 563.5 c 128,-1,42
 169 604 169 604 163.5 622.5 c 128,-1,43
 158 641 158 641 143 641 c 2,44,-1
 93 641 l 2,45,46
 85 641 85 641 85 657 c 128,-1,47
 85 673 85 673 93 673 c 2,48,-1
 282 671 l 1,49,50
 295 627 295 627 373.5 412.5 c 128,-1,51
 452 198 452 198 477 126 c 1,52,-1
 481 126 l 1,53,54
 509 196 509 196 561 323 c 0,55,56
 662 571 662 571 694 671 c 1,57,-1
 862 674 l 2,58,59
 871 674 871 674 871 657.5 c 128,-1,60
 871 641 871 641 862 641 c 2,61,-1
 824 641 l 2,62,63
 805 641 805 641 799 630.5 c 128,-1,64
 793 620 793 620 793 607.5 c 128,-1,65
 793 595 793 595 793.5 582 c 128,-1,66
 794 569 794 569 812.5 379.5 c 128,-1,67
 831 190 831 190 843 91 c 1,68,69
 849 33 849 33 866 33 c 2,70,-1
 929 33 l 2,71,72
 940 33 940 33 940 16.5 c 128,-1,73
 940 0 940 0 929 0 c 2,74,-1
 798 1 l 1,0,-1
EndSplineSet
EndChar

StartChar: N
Encoding: 78 78 49
Width: 820
GlyphClass: 2
Flags: W
LayerCount: 2
Fore
SplineSet
664 671 m 1,0,-1
 782 674 l 2,1,2
 791 674 791 674 791 657.5 c 128,-1,3
 791 641 791 641 782 641 c 2,4,-1
 735 641 l 2,5,6
 715 641 715 641 709 632 c 0,7,8
 686 598 686 598 684 -12 c 1,9,10
 682 -19 682 -19 668 -19 c 128,-1,11
 654 -19 654 -19 647 -12 c 0,12,13
 355 335 355 335 187 539 c 1,14,-1
 183 539 l 1,15,16
 187 175 187 175 189 104 c 128,-1,17
 191 33 191 33 210 33 c 2,18,-1
 265 33 l 2,19,20
 274 33 274 33 274 16.5 c 128,-1,21
 274 0 274 0 265 0 c 2,22,-1
 159 1 l 1,23,-1
 40 -2 l 2,24,25
 33 -2 33 -2 33 15 c 128,-1,26
 33 32 33 32 40 32 c 2,27,-1
 73 32 l 2,28,29
 96 32 96 32 106 37.5 c 128,-1,30
 116 43 116 43 117 59 c 0,31,32
 137 284 137 284 137 597 c 1,33,-1
 130 605 l 2,34,35
 110 628 110 628 94.5 634.5 c 128,-1,36
 79 641 79 641 37 641 c 0,37,38
 31 641 31 641 31 657 c 128,-1,39
 31 673 31 673 37 673 c 2,40,-1
 218 671 l 1,41,42
 574 225 574 225 632 147 c 1,43,-1
 636 147 l 1,44,45
 630 544 630 544 626 592 c 128,-1,46
 622 640 622 640 603 640 c 2,47,-1
 555 640 l 2,48,49
 546 640 546 640 546 656.5 c 128,-1,50
 546 673 546 673 555 673 c 2,51,-1
 664 671 l 1,0,-1
EndSplineSet
EndChar

StartChar: O
Encoding: 79 79 50
Width: 824
GlyphClass: 2
Flags: W
LayerCount: 2
Fore
SplineSet
412 684 m 128,-1,1
 562 684 562 684 669 582 c 128,-1,2
 776 480 776 480 776 335.5 c 128,-1,3
 776 191 776 191 669 89 c 128,-1,4
 562 -13 562 -13 412 -13 c 128,-1,5
 262 -13 262 -13 155 89 c 128,-1,6
 48 191 48 191 48 335.5 c 128,-1,7
 48 480 48 480 155 582 c 128,-1,0
 262 684 262 684 412 684 c 128,-1,1
412 638 m 128,-1,9
 307 638 307 638 240.5 551 c 128,-1,10
 174 464 174 464 174 335.5 c 128,-1,11
 174 207 174 207 240.5 120 c 128,-1,12
 307 33 307 33 412 33 c 128,-1,13
 517 33 517 33 583.5 120 c 128,-1,14
 650 207 650 207 650 335.5 c 128,-1,15
 650 464 650 464 583.5 551 c 128,-1,8
 517 638 517 638 412 638 c 128,-1,9
EndSplineSet
EndChar

StartChar: P
Encoding: 80 80 51
Width: 597
GlyphClass: 2
Flags: W
LayerCount: 2
Fore
SplineSet
64 673 m 2,0,-1
 190 671 l 1,1,-1
 305 671 l 2,2,3
 437 671 437 671 503.5 620 c 128,-1,4
 570 569 570 569 570 495.5 c 128,-1,5
 570 422 570 422 509 364.5 c 128,-1,6
 448 307 448 307 353 307 c 0,7,8
 301 307 301 307 246 331 c 1,9,-1
 246 121 l 2,10,11
 246 33 246 33 267 33 c 2,12,-1
 325 33 l 2,13,14
 335 33 335 33 335 16.5 c 128,-1,15
 335 0 335 0 325 0 c 2,16,-1
 282 0 l 1,17,-1
 239 1 l 1,18,-1
 199 1 l 1,19,-1
 59 -2 l 2,20,21
 51 -2 51 -2 51 15 c 128,-1,22
 51 32 51 32 59 32 c 2,23,-1
 102 32 l 2,24,25
 127 32 127 32 135 41.5 c 128,-1,26
 143 51 143 51 143 78 c 2,27,-1
 143 552 l 2,28,29
 143 640 143 640 122 640 c 2,30,-1
 64 640 l 2,31,32
 56 640 56 640 56 656.5 c 128,-1,33
 56 673 56 673 64 673 c 2,0,-1
419 395 m 128,-1,35
 462 433 462 433 462 489.5 c 128,-1,36
 462 546 462 546 415.5 588.5 c 128,-1,37
 369 631 369 631 282 631 c 0,38,39
 263 631 263 631 254.5 621 c 128,-1,40
 246 611 246 611 246 585 c 2,41,-1
 246 363 l 1,42,43
 273 357 273 357 299 357 c 0,44,34
 376 357 376 357 419 395 c 128,-1,35
EndSplineSet
EndChar

StartChar: Q
Encoding: 81 81 52
Width: 824
GlyphClass: 2
Flags: W
LayerCount: 2
Fore
SplineSet
1063 -89 m 0,0,1
 1070 -82 1070 -82 1078.5 -88 c 128,-1,2
 1087 -94 1087 -94 1087 -98 c 128,-1,3
 1087 -102 1087 -102 1075 -120 c 128,-1,4
 1063 -138 1063 -138 1053 -152 c 128,-1,5
 1043 -166 1043 -166 1017 -195 c 0,6,7
 967 -251 967 -251 908 -251 c 128,-1,8
 849 -251 849 -251 797.5 -228 c 128,-1,9
 746 -205 746 -205 701.5 -171.5 c 128,-1,10
 657 -138 657 -138 612 -104 c 0,11,12
 503 -20 503 -20 412 -13 c 1,13,14
 262 -13 262 -13 155 89 c 128,-1,15
 48 191 48 191 48 335.5 c 128,-1,16
 48 480 48 480 155 582 c 128,-1,17
 262 684 262 684 412 684 c 128,-1,18
 562 684 562 684 669 582 c 128,-1,19
 776 480 776 480 776 336 c 0,20,21
 776 218 776 218 703.5 126.5 c 128,-1,22
 631 35 631 35 518 2 c 1,23,24
 597 2 597 2 688 -52 c 0,25,26
 726 -75 726 -75 764 -98 c 1,27,28
 858 -152 858 -152 939 -152 c 0,29,30
 976 -152 976 -152 1003.5 -137.5 c 128,-1,31
 1031 -123 1031 -123 1063 -89 c 0,0,1
412 638 m 128,-1,33
 307 638 307 638 240.5 551 c 128,-1,34
 174 464 174 464 174 335.5 c 128,-1,35
 174 207 174 207 240.5 120 c 128,-1,36
 307 33 307 33 412 33 c 128,-1,37
 517 33 517 33 583.5 120 c 128,-1,38
 650 207 650 207 650 335.5 c 128,-1,39
 650 464 650 464 583.5 551 c 128,-1,32
 517 638 517 638 412 638 c 128,-1,33
EndSplineSet
EndChar

StartChar: R
Encoding: 82 82 53
Width: 638
GlyphClass: 2
Flags: W
LayerCount: 2
Fore
SplineSet
64 673 m 2,0,-1
 190 671 l 1,1,-1
 305 671 l 2,2,3
 437 671 437 671 503.5 621 c 128,-1,4
 570 571 570 571 570 502 c 128,-1,5
 570 433 570 433 521 389.5 c 128,-1,6
 472 346 472 346 396 329 c 1,7,8
 314 320 314 320 295.5 320 c 128,-1,9
 277 320 277 320 246 326 c 1,10,-1
 246 121 l 2,11,12
 246 33 246 33 267 33 c 2,13,-1
 325 33 l 2,14,15
 333 33 333 33 333 16.5 c 128,-1,16
 333 0 333 0 325 0 c 2,17,-1
 199 1 l 1,18,-1
 59 -2 l 2,19,20
 51 -2 51 -2 51 15 c 128,-1,21
 51 32 51 32 59 32 c 2,22,-1
 102 32 l 2,23,24
 127 32 127 32 135 41.5 c 128,-1,25
 143 51 143 51 143 78 c 2,26,-1
 143 552 l 2,27,28
 143 640 143 640 122 640 c 2,29,-1
 64 640 l 2,30,31
 56 640 56 640 56 656.5 c 128,-1,32
 56 673 56 673 64 673 c 2,0,-1
419 395 m 128,-1,34
 462 433 462 433 462 489 c 128,-1,35
 462 545 462 545 416 588 c 128,-1,36
 370 631 370 631 285 631 c 0,37,38
 246 631 246 631 246 590 c 2,39,-1
 246 363 l 1,40,41
 273 357 273 357 299 357 c 0,42,33
 376 357 376 357 419 395 c 128,-1,34
666 70 m 0,43,44
 672 75 672 75 678 69.5 c 128,-1,45
 684 64 684 64 684 61.5 c 128,-1,46
 684 59 684 59 683 57 c 0,47,48
 634 -13 634 -13 574 -13 c 0,49,50
 532 -13 532 -13 497 16 c 128,-1,51
 462 45 462 45 437.5 89 c 128,-1,52
 413 133 413 133 390 179 c 0,53,54
 333 296 333 296 281 321 c 1,55,-1
 345 333 l 1,56,57
 391 325 391 325 425.5 292 c 128,-1,58
 460 259 460 259 481 218.5 c 128,-1,59
 502 178 502 178 521 138 c 0,60,61
 566 44 566 44 619 44 c 0,62,63
 638 44 638 44 666 70 c 0,43,44
EndSplineSet
EndChar

StartChar: S
Encoding: 83 83 54
Width: 538
GlyphClass: 2
Flags: W
LayerCount: 2
Fore
SplineSet
419 38.5 m 128,-1,1
 348 -13 348 -13 262 -13 c 128,-1,2
 176 -13 176 -13 110 17 c 1,3,-1
 118 -3 l 2,4,5
 121 -9 121 -9 113.5 -14.5 c 128,-1,6
 106 -20 106 -20 97 -20 c 128,-1,7
 88 -20 88 -20 85 -15 c 0,8,9
 53 66 53 66 46 173 c 0,10,11
 46 183 46 183 62 183 c 128,-1,12
 78 183 78 183 79 176 c 0,13,14
 101 100 101 100 168 54 c 0,15,16
 209 25 209 25 263.5 25 c 128,-1,17
 318 25 318 25 351.5 56.5 c 128,-1,18
 385 88 385 88 385 132.5 c 128,-1,19
 385 177 385 177 362 212.5 c 128,-1,20
 339 248 339 248 305 270 c 128,-1,21
 271 292 271 292 231 316.5 c 128,-1,22
 191 341 191 341 157 363.5 c 128,-1,23
 123 386 123 386 100 424 c 128,-1,24
 77 462 77 462 77 510 c 0,25,26
 77 583 77 583 142.5 633.5 c 128,-1,27
 208 684 208 684 307 684 c 0,28,29
 352 684 352 684 391 672 c 1,30,-1
 403 669 l 1,31,32
 399 685 399 685 398.5 691 c 128,-1,33
 398 697 398 697 402.5 699.5 c 128,-1,34
 407 702 407 702 416.5 702 c 128,-1,35
 426 702 426 702 429 694 c 0,36,37
 452 613 452 613 456 535 c 1,38,39
 453 529 453 529 439.5 529 c 128,-1,40
 426 529 426 529 423 532 c 1,41,42
 412 573 412 573 392 599.5 c 128,-1,43
 372 626 372 626 348 636 c 128,-1,44
 324 646 324 646 292 646 c 0,45,46
 230 646 230 646 203.5 614.5 c 128,-1,47
 177 583 177 583 177 545.5 c 128,-1,48
 177 508 177 508 194.5 481.5 c 128,-1,49
 212 455 212 455 239.5 435.5 c 128,-1,50
 267 416 267 416 300 397.5 c 128,-1,51
 333 379 333 379 366.5 358 c 128,-1,52
 400 337 400 337 428 312 c 0,53,54
 490 257 490 257 490 173.5 c 128,-1,0
 490 90 490 90 419 38.5 c 128,-1,1
EndSplineSet
EndChar

StartChar: T
Encoding: 84 84 55
Width: 603
GlyphClass: 2
Flags: W
LayerCount: 2
Fore
SplineSet
628 539 m 2,0,1
 628 531 628 531 612 531 c 128,-1,2
 596 531 596 531 595 540 c 0,3,4
 583 605 583 605 554 614 c 1,5,6
 503 627 503 627 387 629 c 1,7,8
 367 628 367 628 360 618 c 128,-1,9
 353 608 353 608 353 583 c 2,10,-1
 353 121 l 2,11,12
 353 33 353 33 374 33 c 2,13,-1
 432 33 l 2,14,15
 440 33 440 33 440 16.5 c 128,-1,16
 440 0 440 0 432 0 c 2,17,-1
 306 1 l 1,18,-1
 166 -2 l 2,19,20
 158 -2 158 -2 158 15 c 128,-1,21
 158 32 158 32 166 32 c 2,22,-1
 209 32 l 2,23,24
 234 32 234 32 242 41.5 c 128,-1,25
 250 51 250 51 250 78 c 2,26,-1
 250 541 l 2,27,28
 250 629 250 629 230 629 c 2,29,-1
 209 629 l 2,30,31
 110 629 110 629 49 614 c 1,32,33
 20 605 20 605 8 540 c 0,34,35
 7 531 7 531 -9 531 c 128,-1,36
 -25 531 -25 531 -25 539 c 2,37,-1
 -17 692 l 2,38,39
 -17 701 -17 701 -1 701 c 128,-1,40
 15 701 15 701 15 692 c 2,41,-1
 15 673 l 1,42,43
 83 671 83 671 140 671 c 2,44,-1
 439 671 l 2,45,46
 520 671 520 671 588 673 c 1,47,-1
 588 692 l 2,48,49
 588 701 588 701 604 701 c 128,-1,50
 620 701 620 701 620 692 c 2,51,-1
 628 539 l 2,0,1
EndSplineSet
EndChar

StartChar: U
Encoding: 85 85 56
Width: 782
GlyphClass: 2
Flags: W
LayerCount: 2
Fore
SplineSet
631 672 m 1,0,-1
 739 675 l 2,1,2
 747 675 747 675 747 658 c 128,-1,3
 747 641 747 641 739 641 c 2,4,-1
 709 641 l 2,5,6
 684 641 684 641 676.5 631.5 c 128,-1,7
 669 622 669 622 667 595 c 0,8,9
 658 460 658 460 658 255 c 0,10,11
 658 129 658 129 580 58 c 128,-1,12
 502 -13 502 -13 394.5 -13 c 128,-1,13
 287 -13 287 -13 209.5 53.5 c 128,-1,14
 132 120 132 120 132 241 c 2,15,-1
 132 552 l 2,16,17
 132 640 132 640 111 640 c 2,18,-1
 53 640 l 2,19,20
 45 640 45 640 45 656.5 c 128,-1,21
 45 673 45 673 53 673 c 2,22,-1
 179 672 l 1,23,-1
 319 675 l 2,24,25
 327 675 327 675 327 658 c 128,-1,26
 327 641 327 641 319 641 c 2,27,-1
 276 641 l 2,28,29
 251 641 251 641 243 631.5 c 128,-1,30
 235 622 235 622 235 595 c 2,31,-1
 235 269 l 2,32,33
 235 163 235 163 287.5 109.5 c 128,-1,34
 340 56 340 56 422 56 c 128,-1,35
 504 56 504 56 552.5 115.5 c 128,-1,36
 601 175 601 175 601 290 c 0,37,38
 601 449 601 449 597 544.5 c 128,-1,39
 593 640 593 640 574 640 c 2,40,-1
 518 640 l 2,41,42
 510 640 510 640 510 656.5 c 128,-1,43
 510 673 510 673 518 673 c 2,44,-1
 631 672 l 1,0,-1
EndSplineSet
EndChar

StartChar: V
Encoding: 86 86 57
Width: 631
GlyphClass: 2
Flags: W
LayerCount: 2
Fore
SplineSet
551 671 m 1,0,-1
 663 673 l 2,1,2
 671 673 671 673 671 657.5 c 128,-1,3
 671 642 671 642 663 642 c 2,4,-1
 615 642 l 2,5,6
 593 642 593 642 579 609 c 0,7,8
 539 515 539 515 448.5 285 c 128,-1,9
 358 55 358 55 328 -12 c 0,10,11
 324 -21 324 -21 306 -21 c 128,-1,12
 288 -21 288 -21 284 -12 c 0,13,14
 194 198 194 198 46 613 c 0,15,16
 37 641 37 641 17 641 c 2,17,-1
 -19 641 l 2,18,19
 -25 641 -25 641 -25 657 c 128,-1,20
 -25 673 -25 673 -19 673 c 2,21,-1
 91 671 l 1,22,-1
 242 673 l 2,23,24
 252 673 252 673 252 657.5 c 128,-1,25
 252 642 252 642 242 642 c 2,26,-1
 184 642 l 2,27,28
 153 642 153 642 165 599 c 128,-1,29
 177 556 177 556 205.5 467.5 c 128,-1,30
 234 379 234 379 274.5 258 c 128,-1,31
 315 137 315 137 327 100 c 1,32,-1
 331 100 l 1,33,34
 498 563 498 563 498 620 c 0,35,36
 498 641 498 641 489 641 c 2,37,-1
 423 641 l 2,38,39
 415 641 415 641 415 657 c 128,-1,40
 415 673 415 673 423 673 c 2,41,-1
 551 671 l 1,0,-1
EndSplineSet
EndChar

StartChar: W
Encoding: 87 87 58
Width: 1015
GlyphClass: 2
Flags: W
LayerCount: 2
Fore
SplineSet
928 671 m 1,0,-1
 1040 673 l 2,1,2
 1048 673 1048 673 1048 657.5 c 128,-1,3
 1048 642 1048 642 1040 642 c 2,4,-1
 992 642 l 2,5,6
 970 642 970 642 956 609 c 0,7,8
 917 516 917 516 825.5 285.5 c 128,-1,9
 734 55 734 55 704 -12 c 0,10,11
 700 -21 700 -21 683 -21 c 128,-1,12
 666 -21 666 -21 662 -12 c 0,13,14
 612 104 612 104 497 422 c 1,15,16
 474 364 474 364 436 263 c 0,17,18
 356 49 356 49 328 -12 c 0,19,20
 324 -21 324 -21 306 -21 c 128,-1,21
 288 -21 288 -21 284 -12 c 0,22,23
 194 198 194 198 46 613 c 0,24,25
 37 641 37 641 17 641 c 2,26,-1
 -19 641 l 2,27,28
 -25 641 -25 641 -25 657 c 128,-1,29
 -25 673 -25 673 -19 673 c 2,30,-1
 91 671 l 1,31,-1
 242 673 l 2,32,33
 252 673 252 673 252 657.5 c 128,-1,34
 252 642 252 642 242 642 c 2,35,-1
 184 642 l 2,36,37
 153 642 153 642 165 599 c 128,-1,38
 177 556 177 556 205.5 467.5 c 128,-1,39
 234 379 234 379 274.5 258 c 128,-1,40
 315 137 315 137 327 100 c 1,41,-1
 331 100 l 1,42,43
 424 357 424 357 468 500 c 1,44,45
 453 540 453 540 428 613 c 0,46,47
 419 641 419 641 399 641 c 2,48,-1
 363 641 l 2,49,50
 357 641 357 641 357 657 c 128,-1,51
 357 673 357 673 363 673 c 2,52,-1
 473 671 l 1,53,54
 473 671 473 671 624 673 c 0,55,56
 634 673 634 673 634 657.5 c 128,-1,57
 634 642 634 642 624 642 c 2,58,-1
 566 642 l 2,59,60
 535 642 535 642 547 601 c 1,61,62
 567 523 567 523 705 100 c 1,63,-1
 709 100 l 1,64,65
 875 560 875 560 875 620 c 0,66,67
 875 641 875 641 866 641 c 2,68,-1
 800 641 l 2,69,70
 792 641 792 641 792 657 c 128,-1,71
 792 673 792 673 800 673 c 2,72,-1
 928 671 l 1,0,-1
EndSplineSet
EndChar

StartChar: X
Encoding: 88 88 59
Width: 730
GlyphClass: 2
Flags: W
LayerCount: 2
Fore
SplineSet
747 0 m 2,0,-1
 609 1 l 1,1,-1
 477 -2 l 2,2,3
 469 -2 469 -2 469 15 c 128,-1,4
 469 32 469 32 477 32 c 2,5,-1
 511 32 l 2,6,7
 530 32 530 32 530 44 c 0,8,9
 530 53 530 53 507.5 85 c 128,-1,10
 485 117 485 117 350 288 c 1,11,12
 180 98 180 98 167 37 c 0,13,14
 165 30 165 30 169 30 c 2,15,-1
 219 30 l 2,16,17
 227 30 227 30 227 15 c 128,-1,18
 227 0 227 0 219 0 c 2,19,-1
 85 1 l 1,20,-1
 -24 -2 l 2,21,22
 -34 -2 -34 -2 -34 14.5 c 128,-1,23
 -34 31 -34 31 -24 31 c 2,24,-1
 13 31 l 2,25,26
 34 31 34 31 57 52 c 0,27,28
 131 121 131 121 318 328 c 1,29,30
 137 556 137 556 105 591 c 1,31,32
 82 619 82 619 62.5 630 c 128,-1,33
 43 641 43 641 13 641 c 2,34,-1
 -1 641 l 2,35,36
 -7 641 -7 641 -7 657 c 128,-1,37
 -7 673 -7 673 -1 673 c 2,38,-1
 125 671 l 1,39,-1
 264 673 l 2,40,41
 270 673 270 673 270 657.5 c 128,-1,42
 270 642 270 642 264 642 c 2,43,-1
 216 642 l 2,44,45
 206 642 206 642 206 630.5 c 128,-1,46
 206 619 206 619 381 395 c 1,47,48
 502 535 502 535 529.5 576.5 c 128,-1,49
 557 618 557 618 557 629.5 c 128,-1,50
 557 641 557 641 552 641 c 2,51,-1
 515 641 l 2,52,53
 507 641 507 641 507 657 c 128,-1,54
 507 673 507 673 515 673 c 2,55,-1
 631 671 l 1,56,-1
 754 673 l 2,57,58
 763 673 763 673 763 657.5 c 128,-1,59
 763 642 763 642 754 642 c 2,60,-1
 707 642 l 2,61,62
 693 642 693 642 660 614 c 0,63,64
 591 556 591 556 412 357 c 1,65,66
 432 332 432 332 535 208 c 1,67,68
 662 58 662 58 677.5 45.5 c 128,-1,69
 693 33 693 33 698 33 c 2,70,-1
 747 33 l 2,71,72
 758 33 758 33 758 16.5 c 128,-1,73
 758 0 758 0 747 0 c 2,0,-1
EndSplineSet
EndChar

StartChar: Y
Encoding: 89 89 60
Width: 606
GlyphClass: 2
Flags: W
LayerCount: 2
Fore
SplineSet
310 1 m 1,0,-1
 172 -2 l 2,1,2
 164 -2 164 -2 164 15 c 128,-1,3
 164 32 164 32 172 32 c 2,4,-1
 215 32 l 2,5,6
 240 32 240 32 248 41.5 c 128,-1,7
 256 51 256 51 256 78 c 2,8,-1
 256 302 l 1,9,10
 257 343 257 343 55 577 c 0,11,12
 22 616 22 616 4 628.5 c 128,-1,13
 -14 641 -14 641 -29 641 c 2,14,-1
 -61 641 l 2,15,16
 -68 641 -68 641 -68 657 c 128,-1,17
 -68 673 -68 673 -61 673 c 2,18,-1
 63 671 l 1,19,-1
 204 673 l 2,20,21
 213 673 213 673 213 656.5 c 128,-1,22
 213 640 213 640 204 640 c 2,23,-1
 134 640 l 1,24,25
 134 636 134 636 170 593 c 0,26,27
 286 457 286 457 324 379 c 1,28,-1
 327 379 l 1,29,30
 348 415 348 415 416.5 500.5 c 128,-1,31
 485 586 485 586 493.5 603 c 128,-1,32
 502 620 502 620 502 629 c 0,33,34
 502 641 502 641 491 641 c 2,35,-1
 452 641 l 2,36,37
 443 641 443 641 443 657 c 128,-1,38
 443 673 443 673 452 673 c 2,39,-1
 570 671 l 1,40,-1
 681 673 l 2,41,42
 691 673 691 673 691 656.5 c 128,-1,43
 691 640 691 640 681 640 c 2,44,-1
 656 640 l 2,45,46
 631 640 631 640 613 624 c 0,47,48
 540 563 540 563 447.5 459 c 128,-1,49
 355 355 355 355 355 321 c 2,50,-1
 355 105 l 2,51,52
 355 33 355 33 376 33 c 2,53,-1
 434 33 l 2,54,55
 442 33 442 33 442 16.5 c 128,-1,56
 442 0 442 0 434 0 c 2,57,-1
 310 1 l 1,0,-1
EndSplineSet
EndChar

StartChar: Z
Encoding: 90 90 61
Width: 649
GlyphClass: 2
Flags: W
LayerCount: 2
Fore
SplineSet
39 0 m 0,0,1
 31 0 31 0 31 12 c 128,-1,2
 31 24 31 24 42 31 c 0,3,4
 63 44 63 44 343 487 c 2,5,-1
 436 634 l 1,6,-1
 185 634 l 2,7,8
 168 634 168 634 148 618 c 0,9,10
 111 586 111 586 93 511 c 1,11,12
 92 502 92 502 80 502 c 0,13,14
 56 502 56 502 58 511 c 0,15,16
 68 599 68 599 80 682 c 0,17,18
 82 697 82 697 103.5 697 c 128,-1,19
 125 697 125 697 125 683 c 0,20,21
 125 675 125 675 127 673 c 128,-1,22
 129 671 129 671 135 671 c 2,23,-1
 571 671 l 2,24,25
 581 671 581 671 581 660 c 0,26,27
 581 653 581 653 572 647 c 1,28,29
 561 643 561 643 463.5 491 c 128,-1,30
 366 339 366 339 274 190 c 2,31,-1
 182 40 l 1,32,-1
 461 40 l 2,33,34
 525 40 525 40 569 195 c 0,35,36
 572 206 572 206 583 206 c 0,37,38
 602 206 602 206 602 197 c 1,39,-1
 579 0 l 2,40,41
 578 -11 578 -11 574.5 -15 c 128,-1,42
 571 -19 571 -19 557 -19.5 c 128,-1,43
 543 -20 543 -20 543 -13 c 0,44,45
 543 -3 543 -3 473.5 -1.5 c 128,-1,46
 404 0 404 0 39 0 c 0,0,1
EndSplineSet
EndChar

StartChar: bracketleft
Encoding: 91 91 62
Width: 440
GlyphClass: 2
Flags: W
LayerCount: 2
Fore
SplineSet
450 -397 m 2,0,-1
 82 -397 l 1,1,-1
 82 886 l 1,2,-1
 450 886 l 2,3,4
 461 886 461 886 461 863 c 128,-1,5
 461 840 461 840 450 840 c 2,6,-1
 156 840 l 1,7,-1
 156 -352 l 1,8,-1
 450 -352 l 2,9,10
 461 -352 461 -352 461 -374.5 c 128,-1,11
 461 -397 461 -397 450 -397 c 2,0,-1
EndSplineSet
EndChar

StartChar: backslash
Encoding: 92 92 63
Width: 260
GlyphClass: 2
Flags: W
LayerCount: 2
Fore
SplineSet
-144 749 m 1,0,1
 -130 766 -130 766 -115.5 766 c 128,-1,2
 -101 766 -101 766 -90 746 c 2,3,-1
 376 -120 l 1,4,5
 359 -137 359 -137 345.5 -137 c 128,-1,6
 332 -137 332 -137 320 -113 c 2,7,-1
 -144 749 l 1,0,1
EndSplineSet
EndChar

StartChar: bracketright
Encoding: 93 93 64
Width: 440
GlyphClass: 2
Flags: W
LayerCount: 2
Fore
SplineSet
390 -397 m 1,0,-1
 22 -397 l 2,1,2
 11 -397 11 -397 11 -374.5 c 128,-1,3
 11 -352 11 -352 22 -352 c 2,4,-1
 316 -352 l 1,5,-1
 316 840 l 1,6,-1
 22 840 l 2,7,8
 11 840 11 840 11 863 c 128,-1,9
 11 886 11 886 22 886 c 2,10,-1
 390 886 l 1,11,-1
 390 -397 l 1,0,-1
EndSplineSet
EndChar

StartChar: asciicircum
Encoding: 94 94 65
Width: 520
GlyphClass: 2
Flags: W
LayerCount: 2
Fore
SplineSet
54 251 m 0,0,1
 46 251 46 251 35 254 c 1,2,3
 192 558 192 558 222 622.5 c 128,-1,4
 252 687 252 687 261 688 c 1,5,6
 272 688 272 688 309 610 c 1,7,-1
 465 296 l 2,8,9
 474 280 474 280 474 269 c 0,10,11
 474 253 474 253 431 251 c 1,12,-1
 260 589 l 1,13,-1
 258 589 l 1,14,-1
 103 284 l 1,15,16
 82 251 82 251 54 251 c 0,0,1
EndSplineSet
EndChar

StartChar: underscore
Encoding: 95 95 66
Width: 500
GlyphClass: 2
Flags: W
LayerCount: 2
Fore
SplineSet
456 -76 m 2,0,1
 483 -76 483 -76 493 -85.5 c 128,-1,2
 503 -95 503 -95 503 -106.5 c 128,-1,3
 503 -118 503 -118 503 -122 c 1,4,-1
 35 -122 l 2,5,6
 18 -122 18 -122 9 -112 c 128,-1,7
 0 -102 0 -102 -1 -92 c 2,8,-1
 -2 -81 l 1,9,-1
 456 -76 l 2,0,1
EndSplineSet
EndChar

StartChar: grave
Encoding: 96 96 67
Width: 360
GlyphClass: 2
Flags: W
LayerCount: 2
Fore
SplineSet
88 704 m 0,0,1
 88 718 88 718 98 727 c 128,-1,2
 108 736 108 736 129.5 736 c 128,-1,3
 151 736 151 736 165.5 721.5 c 128,-1,4
 180 707 180 707 215 654 c 128,-1,5
 250 601 250 601 275.5 573 c 128,-1,6
 301 545 301 545 301 542 c 0,7,8
 301 533 301 533 291.5 533 c 128,-1,9
 282 533 282 533 278 536 c 0,10,11
 156 620 156 620 122 649 c 128,-1,12
 88 678 88 678 88 704 c 0,0,1
EndSplineSet
EndChar

StartChar: a
Encoding: 97 97 68
Width: 471
GlyphClass: 2
Flags: W
LayerCount: 2
Fore
SplineSet
375 324 m 1,0,1
 375 324 375 324 365 123 c 1,2,3
 365 56 365 56 409 56 c 0,4,5
 427 56 427 56 439.5 66.5 c 128,-1,6
 452 77 452 77 454 77 c 0,7,8
 464 77 464 77 464 67 c 0,9,10
 464 41 464 41 434.5 15 c 128,-1,11
 405 -11 405 -11 369 -11 c 128,-1,12
 333 -11 333 -11 314.5 18.5 c 128,-1,13
 296 48 296 48 296 91 c 0,14,15
 296 95 296 95 296 100 c 1,16,-1
 293 100 l 1,17,18
 275 51 275 51 232 19 c 128,-1,19
 189 -13 189 -13 141.5 -13 c 128,-1,20
 94 -13 94 -13 69.5 6.5 c 128,-1,21
 45 26 45 26 45 62 c 0,22,23
 45 119 45 119 110 169 c 128,-1,24
 175 219 175 219 291 253 c 1,25,26
 293 287 293 287 293 293 c 0,27,28
 293 347 293 347 272.5 382 c 128,-1,29
 252 417 252 417 211 417 c 128,-1,30
 170 417 170 417 144.5 393.5 c 128,-1,31
 119 370 119 370 119 326 c 0,32,33
 119 312 119 312 120 304 c 1,34,35
 113 294 113 294 93 294 c 128,-1,36
 73 294 73 294 58 306 c 128,-1,37
 43 318 43 318 43 341 c 0,38,39
 43 386 43 386 100 418 c 128,-1,40
 157 450 157 450 220 450 c 0,41,42
 375 450 375 450 375 324 c 1,0,1
182 42 m 0,43,44
 223 42 223 42 255 91 c 128,-1,45
 287 140 287 140 291 224 c 1,46,47
 206 193 206 193 172 160 c 128,-1,48
 138 127 138 127 138 89 c 0,49,50
 138 42 138 42 182 42 c 0,43,44
EndSplineSet
EndChar

StartChar: b
Encoding: 98 98 69
Width: 573
GlyphClass: 2
Flags: W
LayerCount: 2
Fore
SplineSet
175 735 m 2,0,-1
 174 376 l 1,1,-1
 176 376 l 1,2,3
 236 450 236 450 333 450 c 128,-1,4
 430 450 430 450 482 390.5 c 128,-1,5
 534 331 534 331 534 231.5 c 128,-1,6
 534 132 534 132 465.5 59.5 c 128,-1,7
 397 -13 397 -13 302 -13 c 0,8,9
 266 -13 266 -13 237.5 -4 c 128,-1,10
 209 5 209 5 195 15.5 c 128,-1,11
 181 26 181 26 168.5 35 c 128,-1,12
 156 44 156 44 148 44 c 2,13,-1
 146 44 l 2,14,15
 132 44 132 44 114 -1.5 c 128,-1,16
 96 -47 96 -47 90 -47 c 0,17,18
 74 -47 74 -47 74 -35 c 0,19,20
 74 -32 74 -32 78 -10 c 0,21,22
 89 50 89 50 89 291 c 2,23,-1
 89 584 l 2,24,25
 89 681 89 681 64 681 c 2,26,-1
 19 681 l 2,27,28
 11 681 11 681 11 696 c 128,-1,29
 11 711 11 711 17 711 c 0,30,31
 59 711 59 711 83.5 718.5 c 128,-1,32
 108 726 108 726 118 729.5 c 128,-1,33
 128 733 128 733 142.5 739.5 c 128,-1,34
 157 746 157 746 160 747 c 1,35,36
 175 747 175 747 175 735 c 2,0,-1
299 23 m 0,37,38
 367 23 367 23 400.5 81.5 c 128,-1,39
 434 140 434 140 434 214 c 128,-1,40
 434 288 434 288 393 338.5 c 128,-1,41
 352 389 352 389 282 389 c 0,42,43
 234 389 234 389 204 368 c 0,44,45
 190 357 190 357 183 350.5 c 128,-1,46
 176 344 176 344 174 343 c 1,47,-1
 174 164 l 1,48,49
 186 23 186 23 299 23 c 0,37,38
EndSplineSet
EndChar

StartChar: c
Encoding: 99 99 70
Width: 457
GlyphClass: 2
Flags: W
LayerCount: 2
Fore
SplineSet
302 450 m 0,0,1
 349 450 349 450 380 431 c 128,-1,2
 411 412 411 412 411 383.5 c 128,-1,3
 411 355 411 355 373 339 c 1,4,5
 308 401 308 401 251.5 401 c 128,-1,6
 195 401 195 401 159 358.5 c 128,-1,7
 123 316 123 316 123 234 c 128,-1,8
 123 152 123 152 171 105.5 c 128,-1,9
 219 59 219 59 283 59 c 0,10,11
 350 59 350 59 398 91 c 0,12,13
 415 102 415 102 418 102 c 0,14,15
 430 102 430 102 430 90 c 128,-1,16
 430 78 430 78 408 54.5 c 128,-1,17
 386 31 386 31 342.5 9 c 128,-1,18
 299 -13 299 -13 252 -13 c 0,19,20
 154 -13 154 -13 96.5 47 c 128,-1,21
 39 107 39 107 39 188 c 0,22,23
 39 297 39 297 118.5 373.5 c 128,-1,24
 198 450 198 450 302 450 c 0,0,1
EndSplineSet
EndChar

StartChar: d
Encoding: 100 100 71
Width: 573
GlyphClass: 2
Flags: W
LayerCount: 2
Fore
SplineSet
485 735 m 2,0,-1
 484 376 l 1,1,-1
 484 146 l 2,2,3
 484 78 484 78 498 66 c 0,4,5
 506 60 506 60 519 60 c 1,6,-1
 553 63 l 2,7,8
 561 63 561 63 561 48.5 c 128,-1,9
 561 34 561 34 555 33 c 0,10,11
 488 22 488 22 444 -4 c 0,12,13
 430 -13 430 -13 426 -13 c 0,14,15
 405 -13 405 -13 401 62 c 1,16,-1
 399 62 l 1,17,18
 339 -13 339 -13 233 -13 c 0,19,20
 143 -13 143 -13 91 46.5 c 128,-1,21
 39 106 39 106 39 205.5 c 128,-1,22
 39 305 39 305 107.5 377.5 c 128,-1,23
 176 450 176 450 271 450 c 0,24,25
 342 450 342 450 399 406 c 1,26,-1
 399 584 l 2,27,28
 399 681 399 681 374 681 c 2,29,-1
 329 681 l 2,30,31
 321 681 321 681 321 696 c 128,-1,32
 321 711 321 711 327 711 c 0,33,34
 368 711 368 711 393 718.5 c 128,-1,35
 418 726 418 726 428 729.5 c 128,-1,36
 438 733 438 733 452.5 739.5 c 128,-1,37
 467 746 467 746 470 747 c 1,38,39
 485 747 485 747 485 735 c 2,0,-1
274 414 m 0,40,41
 206 414 206 414 172.5 355.5 c 128,-1,42
 139 297 139 297 139 223 c 128,-1,43
 139 149 139 149 180 98.5 c 128,-1,44
 221 48 221 48 291 48 c 0,45,46
 339 48 339 48 368 70 c 1,47,48
 383 80 383 80 390 86.5 c 128,-1,49
 397 93 397 93 399 94 c 1,50,-1
 399 273 l 1,51,52
 387 414 387 414 274 414 c 0,40,41
EndSplineSet
EndChar

StartChar: e
Encoding: 101 101 72
Width: 466
GlyphClass: 2
Flags: W
LayerCount: 2
Fore
SplineSet
273 72 m 0,0,1
 311 72 311 72 339 80 c 128,-1,2
 367 88 367 88 380 98 c 2,3,-1
 402 116 l 2,4,5
 412 124 412 124 417 124 c 0,6,7
 428 124 428 124 428 112 c 0,8,9
 428 90 428 90 389 44 c 0,10,11
 370 21 370 21 332 4 c 128,-1,12
 294 -13 294 -13 247 -13 c 0,13,14
 159 -13 159 -13 99 53 c 128,-1,15
 39 119 39 119 39 205 c 0,16,17
 39 313 39 313 110 381 c 128,-1,18
 181 449 181 449 267 449 c 0,19,20
 332 449 332 449 376.5 402.5 c 128,-1,21
 421 356 421 356 421 280 c 0,22,23
 421 264 421 264 414 257.5 c 128,-1,24
 407 251 407 251 382 249.5 c 128,-1,25
 357 248 357 248 260 247 c 128,-1,26
 163 246 163 246 93 242 c 1,27,28
 93 157 93 157 148.5 114.5 c 128,-1,29
 204 72 204 72 273 72 c 0,0,1
308 370 m 128,-1,31
 280 395 280 395 235.5 395 c 128,-1,32
 191 395 191 395 149 362.5 c 128,-1,33
 107 330 107 330 96 273 c 1,34,35
 122 276 122 276 201 282.5 c 128,-1,36
 280 289 280 289 308 292.5 c 128,-1,37
 336 296 336 296 336 311 c 0,38,30
 336 345 336 345 308 370 c 128,-1,31
EndSplineSet
EndChar

StartChar: f
Encoding: 102 102 73
Width: 345
GlyphClass: 2
Flags: W
LayerCount: 2
Fore
SplineSet
156 1 m 1,0,-1
 40 -2 l 2,1,2
 33 -2 33 -2 33 13 c 128,-1,3
 33 28 33 28 38 28 c 2,4,-1
 96 28 l 2,5,6
 108 28 108 28 108 45 c 2,7,-1
 108 399 l 1,8,-1
 38 399 l 2,9,10
 27 399 27 399 27 415.5 c 128,-1,11
 27 432 27 432 36 432 c 0,12,13
 99 432 99 432 106 453 c 0,14,15
 110 466 110 466 116.5 491.5 c 128,-1,16
 123 517 123 517 128 535.5 c 128,-1,17
 133 554 133 554 142 579.5 c 128,-1,18
 151 605 151 605 161.5 624 c 128,-1,19
 172 643 172 643 189 663 c 128,-1,20
 206 683 206 683 226 696 c 0,21,22
 273 724 273 724 342 724 c 0,23,24
 382 724 382 724 410.5 704.5 c 128,-1,25
 439 685 439 685 439 660 c 0,26,27
 439 625 439 625 389 609 c 1,28,29
 375 631 375 631 365 644 c 128,-1,30
 355 657 355 657 336 669.5 c 128,-1,31
 317 682 317 682 294.5 682 c 128,-1,32
 272 682 272 682 253.5 672 c 128,-1,33
 235 662 235 662 224 642.5 c 128,-1,34
 213 623 213 623 206.5 604 c 128,-1,35
 200 585 200 585 197 556 c 0,36,37
 193 517 193 517 193 466 c 2,38,-1
 193 437 l 1,39,-1
 306 437 l 2,40,41
 317 437 317 437 317 418 c 128,-1,42
 317 399 317 399 308 399 c 2,43,-1
 193 399 l 1,44,-1
 193 118 l 2,45,46
 193 30 193 30 214 30 c 2,47,-1
 263 30 l 2,48,49
 271 30 271 30 271 15 c 128,-1,50
 271 0 271 0 265 0 c 2,51,-1
 156 1 l 1,0,-1
EndSplineSet
EndChar

StartChar: g
Encoding: 103 103 74
Width: 510
GlyphClass: 2
Flags: W
LayerCount: 2
Fore
SplineSet
208 36 m 1,0,-1
 326 41 l 1,1,2
 398 41 398 41 445.5 13 c 128,-1,3
 493 -15 493 -15 493 -71 c 0,4,5
 493 -151 493 -151 399 -215.5 c 128,-1,6
 305 -280 305 -280 198 -280 c 0,7,8
 34 -280 34 -280 34 -181 c 0,9,10
 34 -140 34 -140 72 -98 c 128,-1,11
 110 -56 110 -56 162 -38 c 1,12,-1
 162 -35 l 1,13,14
 57 -22 57 -22 57 39 c 0,15,16
 57 64 57 64 81 93.5 c 128,-1,17
 105 123 105 123 153 134 c 1,18,-1
 153 136 l 1,19,20
 107 153 107 153 78.5 193 c 128,-1,21
 50 233 50 233 50 282 c 0,22,23
 50 358 50 358 104 404 c 128,-1,24
 158 450 158 450 233.5 450 c 128,-1,25
 309 450 309 450 362 392 c 1,26,27
 408 446 408 446 453 446 c 0,28,29
 478 446 478 446 492.5 433 c 128,-1,30
 507 420 507 420 507 397 c 128,-1,31
 507 374 507 374 479 358 c 1,32,33
 442 388 442 388 414 388 c 0,34,35
 404 388 404 388 394 382 c 128,-1,36
 384 376 384 376 384 371.5 c 128,-1,37
 384 367 384 367 394.5 340.5 c 128,-1,38
 405 314 405 314 405 284 c 0,39,40
 405 204 405 204 355 164 c 128,-1,41
 305 124 305 124 227 122 c 0,42,43
 191 122 191 122 165 112 c 0,44,45
 119 93 119 93 119 68 c 0,46,47
 119 36 119 36 208 36 c 1,0,-1
303 -33 m 1,48,-1
 212 -38 l 1,49,50
 168 -54 168 -54 138 -88.5 c 128,-1,51
 108 -123 108 -123 108 -162 c 0,52,53
 108 -245 108 -245 221 -245 c 0,54,55
 288 -245 288 -245 356.5 -203 c 128,-1,56
 425 -161 425 -161 425 -101 c 0,57,58
 425 -66 425 -66 389.5 -49.5 c 128,-1,59
 354 -33 354 -33 303 -33 c 1,48,-1
225 155 m 0,60,61
 320 155 320 155 320 284 c 0,62,63
 320 338 320 338 298.5 377.5 c 128,-1,64
 277 417 277 417 227 417 c 0,65,66
 135 417 135 417 135 284 c 0,67,68
 135 231 135 231 156 193 c 128,-1,69
 177 155 177 155 225 155 c 0,60,61
EndSplineSet
EndChar

StartChar: h
Encoding: 104 104 75
Width: 606
GlyphClass: 2
Flags: W
LayerCount: 2
Fore
SplineSet
196 735 m 2,0,-1
 195 390 l 1,1,-1
 196 390 l 1,2,3
 226 417 226 417 265 433.5 c 128,-1,4
 304 450 304 450 337 450 c 0,5,6
 508 450 508 450 508 258 c 2,7,-1
 508 118 l 2,8,9
 508 30 508 30 529 30 c 2,10,-1
 578 30 l 2,11,12
 586 30 586 30 586 15 c 128,-1,13
 586 0 586 0 580 0 c 2,14,15
 580 0 580 0 471 1 c 1,16,-1
 355 -2 l 2,17,18
 348 -2 348 -2 348 13 c 128,-1,19
 348 28 348 28 353 28 c 2,20,-1
 411 28 l 2,21,22
 423 28 423 28 423 45 c 2,23,-1
 423 214 l 2,24,25
 423 315 423 315 394 355 c 128,-1,26
 365 395 365 395 298 395 c 128,-1,27
 231 395 231 395 195 355 c 1,28,-1
 195 118 l 2,29,30
 195 30 195 30 216 30 c 2,31,-1
 265 30 l 2,32,33
 273 30 273 30 273 15 c 128,-1,34
 273 0 273 0 267 0 c 2,35,-1
 158 1 l 1,36,-1
 42 -2 l 2,37,38
 35 -2 35 -2 35 13 c 128,-1,39
 35 28 35 28 40 28 c 2,40,-1
 98 28 l 2,41,42
 110 28 110 28 110 45 c 2,43,-1
 110 584 l 2,44,45
 110 681 110 681 85 681 c 2,46,-1
 40 681 l 2,47,48
 32 681 32 681 32 696 c 128,-1,49
 32 711 32 711 38 711 c 0,50,51
 80 711 80 711 104.5 718.5 c 128,-1,52
 129 726 129 726 139 729.5 c 128,-1,53
 149 733 149 733 163.5 739.5 c 128,-1,54
 178 746 178 746 181 747 c 1,55,56
 196 747 196 747 196 735 c 2,0,-1
EndSplineSet
EndChar

StartChar: i
Encoding: 105 105 76
Width: 298
GlyphClass: 2
Flags: W
LayerCount: 2
Fore
SplineSet
154 1 m 1,0,-1
 38 -2 l 2,1,2
 31 -2 31 -2 31 13 c 128,-1,3
 31 28 31 28 36 28 c 2,4,-1
 94 28 l 2,5,6
 106 28 106 28 106 45 c 2,7,-1
 106 280 l 2,8,9
 106 377 106 377 78 377 c 2,10,-1
 58 377 l 2,11,12
 50 377 50 377 50 392 c 128,-1,13
 50 407 50 407 56 407 c 0,14,15
 102 407 102 407 156 460 c 0,16,17
 175 478 175 478 180 478 c 0,18,19
 195 478 195 478 195 466 c 0,20,21
 195 458 195 458 193 412.5 c 128,-1,22
 191 367 191 367 191 297 c 2,23,-1
 191 118 l 2,24,25
 191 30 191 30 212 30 c 2,26,-1
 261 30 l 2,27,28
 269 30 269 30 269 15 c 128,-1,29
 269 0 269 0 263 0 c 2,30,-1
 154 1 l 1,0,-1
175 600.5 m 128,-1,32
 160 585 160 585 138 585 c 128,-1,33
 116 585 116 585 99.5 600 c 128,-1,34
 83 615 83 615 83 637.5 c 128,-1,35
 83 660 83 660 98.5 676 c 128,-1,36
 114 692 114 692 136.5 692 c 128,-1,37
 159 692 159 692 174.5 676.5 c 128,-1,38
 190 661 190 661 190 638.5 c 128,-1,31
 190 616 190 616 175 600.5 c 128,-1,32
EndSplineSet
EndChar

StartChar: j
Encoding: 106 106 77
Width: 299
GlyphClass: 2
Flags: W
LayerCount: 2
Fore
SplineSet
215 297 m 2,0,-1
 215 42 l 2,1,2
 215 -42 215 -42 195 -102.5 c 128,-1,3
 175 -163 175 -163 151.5 -198.5 c 128,-1,4
 128 -234 128 -234 87 -257.5 c 128,-1,5
 46 -281 46 -281 0 -281 c 128,-1,6
 -46 -281 -46 -281 -68.5 -264.5 c 128,-1,7
 -91 -248 -91 -248 -91 -226 c 0,8,9
 -91 -193 -91 -193 -47 -178 c 1,10,11
 -10 -236 -10 -236 36 -236 c 0,12,13
 62 -236 62 -236 81 -219.5 c 128,-1,14
 100 -203 100 -203 109 -181.5 c 128,-1,15
 118 -160 118 -160 123 -126 c 0,16,17
 130 -77 130 -77 130 -15 c 2,18,-1
 130 280 l 2,19,20
 130 377 130 377 102 377 c 2,21,-1
 82 377 l 2,22,23
 74 377 74 377 74 392 c 128,-1,24
 74 407 74 407 80 407 c 0,25,26
 126 407 126 407 180 460 c 0,27,28
 199 478 199 478 204 478 c 0,29,30
 219 478 219 478 219 466 c 0,31,32
 219 458 219 458 217 412.5 c 128,-1,33
 215 367 215 367 215 297 c 2,0,-1
200 600.5 m 128,-1,35
 185 585 185 585 163 585 c 128,-1,36
 141 585 141 585 124.5 600 c 128,-1,37
 108 615 108 615 108 637.5 c 128,-1,38
 108 660 108 660 124 676 c 128,-1,39
 140 692 140 692 162 692 c 128,-1,40
 184 692 184 692 199.5 676.5 c 128,-1,41
 215 661 215 661 215 638.5 c 128,-1,34
 215 616 215 616 200 600.5 c 128,-1,35
EndSplineSet
EndChar

StartChar: k
Encoding: 107 107 78
Width: 526
GlyphClass: 2
Flags: W
LayerCount: 2
Fore
SplineSet
195 735 m 2,0,-1
 194 355 l 1,1,-1
 194 205 l 1,2,-1
 330 337 l 2,3,4
 373 378 373 378 373 403 c 0,5,6
 373 412 373 412 365 412 c 2,7,-1
 317 412 l 2,8,9
 309 412 309 412 309 425 c 128,-1,10
 309 438 309 438 314 438 c 2,11,12
 314 438 314 438 415 436 c 1,13,-1
 489 438 l 2,14,15
 496 438 496 438 496 425.5 c 128,-1,16
 496 413 496 413 491 413 c 2,17,-1
 475 413 l 2,18,19
 461 413 461 413 446 400 c 2,20,-1
 290 254 l 1,21,22
 420 85 420 85 483 41 c 0,23,24
 498 30 498 30 519 30 c 0,25,26
 529 30 529 30 529 15 c 128,-1,27
 529 0 529 0 518 0 c 0,28,29
 504 1 504 1 469 1 c 2,30,-1
 421 0 l 2,31,32
 412 0 412 0 398 12 c 0,33,34
 369 36 369 36 234 202 c 1,35,-1
 194 164 l 1,36,-1
 194 118 l 2,37,38
 194 30 194 30 215 30 c 2,39,-1
 264 30 l 2,40,41
 272 30 272 30 272 15 c 128,-1,42
 272 0 272 0 266 0 c 2,43,-1
 157 1 l 1,44,-1
 41 -2 l 2,45,46
 34 -2 34 -2 34 13 c 128,-1,47
 34 28 34 28 39 28 c 2,48,-1
 97 28 l 2,49,50
 109 28 109 28 109 45 c 2,51,-1
 109 584 l 2,52,53
 109 681 109 681 84 681 c 2,54,-1
 39 681 l 2,55,56
 31 681 31 681 31 696 c 128,-1,57
 31 711 31 711 37 711 c 0,58,59
 78 711 78 711 103 718.5 c 128,-1,60
 128 726 128 726 138 729.5 c 128,-1,61
 148 733 148 733 162.5 739.5 c 128,-1,62
 177 746 177 746 180 747 c 1,63,64
 195 747 195 747 195 735 c 2,0,-1
EndSplineSet
EndChar

StartChar: l
Encoding: 108 108 79
Width: 299
GlyphClass: 2
Flags: W
LayerCount: 2
Fore
SplineSet
195 735 m 2,0,-1
 194 355 l 1,1,-1
 194 118 l 2,2,3
 194 30 194 30 215 30 c 2,4,-1
 264 30 l 2,5,6
 272 30 272 30 272 15 c 128,-1,7
 272 0 272 0 266 0 c 2,8,9
 266 0 266 0 157 1 c 1,10,-1
 41 -2 l 2,11,12
 34 -2 34 -2 34 13 c 128,-1,13
 34 28 34 28 39 28 c 2,14,-1
 97 28 l 2,15,16
 109 28 109 28 109 45 c 2,17,-1
 109 584 l 2,18,19
 109 681 109 681 84 681 c 2,20,-1
 39 681 l 2,21,22
 31 681 31 681 31 696 c 128,-1,23
 31 711 31 711 37 711 c 0,24,25
 78 711 78 711 103 718.5 c 128,-1,26
 128 726 128 726 138 729.5 c 128,-1,27
 148 733 148 733 162.5 739.5 c 128,-1,28
 177 746 177 746 180 747 c 1,29,30
 195 747 195 747 195 735 c 2,0,-1
EndSplineSet
EndChar

StartChar: m
Encoding: 109 109 80
Width: 902
GlyphClass: 2
Flags: W
LayerCount: 2
Fore
SplineSet
193 466 m 2,0,-1
 191 388 l 1,1,-1
 193 388 l 1,2,3
 223 416 223 416 263 433 c 128,-1,4
 303 450 303 450 336 450 c 0,5,6
 439 450 439 450 477 372 c 1,7,-1
 479 372 l 1,8,9
 561 450 561 450 641 450 c 0,10,11
 804 450 804 450 804 258 c 2,12,-1
 804 118 l 2,13,14
 804 30 804 30 825 30 c 2,15,-1
 874 30 l 2,16,17
 882 30 882 30 882 15 c 128,-1,18
 882 0 882 0 876 0 c 2,19,20
 876 0 876 0 767 1 c 1,21,-1
 651 -2 l 2,22,23
 644 -2 644 -2 644 13 c 128,-1,24
 644 28 644 28 649 28 c 2,25,-1
 707 28 l 2,26,27
 719 28 719 28 719 45 c 2,28,-1
 719 214 l 2,29,30
 719 316 719 316 693 355.5 c 128,-1,31
 667 395 667 395 596 395 c 0,32,33
 567 395 567 395 537 380.5 c 128,-1,34
 507 366 507 366 488 343 c 1,35,36
 499 305 499 305 499 258 c 2,37,-1
 499 118 l 2,38,39
 499 30 499 30 520 30 c 2,40,-1
 569 30 l 2,41,42
 577 30 577 30 577 15 c 128,-1,43
 577 0 577 0 571 0 c 2,44,-1
 462 1 l 1,45,-1
 346 -2 l 2,46,47
 339 -2 339 -2 339 13 c 128,-1,48
 339 28 339 28 344 28 c 2,49,-1
 402 28 l 2,50,51
 414 28 414 28 414 45 c 2,52,-1
 414 214 l 2,53,54
 414 316 414 316 388 355.5 c 128,-1,55
 362 395 362 395 296 395 c 128,-1,56
 230 395 230 395 194 355 c 1,57,-1
 194 118 l 2,58,59
 194 30 194 30 215 30 c 2,60,-1
 264 30 l 2,61,62
 272 30 272 30 272 15 c 128,-1,63
 272 0 272 0 266 0 c 2,64,-1
 157 1 l 1,65,-1
 41 -2 l 2,66,67
 34 -2 34 -2 34 13 c 128,-1,68
 34 28 34 28 39 28 c 2,69,-1
 97 28 l 2,70,71
 109 28 109 28 109 45 c 2,72,-1
 109 280 l 2,73,74
 109 377 109 377 81 377 c 2,75,-1
 61 377 l 2,76,77
 53 377 53 377 53 392 c 128,-1,78
 53 407 53 407 59 407 c 0,79,80
 86 407 86 407 113 424.5 c 128,-1,81
 140 442 140 442 157.5 460 c 128,-1,82
 175 478 175 478 179 478 c 0,83,84
 193 478 193 478 193 466 c 2,0,-1
EndSplineSet
EndChar

StartChar: n
Encoding: 110 110 81
Width: 600
GlyphClass: 2
Flags: W
LayerCount: 2
Fore
SplineSet
193 466 m 2,0,-1
 191 388 l 1,1,-1
 193 388 l 1,2,3
 223 416 223 416 263 433 c 128,-1,4
 303 450 303 450 336 450 c 0,5,6
 502 450 502 450 502 258 c 2,7,-1
 502 118 l 2,8,9
 502 30 502 30 523 30 c 2,10,-1
 572 30 l 2,11,12
 580 30 580 30 580 15 c 128,-1,13
 580 0 580 0 574 0 c 2,14,15
 574 0 574 0 465 1 c 1,16,-1
 349 -2 l 2,17,18
 342 -2 342 -2 342 13 c 128,-1,19
 342 28 342 28 347 28 c 2,20,-1
 405 28 l 2,21,22
 417 28 417 28 417 45 c 2,23,-1
 417 214 l 2,24,25
 417 316 417 316 389.5 355.5 c 128,-1,26
 362 395 362 395 296 395 c 128,-1,27
 230 395 230 395 194 355 c 1,28,-1
 194 118 l 2,29,30
 194 30 194 30 215 30 c 2,31,-1
 264 30 l 2,32,33
 272 30 272 30 272 15 c 128,-1,34
 272 0 272 0 266 0 c 2,35,-1
 157 1 l 1,36,-1
 41 -2 l 2,37,38
 34 -2 34 -2 34 13 c 128,-1,39
 34 28 34 28 39 28 c 2,40,-1
 97 28 l 2,41,42
 109 28 109 28 109 45 c 2,43,-1
 109 280 l 2,44,45
 109 377 109 377 81 377 c 2,46,-1
 61 377 l 2,47,48
 53 377 53 377 53 392 c 128,-1,49
 53 407 53 407 59 407 c 0,50,51
 86 407 86 407 113 424.5 c 128,-1,52
 140 442 140 442 157.5 460 c 128,-1,53
 175 478 175 478 179 478 c 0,54,55
 193 478 193 478 193 466 c 2,0,-1
EndSplineSet
EndChar

StartChar: o
Encoding: 111 111 82
Width: 549
GlyphClass: 2
Flags: W
LayerCount: 2
Fore
SplineSet
107 384 m 128,-1,1
 180 450 180 450 274.5 450 c 128,-1,2
 369 450 369 450 442 382.5 c 128,-1,3
 515 315 515 315 515 217.5 c 128,-1,4
 515 120 515 120 444.5 53.5 c 128,-1,5
 374 -13 374 -13 275 -13 c 128,-1,6
 176 -13 176 -13 105 56.5 c 128,-1,7
 34 126 34 126 34 222 c 128,-1,0
 34 318 34 318 107 384 c 128,-1,1
270 414 m 0,8,9
 202 414 202 414 168 355 c 128,-1,10
 134 296 134 296 134 217.5 c 128,-1,11
 134 139 134 139 169.5 81 c 128,-1,12
 205 23 205 23 276 23 c 128,-1,13
 347 23 347 23 381 80 c 128,-1,14
 415 137 415 137 415 201.5 c 128,-1,15
 415 266 415 266 402 309 c 128,-1,16
 389 352 389 352 355 383 c 128,-1,17
 321 414 321 414 270 414 c 0,8,9
EndSplineSet
EndChar

StartChar: p
Encoding: 112 112 83
Width: 582
GlyphClass: 2
Flags: W
LayerCount: 2
Fore
SplineSet
180 466 m 2,0,-1
 177 370 l 1,1,-1
 179 370 l 1,2,3
 242 450 242 450 349 450 c 0,4,5
 439 450 439 450 491 390.5 c 128,-1,6
 543 331 543 331 543 231.5 c 128,-1,7
 543 132 543 132 474.5 59.5 c 128,-1,8
 406 -13 406 -13 311 -13 c 0,9,10
 277 -13 277 -13 248.5 -4.5 c 128,-1,11
 220 4 220 4 209.5 11 c 128,-1,12
 199 18 199 18 182 31 c 1,13,14
 183 14 183 14 183 -70 c 2,15,-1
 183 -152 l 2,16,17
 183 -240 183 -240 204 -240 c 2,18,-1
 253 -240 l 2,19,20
 261 -240 261 -240 261 -255 c 128,-1,21
 261 -270 261 -270 255 -270 c 2,22,-1
 146 -269 l 1,23,-1
 30 -272 l 2,24,25
 23 -272 23 -272 23 -257 c 128,-1,26
 23 -242 23 -242 28 -242 c 2,27,-1
 86 -242 l 2,28,29
 98 -242 98 -242 98 -225 c 2,30,-1
 98 280 l 2,31,32
 98 377 98 377 70 377 c 2,33,-1
 50 377 l 2,34,35
 42 377 42 377 42 392 c 128,-1,36
 42 407 42 407 48 407 c 0,37,38
 75 407 75 407 101.5 424.5 c 128,-1,39
 128 442 128 442 145 460 c 128,-1,40
 162 478 162 478 166 478 c 0,41,42
 180 478 180 478 180 466 c 2,0,-1
308 23 m 0,43,44
 376 23 376 23 409.5 81.5 c 128,-1,45
 443 140 443 140 443 214 c 128,-1,46
 443 288 443 288 402 338.5 c 128,-1,47
 361 389 361 389 291 389 c 0,48,49
 243 389 243 389 214 368 c 0,50,51
 199 357 199 357 192 350.5 c 128,-1,52
 185 344 185 344 183 343 c 1,53,-1
 183 164 l 1,54,55
 195 23 195 23 308 23 c 0,43,44
EndSplineSet
EndChar

StartChar: q
Encoding: 113 113 84
Width: 568
GlyphClass: 2
Flags: W
LayerCount: 2
Fore
SplineSet
447 -269 m 1,0,-1
 331 -272 l 2,1,2
 324 -272 324 -272 324 -257 c 128,-1,3
 324 -242 324 -242 329 -242 c 2,4,-1
 387 -242 l 2,5,6
 399 -242 399 -242 399 -225 c 2,7,-1
 399 61 l 1,8,-1
 397 61 l 1,9,10
 337 -13 337 -13 240 -13 c 128,-1,11
 143 -13 143 -13 91 46.5 c 128,-1,12
 39 106 39 106 39 205.5 c 128,-1,13
 39 305 39 305 107.5 377.5 c 128,-1,14
 176 450 176 450 271 450 c 0,15,16
 307 450 307 450 335.5 441 c 128,-1,17
 364 432 364 432 378 421.5 c 128,-1,18
 392 411 392 411 404.5 402 c 128,-1,19
 417 393 417 393 425 393 c 2,20,-1
 427 393 l 2,21,22
 441 393 441 393 459 438.5 c 128,-1,23
 477 484 477 484 483 484 c 0,24,25
 499 484 499 484 499 472 c 0,26,27
 499 470 499 470 496 448 c 0,28,29
 484 374 484 374 484 146 c 2,30,-1
 484 -152 l 2,31,32
 484 -240 484 -240 505 -240 c 2,33,-1
 554 -240 l 2,34,35
 562 -240 562 -240 562 -255 c 128,-1,36
 562 -270 562 -270 556 -270 c 2,37,-1
 447 -269 l 1,0,-1
274 414 m 0,38,39
 206 414 206 414 172.5 355.5 c 128,-1,40
 139 297 139 297 139 223 c 128,-1,41
 139 149 139 149 180 98.5 c 128,-1,42
 221 48 221 48 291 48 c 0,43,44
 339 48 339 48 368 70 c 1,45,46
 383 80 383 80 390 86.5 c 128,-1,47
 397 93 397 93 399 94 c 1,48,-1
 399 273 l 1,49,50
 387 414 387 414 274 414 c 0,38,39
EndSplineSet
EndChar

StartChar: r
Encoding: 114 114 85
Width: 391
GlyphClass: 2
Flags: W
LayerCount: 2
Fore
SplineSet
194 466 m 2,0,-1
 192 376 l 1,1,-1
 194 376 l 1,2,3
 217 401 217 401 257 425.5 c 128,-1,4
 297 450 297 450 328 450 c 128,-1,5
 359 450 359 450 372 438 c 128,-1,6
 385 426 385 426 385 408.5 c 128,-1,7
 385 391 385 391 373 374 c 128,-1,8
 361 357 361 357 340 348 c 1,9,10
 302 381 302 381 263.5 381 c 128,-1,11
 225 381 225 381 195 342 c 1,12,-1
 195 118 l 2,13,14
 195 30 195 30 216 30 c 2,15,-1
 265 30 l 2,16,17
 273 30 273 30 273 15 c 128,-1,18
 273 0 273 0 267 0 c 2,19,-1
 158 1 l 1,20,-1
 42 -2 l 2,21,22
 35 -2 35 -2 35 13 c 128,-1,23
 35 28 35 28 40 28 c 2,24,-1
 98 28 l 2,25,26
 110 28 110 28 110 45 c 2,27,-1
 110 280 l 2,28,29
 110 377 110 377 82 377 c 2,30,-1
 62 377 l 2,31,32
 54 377 54 377 54 392 c 128,-1,33
 54 407 54 407 60 407 c 0,34,35
 87 407 87 407 114 424.5 c 128,-1,36
 141 442 141 442 158.5 460 c 128,-1,37
 176 478 176 478 180 478 c 0,38,39
 194 478 194 478 194 466 c 2,0,-1
EndSplineSet
EndChar

StartChar: s
Encoding: 115 115 86
Width: 382
GlyphClass: 2
Flags: W
LayerCount: 2
Fore
SplineSet
299 20.5 m 128,-1,1
 249 -13 249 -13 185.5 -13 c 128,-1,2
 122 -13 122 -13 92 4 c 1,3,4
 92 -8 92 -8 90 -11 c 0,5,6
 88 -15 88 -15 78 -15 c 128,-1,7
 68 -15 68 -15 67 -7 c 0,8,9
 64 17 64 17 55.5 68 c 128,-1,10
 47 119 47 119 47 125.5 c 128,-1,11
 47 132 47 132 52.5 135 c 128,-1,12
 58 138 58 138 65 137.5 c 128,-1,13
 72 137 72 137 73 132 c 0,14,15
 107 19 107 19 193 19 c 0,16,17
 226 19 226 19 249.5 37.5 c 128,-1,18
 273 56 273 56 273 87.5 c 128,-1,19
 273 119 273 119 252 142.5 c 128,-1,20
 231 166 231 166 201 182 c 128,-1,21
 171 198 171 198 141 215 c 128,-1,22
 111 232 111 232 90 259.5 c 128,-1,23
 69 287 69 287 69 324 c 0,24,25
 69 383 69 383 112.5 416.5 c 128,-1,26
 156 450 156 450 222 450 c 0,27,28
 257 450 257 450 287 440 c 1,29,30
 283 456 283 456 285 459.5 c 128,-1,31
 287 463 287 463 295 463 c 128,-1,32
 303 463 303 463 306 461 c 128,-1,33
 309 459 309 459 312 447.5 c 128,-1,34
 315 436 315 436 318 418.5 c 128,-1,35
 321 401 321 401 327 374.5 c 128,-1,36
 333 348 333 348 334.5 341.5 c 128,-1,37
 336 335 336 335 332 332.5 c 128,-1,38
 328 330 328 330 319.5 330 c 128,-1,39
 311 330 311 330 308 338 c 0,40,41
 278 418 278 418 213 418 c 0,42,43
 181 418 181 418 162 399.5 c 128,-1,44
 143 381 143 381 143 352.5 c 128,-1,45
 143 324 143 324 164 303 c 128,-1,46
 185 282 185 282 215.5 267 c 128,-1,47
 246 252 246 252 276.5 234.5 c 128,-1,48
 307 217 307 217 328 186 c 128,-1,49
 349 155 349 155 349 113 c 0,50,0
 349 54 349 54 299 20.5 c 128,-1,1
EndSplineSet
EndChar

StartChar: t
Encoding: 116 116 87
Width: 338
GlyphClass: 2
Flags: W
LayerCount: 2
Fore
SplineSet
90 120 m 2,0,-1
 90 399 l 1,1,-1
 39 399 l 2,2,3
 29 399 29 399 29 413.5 c 128,-1,4
 29 428 29 428 37 429 c 0,5,6
 82 438 82 438 110 473 c 128,-1,7
 138 508 138 508 158 565 c 0,8,9
 160 572 160 572 170.5 572 c 128,-1,10
 181 572 181 572 181 560.5 c 128,-1,11
 181 549 181 549 178 510.5 c 128,-1,12
 175 472 175 472 175 437 c 1,13,-1
 299 437 l 2,14,15
 309 437 309 437 309 418 c 128,-1,16
 309 399 309 399 301 399 c 2,17,-1
 175 399 l 1,18,-1
 175 142 l 2,19,20
 175 93 175 93 192 70 c 128,-1,21
 209 47 209 47 249 47 c 0,22,23
 283 47 283 47 304 76 c 0,24,25
 312 86 312 86 316 86 c 0,26,27
 326 86 326 86 326 77 c 0,28,29
 326 50 326 50 291 17 c 128,-1,30
 256 -16 256 -16 203.5 -16 c 128,-1,31
 151 -16 151 -16 120.5 19 c 128,-1,32
 90 54 90 54 90 120 c 2,0,-1
EndSplineSet
EndChar

StartChar: u
Encoding: 117 117 88
Width: 565
GlyphClass: 2
Flags: W
LayerCount: 2
Fore
SplineSet
92 436 m 1,0,-1
 176 439 l 2,1,2
 186 439 186 439 186 431 c 0,3,4
 186 426 186 426 183 414 c 0,5,6
 178 396 178 396 178 332 c 2,7,-1
 178 223 l 2,8,9
 178 121 178 121 202.5 81.5 c 128,-1,10
 227 42 227 42 294 42 c 0,11,12
 324 42 324 42 350 58.5 c 128,-1,13
 376 75 376 75 391 103 c 1,14,-1
 391 319 l 2,15,16
 391 407 391 407 370 407 c 2,17,-1
 321 407 l 1,18,19
 313 408 313 408 313 422.5 c 128,-1,20
 313 437 313 437 319 437 c 2,21,-1
 390 436 l 1,22,-1
 474 439 l 2,23,24
 484 439 484 439 484 431 c 0,25,26
 484 426 484 426 481 414 c 0,27,28
 476 396 476 396 476 332 c 2,29,-1
 476 146 l 2,30,31
 476 78 476 78 490 66 c 0,32,33
 498 60 498 60 511 60 c 1,34,-1
 545 63 l 2,35,36
 553 63 553 63 553 48.5 c 128,-1,37
 553 34 553 34 547 33 c 0,38,39
 480 22 480 22 436 -4 c 0,40,41
 422 -13 422 -13 418 -13 c 0,42,43
 394 -13 394 -13 394 60 c 1,44,-1
 392 60 l 1,45,46
 365 24 365 24 325 5.5 c 128,-1,47
 285 -13 285 -13 249 -13 c 0,48,49
 93 -13 93 -13 93 179 c 2,50,-1
 93 319 l 2,51,52
 93 407 93 407 72 407 c 2,53,-1
 23 407 l 1,54,55
 15 408 15 408 15 422.5 c 128,-1,56
 15 437 15 437 21 437 c 2,57,-1
 92 436 l 1,0,-1
EndSplineSet
EndChar

StartChar: v
Encoding: 118 118 89
Width: 461
GlyphClass: 2
Flags: W
LayerCount: 2
Fore
SplineSet
386 436 m 1,0,-1
 459 438 l 2,1,2
 466 438 466 438 466 425 c 128,-1,3
 466 412 466 412 459 412 c 2,4,-1
 433 412 l 2,5,6
 422 412 422 412 417 403 c 0,7,8
 389 357 389 357 329.5 200.5 c 128,-1,9
 270 44 270 44 253 -14 c 1,10,11
 249 -23 249 -23 233.5 -23 c 128,-1,12
 218 -23 218 -23 214 -13 c 1,13,14
 191 80 191 80 51 373 c 0,15,16
 39 397 39 397 29 404 c 128,-1,17
 19 411 19 411 -2 411 c 0,18,19
 -8 411 -8 411 -8 424.5 c 128,-1,20
 -8 438 -8 438 -2 438 c 2,21,-1
 93 436 l 1,22,23
 93 436 93 436 201 438 c 0,24,25
 207 438 207 438 207 425 c 128,-1,26
 207 412 207 412 201 412 c 2,27,-1
 153 412 l 2,28,29
 142 412 142 412 142 403 c 0,30,31
 142 398 142 398 162 346 c 0,32,33
 233 160 233 160 256 94 c 1,34,35
 274 156 274 156 299 227 c 128,-1,36
 324 298 324 298 336.5 336 c 128,-1,37
 349 374 349 374 349 392.5 c 128,-1,38
 349 411 349 411 337 411 c 2,39,-1
 296 411 l 2,40,41
 288 411 288 411 288 424.5 c 128,-1,42
 288 438 288 438 294 438 c 2,43,-1
 386 436 l 1,0,-1
EndSplineSet
EndChar

StartChar: w
Encoding: 119 119 90
Width: 703
GlyphClass: 2
Flags: W
LayerCount: 2
Fore
SplineSet
629 436 m 1,0,-1
 702 438 l 2,1,2
 709 438 709 438 709 425 c 128,-1,3
 709 412 709 412 702 412 c 2,4,-1
 676 412 l 2,5,6
 665 412 665 412 660 403 c 0,7,8
 632 357 632 357 572.5 200.5 c 128,-1,9
 513 44 513 44 496 -14 c 1,10,11
 492 -23 492 -23 476.5 -23 c 128,-1,12
 461 -23 461 -23 457 -13 c 1,13,14
 437 64 437 64 354 261 c 1,15,16
 278 71 278 71 253 -14 c 1,17,18
 249 -23 249 -23 233.5 -23 c 128,-1,19
 218 -23 218 -23 214 -13 c 1,20,21
 191 80 191 80 51 373 c 0,22,23
 39 397 39 397 29 404 c 128,-1,24
 19 411 19 411 -2 411 c 0,25,26
 -8 411 -8 411 -8 424.5 c 128,-1,27
 -8 438 -8 438 -2 438 c 2,28,-1
 93 436 l 1,29,-1
 186 438 l 2,30,31
 192 438 192 438 192 425 c 128,-1,32
 192 412 192 412 186 412 c 2,33,-1
 153 412 l 2,34,35
 142 412 142 412 142 403 c 0,36,37
 142 398 142 398 162 346 c 0,38,39
 233 160 233 160 256 94 c 1,40,41
 271 146 271 146 330 315 c 1,42,43
 297 393 297 393 284.5 402 c 128,-1,44
 272 411 272 411 251 411 c 0,45,46
 245 411 245 411 245 424.5 c 128,-1,47
 245 438 245 438 251 438 c 2,48,-1
 346 436 l 1,49,-1
 454 438 l 2,50,51
 460 438 460 438 460 425 c 128,-1,52
 460 412 460 412 454 412 c 2,53,-1
 406 412 l 2,54,55
 395 412 395 412 395 403 c 0,56,57
 395 395 395 395 440 265 c 128,-1,58
 485 135 485 135 499 94 c 1,59,60
 517 156 517 156 542 227 c 128,-1,61
 567 298 567 298 579.5 336 c 128,-1,62
 592 374 592 374 592 392.5 c 128,-1,63
 592 411 592 411 580 411 c 2,64,-1
 539 411 l 2,65,66
 532 411 532 411 532 424.5 c 128,-1,67
 532 438 532 438 537 438 c 2,68,-1
 629 436 l 1,0,-1
EndSplineSet
EndChar

StartChar: x
Encoding: 120 120 91
Width: 550
GlyphClass: 2
Flags: W
LayerCount: 2
Fore
SplineSet
438 436 m 1,0,-1
 516 438 l 2,1,2
 523 438 523 438 523 425 c 128,-1,3
 523 412 523 412 516 412 c 2,4,-1
 476 412 l 2,5,6
 467 412 467 412 460 405 c 128,-1,7
 453 398 453 398 313 242 c 1,8,9
 442 77 442 77 464.5 53.5 c 128,-1,10
 487 30 487 30 495 30 c 2,11,-1
 528 30 l 2,12,13
 536 30 536 30 536 15 c 128,-1,14
 536 0 536 0 528 0 c 2,15,-1
 421 1 l 1,16,-1
 293 -1 l 2,17,18
 287 -1 287 -1 287 13.5 c 128,-1,19
 287 28 287 28 293 28 c 2,20,-1
 344 28 l 2,21,22
 356 28 356 28 356 37 c 0,23,24
 356 59 356 59 296 136 c 0,25,26
 267 173 267 173 260 182 c 1,27,28
 183 91 183 91 174.5 80.5 c 128,-1,29
 166 70 166 70 158 56 c 0,30,31
 145 36 145 36 148 30 c 1,32,-1
 198 30 l 2,33,34
 205 30 205 30 205 15 c 128,-1,35
 205 0 205 0 198 0 c 2,36,-1
 107 1 l 1,37,-1
 20 -1 l 2,38,39
 14 -1 14 -1 14 13.5 c 128,-1,40
 14 28 14 28 20 28 c 2,41,-1
 52 28 l 2,42,43
 67 28 67 28 77 38 c 0,44,45
 137 101 137 101 236 211 c 1,46,47
 151 318 151 318 96 385 c 1,48,49
 73 411 73 411 52 411 c 2,50,-1
 32 411 l 2,51,52
 26 411 26 411 26 424.5 c 128,-1,53
 26 438 26 438 32 438 c 2,54,-1
 140 436 l 1,55,-1
 260 438 l 2,56,57
 266 438 266 438 266 425 c 128,-1,58
 266 412 266 412 260 412 c 2,59,-1
 200 412 l 2,60,61
 192 412 192 412 192 403 c 128,-1,62
 192 394 192 394 290 272 c 1,63,64
 362 354 362 354 374 375.5 c 128,-1,65
 386 397 386 397 386 404 c 128,-1,66
 386 411 386 411 381 411 c 2,67,-1
 343 411 l 2,68,69
 338 411 338 411 338 424.5 c 128,-1,70
 338 438 338 438 343 438 c 2,71,-1
 438 436 l 1,0,-1
EndSplineSet
EndChar

StartChar: y
Encoding: 121 121 92
Width: 470
GlyphClass: 2
Flags: W
LayerCount: 2
Fore
SplineSet
393 436 m 1,0,-1
 466 438 l 2,1,2
 473 438 473 438 473 425 c 128,-1,3
 473 412 473 412 466 412 c 2,4,-1
 441 412 l 2,5,6
 429 412 429 412 422 398 c 0,7,8
 376 310 376 310 315 139 c 128,-1,9
 254 -32 254 -32 242 -63 c 0,10,11
 146 -311 146 -311 18 -311 c 0,12,13
 -28 -311 -28 -311 -44 -286 c 0,14,15
 -48 -278 -48 -278 -48 -263 c 128,-1,16
 -48 -248 -48 -248 -25 -221 c 1,17,18
 4 -241 4 -241 40.5 -241 c 128,-1,19
 77 -241 77 -241 118.5 -194.5 c 128,-1,20
 160 -148 160 -148 184 -95.5 c 128,-1,21
 208 -43 208 -43 208 -17 c 128,-1,22
 208 9 208 9 198 45.5 c 128,-1,23
 188 82 188 82 168 131 c 128,-1,24
 148 180 148 180 133 214.5 c 128,-1,25
 118 249 118 249 91.5 305 c 128,-1,26
 65 361 65 361 56.5 379.5 c 128,-1,27
 48 398 48 398 38 404.5 c 128,-1,28
 28 411 28 411 5 411 c 0,29,30
 -1 411 -1 411 -1 424.5 c 128,-1,31
 -1 438 -1 438 5 438 c 2,32,-1
 100 436 l 1,33,-1
 208 438 l 2,34,35
 214 438 214 438 214 425 c 128,-1,36
 214 412 214 412 208 412 c 2,37,-1
 163 412 l 2,38,39
 150 412 150 412 150 404.5 c 128,-1,40
 150 397 150 397 165.5 356.5 c 128,-1,41
 181 316 181 316 210.5 239 c 128,-1,42
 240 162 240 162 263 94 c 1,43,44
 280 152 280 152 305.5 223.5 c 128,-1,45
 331 295 331 295 344 335 c 128,-1,46
 357 375 357 375 357 393 c 128,-1,47
 357 411 357 411 344 411 c 2,48,-1
 297 411 l 2,49,50
 292 411 292 411 292 424.5 c 128,-1,51
 292 438 292 438 297 438 c 2,52,-1
 393 436 l 1,0,-1
EndSplineSet
EndChar

StartChar: z
Encoding: 122 122 93
Width: 454
GlyphClass: 2
Flags: W
LayerCount: 2
Fore
SplineSet
401 -13 m 0,0,1
 401 -20 401 -20 387.5 -20 c 128,-1,2
 374 -20 374 -20 374 -14.5 c 128,-1,3
 374 -9 374 -9 367 -6.5 c 128,-1,4
 360 -4 360 -4 324 -2 c 0,5,6
 264 0 264 0 41 0 c 0,7,8
 35 0 35 0 35 9 c 128,-1,9
 35 18 35 18 41 23 c 1,10,11
 52 28 52 28 114.5 124 c 128,-1,12
 177 220 177 220 234 314 c 2,13,-1
 291 407 l 1,14,-1
 149 407 l 2,15,16
 107 407 107 407 80 329 c 0,17,18
 78 324 78 324 64.5 324 c 128,-1,19
 51 324 51 324 51 329 c 0,20,21
 57 377 57 377 81 449 c 0,22,23
 83 456 83 456 97.5 456 c 128,-1,24
 112 456 112 456 112 447 c 128,-1,25
 112 438 112 438 116 437 c 1,26,-1
 400 437 l 2,27,28
 407 437 407 437 407 426.5 c 128,-1,29
 407 416 407 416 400.5 413.5 c 128,-1,30
 394 411 394 411 339 325 c 128,-1,31
 284 239 284 239 224 143.5 c 128,-1,32
 164 48 164 48 150 31 c 1,33,-1
 321 31 l 2,34,35
 361 31 361 31 378 68 c 1,36,37
 386 88 386 88 391 119 c 0,38,39
 392 126 392 126 406.5 126 c 128,-1,40
 421 126 421 126 421 119 c 1,41,42
 414 100 414 100 407.5 54.5 c 128,-1,43
 401 9 401 9 401 -13 c 0,0,1
EndSplineSet
EndChar

StartChar: braceleft
Encoding: 123 123 94
Width: 336
GlyphClass: 2
Flags: W
LayerCount: 2
Fore
SplineSet
226 637 m 1,0,-1
 234 428 l 1,1,2
 234 361 234 361 202 317 c 128,-1,3
 170 273 170 273 101 270 c 1,4,-1
 101 265 l 1,5,6
 170 262 170 262 202 218 c 128,-1,7
 234 174 234 174 234 107 c 1,8,-1
 226 -148 l 1,9,10
 226 -190 226 -190 228 -214 c 128,-1,11
 230 -238 230 -238 241 -269 c 128,-1,12
 252 -300 252 -300 273 -316 c 0,13,14
 324 -355 324 -355 431 -355 c 0,15,16
 456 -355 456 -355 456 -381 c 128,-1,17
 456 -407 456 -407 446 -407 c 0,18,19
 296 -407 296 -407 226.5 -332.5 c 128,-1,20
 157 -258 157 -258 157 -146 c 1,21,-1
 163 88 l 1,22,23
 163 163 163 163 138 202.5 c 128,-1,24
 113 242 113 242 42 242 c 1,25,-1
 13 240 l 2,26,27
 -1 240 -1 240 -1 264 c 0,28,29
 -1 275 -1 275 3 285 c 128,-1,30
 7 295 7 295 13 295 c 0,31,32
 29 293 29 293 42 293 c 0,33,34
 113 293 113 293 138 332.5 c 128,-1,35
 163 372 163 372 163 447 c 1,36,-1
 157 635 l 1,37,38
 157 747 157 747 226.5 821.5 c 128,-1,39
 296 896 296 896 446 896 c 0,40,41
 456 896 456 896 456 870 c 128,-1,42
 456 844 456 844 431 844 c 0,43,44
 324 844 324 844 273 805 c 0,45,46
 252 789 252 789 241 758 c 128,-1,47
 230 727 230 727 228 703 c 128,-1,48
 226 679 226 679 226 637 c 1,0,-1
EndSplineSet
EndChar

StartChar: bar
Encoding: 124 124 95
Width: 204
GlyphClass: 2
Flags: W
LayerCount: 2
Fore
SplineSet
96 -151 m 0,0,1
 89 -151 89 -151 80 -147 c 1,2,-1
 80 721 l 2,3,4
 80 753 80 753 107 753 c 1,5,-1
 123 749 l 1,6,-1
 120 -121 l 2,7,8
 120 -151 120 -151 96 -151 c 0,0,1
EndSplineSet
EndChar

StartChar: braceright
Encoding: 125 125 96
Width: 336
GlyphClass: 2
Flags: W
LayerCount: 2
Fore
SplineSet
110 -148 m 1,0,-1
 102 107 l 1,1,2
 102 174 102 174 134 218 c 128,-1,3
 166 262 166 262 235 265 c 1,4,-1
 235 270 l 1,5,6
 166 273 166 273 134 317 c 128,-1,7
 102 361 102 361 102 428 c 1,8,-1
 110 637 l 1,9,10
 110 679 110 679 108 703 c 128,-1,11
 106 727 106 727 95 758 c 128,-1,12
 84 789 84 789 63 805 c 0,13,14
 12 844 12 844 -95 844 c 0,15,16
 -120 844 -120 844 -120 870 c 128,-1,17
 -120 896 -120 896 -110 896 c 0,18,19
 40 896 40 896 109.5 821.5 c 128,-1,20
 179 747 179 747 179 635 c 1,21,-1
 173 447 l 1,22,23
 173 372 173 372 198 332.5 c 128,-1,24
 223 293 223 293 294 293 c 1,25,-1
 323 295 l 2,26,27
 329 295 329 295 333 285 c 128,-1,28
 337 275 337 275 337 264 c 0,29,30
 337 240 337 240 323 240 c 1,31,32
 307 242 307 242 294 242 c 0,33,34
 223 242 223 242 198 202.5 c 128,-1,35
 173 163 173 163 173 88 c 1,36,-1
 179 -146 l 1,37,38
 179 -258 179 -258 109.5 -332.5 c 128,-1,39
 40 -407 40 -407 -110 -407 c 0,40,41
 -120 -407 -120 -407 -120 -381 c 128,-1,42
 -120 -355 -120 -355 -95 -355 c 0,43,44
 12 -355 12 -355 63 -316 c 0,45,46
 84 -300 84 -300 95 -269 c 128,-1,47
 106 -238 106 -238 108 -214 c 128,-1,48
 110 -190 110 -190 110 -148 c 1,0,-1
EndSplineSet
EndChar

StartChar: asciitilde
Encoding: 126 126 97
Width: 458
GlyphClass: 2
Flags: W
LayerCount: 2
Fore
SplineSet
176 310 m 1,0,-1
 269 302 l 1,1,2
 311 302 311 302 340.5 322.5 c 128,-1,3
 370 343 370 343 378 386 c 0,4,5
 379 394 379 394 389 394 c 0,6,7
 404 394 404 394 404 378 c 0,8,9
 404 320 404 320 369.5 280.5 c 128,-1,10
 335 241 335 241 274 241 c 0,11,12
 256 241 256 241 222 247 c 128,-1,13
 188 253 188 253 173 253 c 0,14,15
 132 253 132 253 101.5 230.5 c 128,-1,16
 71 208 71 208 63 166 c 0,17,18
 61 158 61 158 53.5 158 c 128,-1,19
 46 158 46 158 41 163 c 128,-1,20
 36 168 36 168 36 177 c 0,21,22
 38 237 38 237 76 273.5 c 128,-1,23
 114 310 114 310 176 310 c 1,0,-1
EndSplineSet
EndChar

StartChar: exclamdown
Encoding: 161 161 98
Width: 320
GlyphClass: 2
Flags: W
LayerCount: 2
Fore
SplineSet
132 256 m 1,0,1
 141 265 141 265 150 265 c 0,2,3
 182 265 182 265 182 230 c 2,4,-1
 182 154 l 2,5,6
 182 -100 182 -100 235 -222 c 1,7,8
 191 -250 191 -250 163 -250 c 0,9,10
 110 -250 110 -250 110 -133 c 0,11,12
 110 -91 110 -91 121 39 c 128,-1,13
 132 169 132 169 132 209.5 c 128,-1,14
 132 250 132 250 132 256 c 1,0,1
200.5 350.5 m 128,-1,16
 184 333 184 333 160.5 333 c 128,-1,17
 137 333 137 333 120 349.5 c 128,-1,18
 103 366 103 366 103 389 c 128,-1,19
 103 412 103 412 118.5 429.5 c 128,-1,20
 134 447 134 447 157.5 447 c 128,-1,21
 181 447 181 447 199 431.5 c 128,-1,22
 217 416 217 416 217 392 c 128,-1,15
 217 368 217 368 200.5 350.5 c 128,-1,16
EndSplineSet
EndChar

StartChar: cent
Encoding: 162 162 99
Width: 536
GlyphClass: 2
Flags: W
LayerCount: 2
Fore
SplineSet
426 557 m 128,-1,1
 457 538 457 538 457 509.5 c 128,-1,2
 457 481 457 481 419 465 c 1,3,4
 379 504 379 504 339 519 c 1,5,-1
 290 189 l 1,6,7
 307 185 307 185 337 185 c 128,-1,8
 367 185 367 185 397.5 195.5 c 128,-1,9
 428 206 428 206 444.5 217 c 128,-1,10
 461 228 461 228 464 228 c 0,11,12
 476 228 476 228 476 216 c 128,-1,13
 476 204 476 204 454 180.5 c 128,-1,14
 432 157 432 157 388.5 135 c 128,-1,15
 345 113 345 113 298 113 c 2,16,-1
 278 113 l 1,17,18
 267 36 267 36 261 -1 c 0,19,20
 259 -13 259 -13 251 -19 c 128,-1,21
 243 -25 243 -25 236 -25 c 128,-1,22
 229 -25 229 -25 219 -20 c 1,23,-1
 239 120 l 1,24,25
 166 137 166 137 125.5 192 c 128,-1,26
 85 247 85 247 85 314 c 0,27,28
 85 410 85 410 149 482 c 128,-1,29
 213 554 213 554 303 571 c 1,30,-1
 321 700 l 2,31,32
 325 727 325 727 345 727 c 0,33,34
 355 727 355 727 369 720 c 1,35,36
 360 660 360 660 348 576 c 1,37,0
 395 576 395 576 426 557 c 128,-1,1
169 367 m 0,38,39
 169 251 169 251 251 205 c 1,40,-1
 296 527 l 1,41,-1
 293 527 l 2,42,43
 241 527 241 527 205 484.5 c 128,-1,44
 169 442 169 442 169 367 c 0,38,39
EndSplineSet
EndChar

StartChar: sterling
Encoding: 163 163 100
Width: 529
GlyphClass: 2
Flags: W
LayerCount: 2
Fore
SplineSet
230 351 m 1,0,-1
 340 364 l 2,1,2
 344 364 344 364 344 353 c 2,3,-1
 344 337 l 2,4,5
 344 333 344 333 346 326 c 0,6,7
 348 312 348 312 339 312 c 0,8,9
 326 312 326 312 293 316 c 128,-1,10
 260 320 260 320 240 321 c 1,11,12
 252 273 252 273 252 241 c 0,13,14
 252 167 252 167 232 115 c 1,15,16
 253 110 253 110 286 98 c 0,17,18
 358 74 358 74 428 74 c 128,-1,19
 498 74 498 74 524 130 c 0,20,21
 528 139 528 139 535.5 136 c 128,-1,22
 543 133 543 133 543 129 c 128,-1,23
 543 125 543 125 542 122 c 0,24,25
 515 52 515 52 488 25 c 0,26,27
 451 -13 451 -13 404.5 -13 c 128,-1,28
 358 -13 358 -13 326.5 -1 c 128,-1,29
 295 11 295 11 259.5 33 c 128,-1,30
 224 55 224 55 206 63 c 1,31,32
 181 24 181 24 149 5.5 c 128,-1,33
 117 -13 117 -13 89 -13 c 128,-1,34
 61 -13 61 -13 46 0.5 c 128,-1,35
 31 14 31 14 31 34 c 0,36,37
 31 71 31 71 64 97 c 128,-1,38
 97 123 97 123 162 123 c 1,39,-1
 174 122 l 1,40,41
 177 139 177 139 177 162.5 c 128,-1,42
 177 186 177 186 168.5 218 c 128,-1,43
 160 250 160 250 152 267.5 c 128,-1,44
 144 285 144 285 128 319 c 1,45,-1
 70 317 l 2,46,47
 65 317 65 317 62.5 325.5 c 128,-1,48
 60 334 60 334 62.5 342.5 c 128,-1,49
 65 351 65 351 71.5 351 c 128,-1,50
 78 351 78 351 92 349.5 c 128,-1,51
 106 348 106 348 115 348 c 1,52,53
 84 415 84 415 84 472 c 0,54,55
 84 558 84 558 146 621 c 128,-1,56
 208 684 208 684 295 684 c 128,-1,57
 382 684 382 684 458 611 c 1,58,59
 465 621 465 621 471 628 c 1,60,61
 483 636 483 636 489.5 627.5 c 128,-1,62
 496 619 496 619 494 616 c 0,63,64
 455 552 455 552 440 472 c 1,65,66
 438 468 438 468 430.5 468 c 128,-1,67
 423 468 423 468 415.5 473.5 c 128,-1,68
 408 479 408 479 410 485 c 0,69,70
 422 511 422 511 422 540 c 1,71,72
 419 551 419 551 406 570 c 128,-1,73
 393 589 393 589 380 602 c 0,74,75
 347 635 347 635 296 635 c 128,-1,76
 245 635 245 635 213.5 599 c 128,-1,77
 182 563 182 563 182 503 c 0,78,79
 182 465 182 465 203.5 414.5 c 128,-1,80
 225 364 225 364 230 351 c 1,0,-1
88 21 m 0,81,82
 133 21 133 21 160 77 c 1,83,84
 146 79 146 79 138 79 c 0,85,86
 66 79 66 79 66 40 c 0,87,88
 66 21 66 21 88 21 c 0,81,82
EndSplineSet
EndChar

StartChar: currency
Encoding: 164 164 101
Width: 557
GlyphClass: 2
Flags: W
LayerCount: 2
Fore
SplineSet
60 345 m 128,-1,1
 60 426 60 426 105 488 c 1,2,-1
 49 533 l 2,3,4
 29 550 29 550 29 572 c 128,-1,5
 29 594 29 594 62 608 c 1,6,7
 75 589 75 589 121 536 c 2,8,-1
 135 520 l 1,9,10
 196 573 196 573 278 573 c 128,-1,11
 360 573 360 573 421 520 c 1,12,13
 476 582 476 582 494 608 c 1,14,15
 527 594 527 594 527 572 c 128,-1,16
 527 550 527 550 507 533 c 2,17,-1
 451 488 l 1,18,19
 496 426 496 426 496 345 c 128,-1,20
 496 264 496 264 451 202 c 1,21,-1
 507 157 l 2,22,23
 527 140 527 140 527 118 c 128,-1,24
 527 96 527 96 494 82 c 1,25,26
 481 101 481 101 435 154 c 2,27,-1
 421 170 l 1,28,29
 360 117 360 117 278 117 c 128,-1,30
 196 117 196 117 135 170 c 1,31,32
 80 108 80 108 62 82 c 1,33,34
 29 96 29 96 29 118 c 128,-1,35
 29 140 29 140 49 157 c 2,36,-1
 105 202 l 1,37,0
 60 264 60 264 60 345 c 128,-1,1
388 222.5 m 128,-1,39
 435 265 435 265 435 346 c 128,-1,40
 435 427 435 427 388.5 468.5 c 128,-1,41
 342 510 342 510 278 510 c 128,-1,42
 214 510 214 510 167.5 468.5 c 128,-1,43
 121 427 121 427 121 346 c 128,-1,44
 121 265 121 265 168 222.5 c 128,-1,45
 215 180 215 180 278 180 c 128,-1,38
 341 180 341 180 388 222.5 c 128,-1,39
EndSplineSet
EndChar

StartChar: yen
Encoding: 165 165 102
Width: 606
GlyphClass: 2
Flags: W
LayerCount: 2
Fore
SplineSet
570 671 m 1,0,-1
 681 673 l 2,1,2
 691 673 691 673 691 656.5 c 128,-1,3
 691 640 691 640 681 640 c 2,4,-1
 656 640 l 2,5,6
 631 640 631 640 613 624 c 0,7,8
 556 577 556 577 478 493.5 c 128,-1,9
 400 410 400 410 369 358 c 1,10,-1
 481 360 l 2,11,12
 508 360 508 360 518 350.5 c 128,-1,13
 528 341 528 341 528 329.5 c 128,-1,14
 528 318 528 318 528 314 c 1,15,-1
 355 314 l 1,16,-1
 355 194 l 1,17,-1
 481 196 l 2,18,19
 508 196 508 196 518 186.5 c 128,-1,20
 528 177 528 177 528 165.5 c 128,-1,21
 528 154 528 154 528 150 c 1,22,-1
 355 150 l 1,23,-1
 355 105 l 2,24,25
 355 33 355 33 376 33 c 2,26,-1
 434 33 l 2,27,28
 442 33 442 33 442 16.5 c 128,-1,29
 442 0 442 0 434 0 c 2,30,-1
 310 1 l 1,31,-1
 172 -2 l 2,32,33
 164 -2 164 -2 164 15 c 128,-1,34
 164 32 164 32 172 32 c 2,35,-1
 215 32 l 2,36,37
 240 32 240 32 248 41.5 c 128,-1,38
 256 51 256 51 256 78 c 2,39,-1
 256 150 l 1,40,-1
 112 150 l 2,41,42
 95 150 95 150 86 160 c 128,-1,43
 77 170 77 170 76 180 c 2,44,-1
 75 191 l 1,45,46
 183 191 183 191 256 192 c 1,47,-1
 256 302 l 2,48,49
 256 306 256 306 253 314 c 1,50,-1
 112 314 l 2,51,52
 95 314 95 314 86 324 c 128,-1,53
 77 334 77 334 76 344 c 2,54,-1
 75 355 l 1,55,56
 166 355 166 355 230 356 c 1,57,58
 187 422 187 422 55 577 c 0,59,60
 22 616 22 616 4 628.5 c 128,-1,61
 -14 641 -14 641 -29 641 c 2,62,-1
 -61 641 l 2,63,64
 -68 641 -68 641 -68 657 c 128,-1,65
 -68 673 -68 673 -61 673 c 2,66,-1
 63 671 l 1,67,-1
 204 673 l 2,68,69
 213 673 213 673 213 656.5 c 128,-1,70
 213 640 213 640 204 640 c 2,71,-1
 134 640 l 1,72,73
 134 636 134 636 170 593 c 0,74,75
 286 457 286 457 324 379 c 1,76,-1
 327 379 l 1,77,78
 348 415 348 415 416.5 500.5 c 128,-1,79
 485 586 485 586 493.5 603 c 128,-1,80
 502 620 502 620 502 629 c 0,81,82
 502 641 502 641 491 641 c 2,83,-1
 452 641 l 2,84,85
 443 641 443 641 443 657 c 128,-1,86
 443 673 443 673 452 673 c 2,87,-1
 570 671 l 1,0,-1
EndSplineSet
EndChar

StartChar: brokenbar
Encoding: 166 166 103
Width: 204
GlyphClass: 2
Flags: W
LayerCount: 2
Fore
SplineSet
96 -151 m 0,0,1
 89 -151 89 -151 80 -147 c 1,2,-1
 79 210 l 2,3,4
 79 222 79 222 89.5 227.5 c 128,-1,5
 100 233 100 233 110 232 c 1,6,-1
 120 232 l 1,7,-1
 120 -121 l 2,8,9
 120 -151 120 -151 96 -151 c 0,0,1
121 384 m 2,10,11
 121 367 121 367 94 367 c 0,12,13
 92 367 92 367 90 367 c 2,14,-1
 80 368 l 1,15,-1
 80 721 l 2,16,17
 80 753 80 753 107 753 c 1,18,-1
 123 749 l 1,19,-1
 121 384 l 2,10,11
EndSplineSet
EndChar

StartChar: section
Encoding: 167 167 104
Width: 524
GlyphClass: 2
Flags: W
LayerCount: 2
Fore
SplineSet
64 337 m 128,-1,1
 40 390 40 390 40 455 c 128,-1,2
 40 520 40 520 81.5 578.5 c 128,-1,3
 123 637 123 637 220 664 c 1,4,5
 278 714 278 714 339.5 714 c 128,-1,6
 401 714 401 714 434.5 691 c 128,-1,7
 468 668 468 668 468 633.5 c 128,-1,8
 468 599 468 599 420 573 c 1,9,10
 372 664 372 664 304 664 c 0,11,12
 243 664 243 664 243 577 c 0,13,14
 243 503 243 503 334 384 c 0,15,16
 372 335 372 335 410 282 c 128,-1,17
 448 229 448 229 474.5 165 c 128,-1,18
 501 101 501 101 501 35 c 128,-1,19
 501 -31 501 -31 452.5 -84.5 c 128,-1,20
 404 -138 404 -138 293 -161 c 1,21,22
 277 -177 277 -177 244 -190.5 c 128,-1,23
 211 -204 211 -204 179 -204 c 0,24,25
 116 -204 116 -204 80.5 -176.5 c 128,-1,26
 45 -149 45 -149 45 -111.5 c 128,-1,27
 45 -74 45 -74 88 -46 c 1,28,29
 103 -84 103 -84 140.5 -114 c 128,-1,30
 178 -144 178 -144 208 -144 c 128,-1,31
 238 -144 238 -144 256.5 -122.5 c 128,-1,32
 275 -101 275 -101 275 -50 c 128,-1,33
 275 1 275 1 251 56 c 128,-1,34
 227 111 227 111 192.5 154.5 c 128,-1,35
 158 198 158 198 123 241 c 128,-1,0
 88 284 88 284 64 337 c 128,-1,1
189 314 m 0,36,37
 223 269 223 269 257 220.5 c 128,-1,38
 291 172 291 172 315 111 c 128,-1,39
 339 50 339 50 339 -10.5 c 128,-1,40
 339 -71 339 -71 315 -122 c 1,41,42
 420 -86 420 -86 420 23 c 0,43,44
 420 130 420 130 338 251 c 0,45,46
 304 301 304 301 270 349 c 0,47,48
 188 465 188 465 188 553 c 0,49,50
 188 596 188 596 200 622 c 1,51,52
 107 570 107 570 107 496.5 c 128,-1,53
 107 423 107 423 189 314 c 0,36,37
EndSplineSet
EndChar

StartChar: dieresis
Encoding: 168 168 105
Width: 380
GlyphClass: 2
Flags: W
LayerCount: 2
Fore
SplineSet
117 555 m 128,-1,1
 95 555 95 555 80.5 570.5 c 128,-1,2
 66 586 66 586 66 607.5 c 128,-1,3
 66 629 66 629 81 643 c 128,-1,4
 96 657 96 657 116.5 657 c 128,-1,5
 137 657 137 657 152.5 642.5 c 128,-1,6
 168 628 168 628 168 607 c 128,-1,7
 168 586 168 586 153.5 570.5 c 128,-1,0
 139 555 139 555 117 555 c 128,-1,1
284 555 m 128,-1,9
 262 555 262 555 247.5 570.5 c 128,-1,10
 233 586 233 586 233 607 c 128,-1,11
 233 628 233 628 248.5 642.5 c 128,-1,12
 264 657 264 657 284 657 c 128,-1,13
 304 657 304 657 319.5 642.5 c 128,-1,14
 335 628 335 628 335 607 c 128,-1,15
 335 586 335 586 320.5 570.5 c 128,-1,8
 306 555 306 555 284 555 c 128,-1,9
EndSplineSet
EndChar

StartChar: copyright
Encoding: 169 169 106
Width: 740
GlyphClass: 2
Flags: W
LayerCount: 2
Fore
SplineSet
705 329 m 128,-1,1
 705 187 705 187 606.5 87 c 128,-1,2
 508 -13 508 -13 369 -13 c 128,-1,3
 230 -13 230 -13 132.5 87.5 c 128,-1,4
 35 188 35 188 35 328.5 c 128,-1,5
 35 469 35 469 132 570.5 c 128,-1,6
 229 672 229 672 368 672 c 128,-1,7
 507 672 507 672 606 571.5 c 128,-1,0
 705 471 705 471 705 329 c 128,-1,1
575.5 118 m 128,-1,9
 661 205 661 205 661 329.5 c 128,-1,10
 661 454 661 454 575.5 541 c 128,-1,11
 490 628 490 628 368 628 c 128,-1,12
 246 628 246 628 162.5 540 c 128,-1,13
 79 452 79 452 79 328.5 c 128,-1,14
 79 205 79 205 163 118 c 128,-1,15
 247 31 247 31 368.5 31 c 128,-1,8
 490 31 490 31 575.5 118 c 128,-1,9
234.5 191.5 m 128,-1,17
 170 239 170 239 170 326 c 128,-1,18
 170 413 170 413 238.5 467 c 128,-1,19
 307 521 307 521 399 521 c 0,20,21
 444 521 444 521 486 501 c 1,22,-1
 486 517 l 2,23,24
 486 522 486 522 495.5 522 c 128,-1,25
 505 522 505 522 505 517 c 0,26,27
 505 471 505 471 510 428 c 0,28,29
 511 426 511 426 507.5 424 c 128,-1,30
 504 422 504 422 497 422 c 128,-1,31
 490 422 490 422 488 428 c 1,32,-1
 485 454 l 1,33,34
 443 492 443 492 386 492 c 128,-1,35
 329 492 329 492 290 449 c 128,-1,36
 251 406 251 406 251 332 c 128,-1,37
 251 258 251 258 292 216 c 128,-1,38
 333 174 333 174 391.5 174 c 128,-1,39
 450 174 450 174 495 206 c 1,40,-1
 499 231 l 2,41,42
 500 237 500 237 510.5 237 c 128,-1,43
 521 237 521 237 521 231 c 1,44,45
 516 207 516 207 516 148 c 0,46,47
 516 144 516 144 505.5 144 c 128,-1,48
 495 144 495 144 495 148 c 2,49,-1
 495 165 l 1,50,51
 440 144 440 144 393 144 c 0,52,16
 299 144 299 144 234.5 191.5 c 128,-1,17
EndSplineSet
EndChar

StartChar: ordfeminine
Encoding: 170 170 107
Width: 356
GlyphClass: 2
Flags: W
LayerCount: 2
Fore
SplineSet
247 612 m 1,0,1
 247 612 247 612 243 503 c 1,2,3
 243 466 243 466 263 466 c 0,4,5
 270 466 270 466 277 474.5 c 128,-1,6
 284 483 284 483 285 483 c 0,7,8
 291 483 291 483 291 471.5 c 128,-1,9
 291 460 291 460 277 445 c 128,-1,10
 263 430 263 430 243 430 c 128,-1,11
 223 430 223 430 215.5 442.5 c 128,-1,12
 208 455 208 455 208 470.5 c 128,-1,13
 208 486 208 486 208 490 c 1,14,-1
 203 490 l 1,15,16
 193 463 193 463 169 446 c 128,-1,17
 145 429 145 429 116 429 c 0,18,19
 65 429 65 429 65 471 c 0,20,21
 65 503 65 503 100 530 c 128,-1,22
 135 557 135 557 197 575 c 1,23,24
 197 640 197 640 178 652 c 0,25,26
 169 658 169 658 154 658 c 0,27,28
 113 658 113 658 113 593 c 1,29,30
 104 583 104 583 91 583 c 0,31,32
 64 583 64 583 64 610.5 c 128,-1,33
 64 638 64 638 95.5 660 c 128,-1,34
 127 682 127 682 160 682 c 0,35,36
 247 682 247 682 247 612 c 1,0,1
140 467 m 128,-1,38
 162 467 162 467 179.5 491.5 c 128,-1,39
 197 516 197 516 197 555 c 1,40,41
 161 548 161 548 139.5 528 c 128,-1,42
 118 508 118 508 118 487.5 c 128,-1,37
 118 467 118 467 140 467 c 128,-1,38
115 391 m 1,43,-1
 216 387 l 1,44,45
 256 387 256 387 293 397 c 1,46,47
 297 392 297 392 297 382 c 0,48,49
 297 359 297 359 271.5 349.5 c 128,-1,50
 246 340 246 340 216 340 c 1,51,-1
 108 345 l 1,52,53
 74 345 74 345 60 340 c 1,54,55
 53 352 53 352 53 360 c 0,56,57
 53 391 53 391 115 391 c 1,43,-1
EndSplineSet
EndChar

StartChar: guillemotleft
Encoding: 171 171 108
Width: 458
GlyphClass: 2
Flags: W
LayerCount: 2
Fore
SplineSet
222 383 m 1,0,1
 235 370 235 370 235 356 c 128,-1,2
 235 342 235 342 219.5 324 c 128,-1,3
 204 306 204 306 173.5 276 c 128,-1,4
 143 246 143 246 123 221 c 1,5,6
 143 196 143 196 173.5 166 c 128,-1,7
 204 136 204 136 219.5 118 c 128,-1,8
 235 100 235 100 235 86 c 128,-1,9
 235 72 235 72 222 59 c 1,10,11
 187 99 187 99 143 139.5 c 128,-1,12
 99 180 99 180 73 200 c 2,13,-1
 47 221 l 1,14,15
 143 293 143 293 222 383 c 1,0,1
382 383 m 1,16,17
 395 370 395 370 395 356 c 128,-1,18
 395 342 395 342 379.5 324 c 128,-1,19
 364 306 364 306 333.5 276 c 128,-1,20
 303 246 303 246 283 221 c 1,21,22
 303 196 303 196 333.5 166 c 128,-1,23
 364 136 364 136 379.5 118 c 128,-1,24
 395 100 395 100 395 86 c 128,-1,25
 395 72 395 72 382 59 c 1,26,27
 347 99 347 99 303 139.5 c 128,-1,28
 259 180 259 180 233 200 c 2,29,-1
 207 221 l 1,30,31
 303 293 303 293 382 383 c 1,16,17
EndSplineSet
EndChar

StartChar: logicalnot
Encoding: 172 172 109
Width: 520
GlyphClass: 2
Flags: W
LayerCount: 2
Fore
SplineSet
217 356 m 1,0,-1
 475 360 l 2,1,2
 488 360 488 360 490 347 c 1,3,4
 492 341 492 341 492 330 c 128,-1,5
 492 319 492 319 490 302 c 1,6,-1
 487 141 l 2,7,8
 487 124 487 124 476 116.5 c 128,-1,9
 465 109 465 109 459 109 c 128,-1,10
 453 109 453 109 452 110 c 1,11,-1
 440 110 l 1,12,-1
 445 317 l 1,13,14
 344 313 344 313 48 313 c 0,15,16
 31 313 31 313 22 323.5 c 128,-1,17
 13 334 13 334 12 345 c 2,18,-1
 11 356 l 1,19,-1
 217 356 l 1,0,-1
EndSplineSet
EndChar

StartChar: registered
Encoding: 174 174 110
Width: 740
GlyphClass: 2
Flags: W
LayerCount: 2
Fore
SplineSet
607.5 87.5 m 128,-1,1
 510 -13 510 -13 370.5 -13 c 128,-1,2
 231 -13 231 -13 133 87.5 c 128,-1,3
 35 188 35 188 35 329.5 c 128,-1,4
 35 471 35 471 133.5 571.5 c 128,-1,5
 232 672 232 672 371 672 c 128,-1,6
 510 672 510 672 607.5 571.5 c 128,-1,7
 705 471 705 471 705 329.5 c 128,-1,0
 705 188 705 188 607.5 87.5 c 128,-1,1
371 31 m 128,-1,9
 493 31 493 31 577 118 c 128,-1,10
 661 205 661 205 661 329.5 c 128,-1,11
 661 454 661 454 577 541 c 128,-1,12
 493 628 493 628 371 628 c 128,-1,13
 249 628 249 628 164 541 c 128,-1,14
 79 454 79 454 79 329.5 c 128,-1,15
 79 205 79 205 164 118 c 128,-1,8
 249 31 249 31 371 31 c 128,-1,9
213 532 m 2,16,-1
 278 531 l 1,17,-1
 352 531 l 2,18,19
 424 531 424 531 463.5 503.5 c 128,-1,20
 503 476 503 476 503 439 c 128,-1,21
 503 402 503 402 475.5 378 c 128,-1,22
 448 354 448 354 407 343 c 1,23,24
 444 279 444 279 487 230 c 128,-1,25
 530 181 530 181 563 181 c 0,26,27
 570 181 570 181 570 171 c 0,28,29
 570 158 570 158 529.5 158 c 128,-1,30
 489 158 489 158 464 172 c 128,-1,31
 439 186 439 186 418.5 216.5 c 128,-1,32
 398 247 398 247 369 291.5 c 128,-1,33
 340 336 340 336 335 339 c 1,34,35
 328 339 328 339 323 340 c 1,36,-1
 323 230 l 2,37,38
 323 184 323 184 335 184 c 2,39,-1
 367 184 l 2,40,41
 371 184 371 184 371 174 c 128,-1,42
 371 164 371 164 367 164 c 2,43,-1
 298 164 l 1,44,-1
 210 163 l 2,45,46
 206 163 206 163 206 173 c 128,-1,47
 206 183 206 183 210 183 c 2,48,-1
 234 183 l 2,49,50
 247 183 247 183 251 188 c 128,-1,51
 255 193 255 193 255 207 c 2,52,-1
 255 463 l 2,53,54
 255 510 255 510 245 510 c 2,55,-1
 213 510 l 2,56,57
 208 510 208 510 208 521 c 128,-1,58
 208 532 208 532 213 532 c 2,16,-1
411.5 381 m 128,-1,60
 432 400 432 400 432 431.5 c 128,-1,61
 432 463 432 463 411.5 484 c 128,-1,62
 391 505 391 505 345 505 c 0,63,64
 323 505 323 505 323 484 c 2,65,-1
 323 365 l 1,66,67
 340 362 340 362 348 362 c 0,68,59
 391 362 391 362 411.5 381 c 128,-1,60
EndSplineSet
EndChar

StartChar: macron
Encoding: 175 175 111
Width: 400
GlyphClass: 2
Flags: W
LayerCount: 2
Fore
SplineSet
280 627 m 2,0,1
 307 627 307 627 317 617.5 c 128,-1,2
 327 608 327 608 327 596.5 c 128,-1,3
 327 585 327 585 327 581 c 1,4,-1
 102 581 l 2,5,6
 85 581 85 581 76 591.5 c 128,-1,7
 67 602 67 602 66 612 c 2,8,-1
 65 622 l 1,9,-1
 280 627 l 2,0,1
EndSplineSet
EndChar

StartChar: degree
Encoding: 176 176 112
Width: 400
GlyphClass: 2
Flags: W
LayerCount: 2
Fore
SplineSet
288 635 m 128,-1,1
 325 598 325 598 325 546.5 c 128,-1,2
 325 495 325 495 288 458.5 c 128,-1,3
 251 422 251 422 199.5 422 c 128,-1,4
 148 422 148 422 111.5 458.5 c 128,-1,5
 75 495 75 495 75 547 c 128,-1,6
 75 599 75 599 111.5 635.5 c 128,-1,7
 148 672 148 672 199.5 672 c 128,-1,0
 251 672 251 672 288 635 c 128,-1,1
292 547 m 128,-1,9
 292 585 292 585 264.5 612 c 128,-1,10
 237 639 237 639 199.5 639 c 128,-1,11
 162 639 162 639 135 612 c 128,-1,12
 108 585 108 585 108 547 c 128,-1,13
 108 509 108 509 135 482 c 128,-1,14
 162 455 162 455 200 455 c 128,-1,15
 238 455 238 455 265 482 c 128,-1,8
 292 509 292 509 292 547 c 128,-1,9
EndSplineSet
EndChar

StartChar: plusminus
Encoding: 177 177 113
Width: 520
GlyphClass: 2
Flags: W
LayerCount: 2
Fore
SplineSet
275 501 m 0,0,1
 279 501 279 501 284 501 c 1,2,-1
 284 333 l 1,3,-1
 398 336 l 1,4,5
 445 336 445 336 445 295 c 0,6,7
 445 291 445 291 445 288 c 1,8,-1
 284 288 l 1,9,-1
 284 157 l 2,10,11
 284 140 284 140 272 134 c 128,-1,12
 260 128 260 128 248 130 c 1,13,-1
 237 133 l 1,14,15
 237 172 237 172 235 288 c 1,16,-1
 105 288 l 2,17,18
 88 288 88 288 79 299 c 128,-1,19
 70 310 70 310 69 320 c 2,20,-1
 68 331 l 1,21,22
 110 331 110 331 234 333 c 1,23,-1
 232 454 l 2,24,25
 232 501 232 501 275 501 c 0,0,1
496 8 m 0,26,27
 496 5 496 5 496 1 c 1,28,-1
 65 1 l 2,29,30
 48 1 48 1 39 12 c 128,-1,31
 30 23 30 23 29 34 c 2,32,-1
 28 45 l 1,33,-1
 449 50 l 2,34,35
 496 50 496 50 496 8 c 0,26,27
EndSplineSet
EndChar

StartChar: twosuperior
Encoding: 178 178 114
Width: 359
GlyphClass: 2
Flags: W
LayerCount: 2
Fore
SplineSet
227 588 m 0,0,1
 227 613 227 613 214 628 c 128,-1,2
 201 643 201 643 176.5 643 c 128,-1,3
 152 643 152 643 137 627 c 128,-1,4
 122 611 122 611 122 586 c 128,-1,5
 122 561 122 561 134 546 c 1,6,7
 120 528 120 528 101 528 c 128,-1,8
 82 528 82 528 69.5 539.5 c 128,-1,9
 57 551 57 551 57 569 c 0,10,11
 57 610 57 610 96.5 641 c 128,-1,12
 136 672 136 672 183.5 672 c 128,-1,13
 231 672 231 672 263.5 648 c 128,-1,14
 296 624 296 624 296 581 c 0,15,16
 296 493 296 493 133 394 c 1,17,-1
 135 391 l 1,18,19
 143 392 143 392 161 392 c 0,20,21
 253 392 253 392 291 419 c 1,22,-1
 295 446 l 2,23,24
 295 452 295 452 308.5 452 c 128,-1,25
 322 452 322 452 322 446 c 0,26,27
 314 387 314 387 314 334 c 0,28,29
 314 328 314 328 301 328 c 128,-1,30
 288 328 288 328 288 334 c 2,31,-1
 288 350 l 1,32,-1
 49 350 l 2,33,34
 42 350 42 350 42 356 c 128,-1,35
 42 362 42 362 49 367 c 0,36,37
 124 414 124 414 175.5 476.5 c 128,-1,38
 227 539 227 539 227 588 c 0,0,1
EndSplineSet
EndChar

StartChar: threesuperior
Encoding: 179 179 115
Width: 314
GlyphClass: 2
Flags: W
LayerCount: 2
Fore
SplineSet
93.5 326 m 128,-1,1
 114 303 114 303 148.5 303 c 128,-1,2
 183 303 183 303 206 330.5 c 128,-1,3
 229 358 229 358 229 394 c 0,4,5
 229 469 229 469 153 487 c 1,6,7
 132 479 132 479 121.5 468.5 c 128,-1,8
 111 458 111 458 112 451 c 1,9,-1
 112 444 l 1,10,11
 109 443 109 443 105 443 c 0,12,13
 88 443 88 443 88 458 c 128,-1,14
 88 473 88 473 104.5 487 c 128,-1,15
 121 501 121 501 141.5 511 c 128,-1,16
 162 521 162 521 178.5 542.5 c 128,-1,17
 195 564 195 564 195 592 c 0,18,19
 195 644 195 644 143 644 c 0,20,21
 121 644 121 644 107 632 c 128,-1,22
 93 620 93 620 93 605 c 128,-1,23
 93 590 93 590 100 577 c 1,24,25
 88 556 88 556 72 556 c 0,26,27
 37 556 37 556 37 588 c 0,28,29
 37 623 37 623 77 647.5 c 128,-1,30
 117 672 117 672 155.5 672 c 128,-1,31
 194 672 194 672 226.5 653 c 128,-1,32
 259 634 259 634 259 604 c 0,33,34
 259 550 259 550 179 505 c 1,35,-1
 179 504 l 1,36,37
 233 492 233 492 259 466 c 128,-1,38
 285 440 285 440 285 406 c 0,39,40
 285 350 285 350 244 313 c 128,-1,41
 203 276 203 276 143.5 276 c 128,-1,42
 84 276 84 276 57.5 295.5 c 128,-1,43
 31 315 31 315 31 335 c 0,44,45
 31 374 31 374 63 374 c 0,46,47
 69 374 69 374 72 373 c 1,48,0
 73 349 73 349 93.5 326 c 128,-1,1
EndSplineSet
EndChar

StartChar: acute
Encoding: 180 180 116
Width: 360
GlyphClass: 2
Flags: W
LayerCount: 2
Fore
SplineSet
101 533 m 0,0,1
 88 533 88 533 88 542 c 0,2,3
 88 545 88 545 109 568.5 c 128,-1,4
 130 592 130 592 160.5 634 c 128,-1,5
 191 676 191 676 202 694 c 0,6,7
 227 736 227 736 266 736 c 0,8,9
 281 736 281 736 291 727 c 128,-1,10
 301 718 301 718 301 704 c 0,11,12
 301 678 301 678 267 649 c 128,-1,13
 233 620 233 620 111 536 c 0,14,15
 106 533 106 533 101 533 c 0,0,1
EndSplineSet
EndChar

StartChar: mu
Encoding: 181 181 117
AltUni2: 0003bc.ffffffff.0
Width: 568
GlyphClass: 2
Flags: W
LayerCount: 2
Fore
SplineSet
224 -220 m 1,0,1
 203 -247 203 -247 175 -247 c 128,-1,2
 147 -247 147 -247 135.5 -231 c 128,-1,3
 124 -215 124 -215 117 -191 c 128,-1,4
 110 -167 110 -167 106 -130 c 128,-1,5
 102 -93 102 -93 99.5 -60.5 c 128,-1,6
 97 -28 97 -28 96.5 26.5 c 128,-1,7
 96 81 96 81 95.5 105.5 c 128,-1,8
 95 130 95 130 95 155 c 2,9,-1
 96 301 l 1,10,-1
 96 319 l 2,11,12
 96 407 96 407 75 407 c 2,13,-1
 26 407 l 1,14,15
 18 408 18 408 18 422.5 c 128,-1,16
 18 437 18 437 24 437 c 2,17,-1
 95 436 l 1,18,-1
 179 439 l 2,19,20
 189 439 189 439 189 431 c 0,21,22
 189 428 189 428 187.5 423 c 128,-1,23
 186 418 186 418 185 410 c 0,24,25
 181 380 181 380 181 332 c 2,26,-1
 181 223 l 2,27,28
 181 121 181 121 205.5 81.5 c 128,-1,29
 230 42 230 42 297 42 c 0,30,31
 327 42 327 42 353 58.5 c 128,-1,32
 379 75 379 75 394 103 c 1,33,-1
 394 319 l 2,34,35
 394 407 394 407 373 407 c 2,36,-1
 324 407 l 1,37,38
 316 408 316 408 316 422.5 c 128,-1,39
 316 437 316 437 322 437 c 2,40,-1
 393 436 l 1,41,-1
 477 439 l 2,42,43
 487 439 487 439 487 431 c 0,44,45
 487 428 487 428 485.5 423 c 128,-1,46
 484 418 484 418 483 410 c 0,47,48
 479 380 479 380 479 332 c 2,49,-1
 479 146 l 2,50,51
 479 78 479 78 493 66 c 0,52,53
 500 60 500 60 514 60 c 1,54,-1
 548 63 l 2,55,56
 556 63 556 63 556 48.5 c 128,-1,57
 556 34 556 34 550 33 c 0,58,59
 483 22 483 22 439 -4 c 0,60,61
 425 -13 425 -13 421 -13 c 0,62,63
 397 -13 397 -13 397 60 c 1,64,-1
 395 60 l 1,65,66
 368 24 368 24 328 5.5 c 128,-1,67
 288 -13 288 -13 248.5 -13 c 128,-1,68
 209 -13 209 -13 176 2 c 1,69,70
 179 -146 179 -146 224 -220 c 1,0,1
EndSplineSet
EndChar

StartChar: paragraph
Encoding: 182 182 118
Width: 538
GlyphClass: 2
Flags: W
LayerCount: 2
Fore
SplineSet
385 671 m 1,0,-1
 511 673 l 2,1,2
 519 673 519 673 519 656.5 c 128,-1,3
 519 640 519 640 511 640 c 2,4,-1
 453 640 l 2,5,6
 432 640 432 640 432 552 c 2,7,-1
 432 313 l 2,8,9
 432 149 432 149 405 80 c 1,10,11
 373 4 373 4 309 -44 c 128,-1,12
 245 -92 245 -92 164 -92 c 0,13,14
 138 -92 138 -92 124.5 -81 c 128,-1,15
 111 -70 111 -70 111 -56 c 0,16,17
 111 -18 111 -18 155 -1 c 1,18,19
 197 -27 197 -27 251 -27 c 0,20,21
 284 -27 284 -27 299 4 c 0,22,23
 329 66 329 66 329 304 c 2,24,-1
 329 637 l 1,25,26
 291 636 291 636 291 634 c 0,27,28
 287 414 287 414 282 319 c 1,29,30
 249 307 249 307 215 307 c 0,31,32
 128 307 128 307 83 362.5 c 128,-1,33
 38 418 38 418 38 495 c 0,34,35
 38 671 38 671 270 671 c 2,36,-1
 385 671 l 1,0,-1
EndSplineSet
EndChar

StartChar: periodcentered
Encoding: 183 183 119
Width: 320
GlyphClass: 2
Flags: W
LayerCount: 2
Fore
SplineSet
115 207.5 m 128,-1,1
 96 227 96 227 96 253.5 c 128,-1,2
 96 280 96 280 114.5 299.5 c 128,-1,3
 133 319 133 319 159.5 319 c 128,-1,4
 186 319 186 319 205 300 c 128,-1,5
 224 281 224 281 224 254.5 c 128,-1,6
 224 228 224 228 205.5 208 c 128,-1,7
 187 188 187 188 160.5 188 c 128,-1,0
 134 188 134 188 115 207.5 c 128,-1,1
EndSplineSet
EndChar

StartChar: cedilla
Encoding: 184 184 120
Width: 300
GlyphClass: 2
Flags: W
LayerCount: 2
Fore
SplineSet
140 -50 m 0,0,1
 172 -50 172 -50 199 -64.5 c 128,-1,2
 226 -79 226 -79 226 -109.5 c 128,-1,3
 226 -140 226 -140 203 -156 c 128,-1,4
 180 -172 180 -172 151.5 -172 c 128,-1,5
 123 -172 123 -172 94.5 -158 c 128,-1,6
 66 -144 66 -144 66 -122.5 c 128,-1,7
 66 -101 66 -101 87 -101 c 0,8,9
 103 -101 103 -101 109 -115 c 1,10,11
 105 -120 105 -120 105 -128 c 128,-1,12
 105 -136 105 -136 117 -143 c 128,-1,13
 129 -150 129 -150 144 -150 c 128,-1,14
 159 -150 159 -150 171 -140.5 c 128,-1,15
 183 -131 183 -131 183 -114 c 0,16,17
 183 -71 183 -71 123 -71 c 0,18,19
 119 -71 119 -71 111 -71.5 c 128,-1,20
 103 -72 103 -72 99 -72 c 1,21,-1
 126 0 l 1,22,-1
 154 0 l 1,23,-1
 136 -50 l 1,24,25
 138 -50 138 -50 140 -50 c 0,0,1
EndSplineSet
EndChar

StartChar: onesuperior
Encoding: 185 185 121
Width: 305
GlyphClass: 2
Flags: W
LayerCount: 2
Fore
SplineSet
144 668 m 1,0,-1
 243 670 l 2,1,2
 249 670 249 670 249 656 c 128,-1,3
 249 642 249 642 244 642 c 2,4,-1
 194 642 l 2,5,6
 185 642 185 642 185 631 c 2,7,-1
 185 432 l 2,8,9
 185 385 185 385 192 379 c 0,10,11
 195 377 195 377 200 377 c 2,12,-1
 244 377 l 2,13,14
 250 377 250 377 250 363 c 128,-1,15
 250 349 250 349 245 349 c 2,16,-1
 151 350 l 1,17,-1
 59 348 l 2,18,19
 54 348 54 348 54 362 c 128,-1,20
 54 376 54 376 58 376 c 2,21,-1
 108 376 l 2,22,23
 117 376 117 376 117 387 c 2,24,-1
 117 577 l 2,25,26
 117 641 117 641 101 641 c 2,27,-1
 58 641 l 2,28,29
 51 641 51 641 51 655 c 128,-1,30
 51 669 51 669 56 669 c 2,31,32
 56 669 56 669 144 668 c 1,0,-1
EndSplineSet
EndChar

StartChar: ordmasculine
Encoding: 186 186 122
Width: 360
GlyphClass: 2
Flags: W
LayerCount: 2
Fore
SplineSet
178 682 m 128,-1,1
 230 682 230 682 267 644.5 c 128,-1,2
 304 607 304 607 304 555 c 128,-1,3
 304 503 304 503 267 466 c 128,-1,4
 230 429 230 429 178 429 c 128,-1,5
 126 429 126 429 89 466 c 128,-1,6
 52 503 52 503 52 555.5 c 128,-1,7
 52 608 52 608 89 645 c 128,-1,0
 126 682 126 682 178 682 c 128,-1,1
232 622 m 128,-1,9
 209 651 209 651 175.5 651 c 128,-1,10
 142 651 142 651 121.5 622.5 c 128,-1,11
 101 594 101 594 101 551.5 c 128,-1,12
 101 509 101 509 124 480.5 c 128,-1,13
 147 452 147 452 180.5 452 c 128,-1,14
 214 452 214 452 234.5 479.5 c 128,-1,15
 255 507 255 507 255 550 c 128,-1,8
 255 593 255 593 232 622 c 128,-1,9
125 391 m 1,16,-1
 226 387 l 1,17,18
 266 387 266 387 303 397 c 1,19,20
 307 392 307 392 307 382 c 0,21,22
 307 359 307 359 281.5 349.5 c 128,-1,23
 256 340 256 340 226 340 c 1,24,-1
 118 345 l 1,25,26
 84 345 84 345 70 340 c 1,27,28
 63 352 63 352 63 360 c 0,29,30
 63 391 63 391 125 391 c 1,16,-1
EndSplineSet
EndChar

StartChar: guillemotright
Encoding: 187 187 123
Width: 458
GlyphClass: 2
Flags: W
LayerCount: 2
Fore
SplineSet
236 59 m 1,0,1
 223 72 223 72 223 86 c 128,-1,2
 223 100 223 100 238.5 118 c 128,-1,3
 254 136 254 136 284.5 166 c 128,-1,4
 315 196 315 196 335 221 c 1,5,6
 315 246 315 246 284.5 276 c 128,-1,7
 254 306 254 306 238.5 324 c 128,-1,8
 223 342 223 342 223 356 c 128,-1,9
 223 370 223 370 236 383 c 1,10,11
 271 343 271 343 315 302.5 c 128,-1,12
 359 262 359 262 385 242 c 2,13,-1
 411 221 l 1,14,15
 315 149 315 149 236 59 c 1,0,1
76 59 m 1,16,17
 63 72 63 72 63 86 c 128,-1,18
 63 100 63 100 78.5 118 c 128,-1,19
 94 136 94 136 124.5 166 c 128,-1,20
 155 196 155 196 175 221 c 1,21,22
 155 246 155 246 124.5 276 c 128,-1,23
 94 306 94 306 78.5 324 c 128,-1,24
 63 342 63 342 63 356 c 128,-1,25
 63 370 63 370 76 383 c 1,26,27
 111 343 111 343 155 302.5 c 128,-1,28
 199 262 199 262 225 242 c 2,29,-1
 251 221 l 1,30,31
 155 149 155 149 76 59 c 1,16,17
EndSplineSet
EndChar

StartChar: onequarter
Encoding: 188 188 124
Width: 763
GlyphClass: 2
Flags: W
LayerCount: 2
Fore
SplineSet
194 -9 m 2,0,1
 178 -33 178 -33 166.5 -33 c 128,-1,2
 155 -33 155 -33 138 -16 c 1,3,-1
 625 682 l 2,4,5
 638 701 638 701 648 701 c 0,6,7
 663 701 663 701 680 684 c 1,8,-1
 194 -9 l 2,0,1
176 668 m 1,9,-1
 275 670 l 2,10,11
 281 670 281 670 281 656 c 128,-1,12
 281 642 281 642 276 642 c 2,13,-1
 226 642 l 2,14,15
 217 642 217 642 217 631 c 2,16,-1
 217 432 l 2,17,18
 217 385 217 385 224 379 c 0,19,20
 227 377 227 377 232 377 c 2,21,-1
 276 377 l 2,22,23
 282 377 282 377 282 363 c 128,-1,24
 282 349 282 349 277 349 c 2,25,-1
 183 350 l 1,26,-1
 91 348 l 2,27,28
 86 348 86 348 86 362 c 128,-1,29
 86 376 86 376 90 376 c 2,30,-1
 140 376 l 2,31,32
 149 376 149 376 149 387 c 2,33,-1
 149 577 l 2,34,35
 149 641 149 641 133 641 c 2,36,-1
 90 641 l 2,37,38
 83 641 83 641 83 655 c 128,-1,39
 83 669 83 669 88 669 c 2,40,-1
 176 668 l 1,9,-1
607 -64 m 1,41,-1
 531 -66 l 2,42,43
 525 -66 525 -66 525 -55.5 c 128,-1,44
 525 -45 525 -45 529 -45 c 2,45,-1
 558 -45 l 2,46,47
 569 -45 569 -45 569 -28 c 2,48,-1
 569 57 l 1,49,-1
 416 57 l 2,50,51
 408 57 408 57 408 69 c 128,-1,52
 408 81 408 81 416 90 c 2,53,-1
 613 329 l 1,54,55
 638 329 638 329 638 314 c 0,56,57
 638 311 638 311 636 290 c 0,58,59
 631 239 631 239 631 134 c 2,60,-1
 631 91 l 1,61,-1
 683 91 l 2,62,63
 693 91 693 91 693 74 c 128,-1,64
 693 57 693 57 683 57 c 2,65,-1
 631 57 l 1,66,-1
 631 -43 l 1,67,-1
 660 -42 l 2,68,69
 666 -42 666 -42 666 -53 c 128,-1,70
 666 -64 666 -64 662 -64 c 2,71,-1
 607 -64 l 1,41,-1
569 90 m 1,72,-1
 569 180 l 1,73,-1
 571 229 l 1,74,-1
 568 229 l 1,75,-1
 453 90 l 1,76,-1
 569 90 l 1,72,-1
EndSplineSet
EndChar

StartChar: onehalf
Encoding: 189 189 125
Width: 780
GlyphClass: 2
Flags: W
LayerCount: 2
Fore
SplineSet
194 -9 m 2,0,1
 178 -33 178 -33 166.5 -33 c 128,-1,2
 155 -33 155 -33 138 -16 c 1,3,-1
 625 682 l 2,4,5
 638 701 638 701 648 701 c 0,6,7
 663 701 663 701 680 684 c 1,8,-1
 194 -9 l 2,0,1
176 668 m 1,9,-1
 275 670 l 2,10,11
 281 670 281 670 281 656 c 128,-1,12
 281 642 281 642 276 642 c 2,13,-1
 226 642 l 2,14,15
 217 642 217 642 217 631 c 2,16,-1
 217 432 l 2,17,18
 217 385 217 385 224 379 c 0,19,20
 227 377 227 377 232 377 c 2,21,-1
 276 377 l 2,22,23
 282 377 282 377 282 363 c 128,-1,24
 282 349 282 349 277 349 c 2,25,-1
 183 350 l 1,26,-1
 91 348 l 2,27,28
 86 348 86 348 86 362 c 128,-1,29
 86 376 86 376 90 376 c 2,30,-1
 140 376 l 2,31,32
 149 376 149 376 149 387 c 2,33,-1
 149 577 l 2,34,35
 149 641 149 641 133 641 c 2,36,-1
 90 641 l 2,37,38
 83 641 83 641 83 655 c 128,-1,39
 83 669 83 669 88 669 c 2,40,-1
 176 668 l 1,9,-1
629 238 m 0,41,42
 629 263 629 263 616 278 c 128,-1,43
 603 293 603 293 578.5 293 c 128,-1,44
 554 293 554 293 539 277 c 128,-1,45
 524 261 524 261 524 236 c 128,-1,46
 524 211 524 211 536 196 c 1,47,48
 522 178 522 178 503 178 c 128,-1,49
 484 178 484 178 471.5 189.5 c 128,-1,50
 459 201 459 201 459 219 c 0,51,52
 459 260 459 260 498.5 291 c 128,-1,53
 538 322 538 322 585.5 322 c 128,-1,54
 633 322 633 322 665.5 298 c 128,-1,55
 698 274 698 274 698 231 c 0,56,57
 698 143 698 143 535 44 c 1,58,-1
 537 41 l 1,59,60
 545 42 545 42 563 42 c 0,61,62
 655 42 655 42 693 69 c 1,63,-1
 697 96 l 2,64,65
 697 102 697 102 710.5 102 c 128,-1,66
 724 102 724 102 724 96 c 0,67,68
 716 37 716 37 716 -16 c 0,69,70
 716 -22 716 -22 703 -22 c 128,-1,71
 690 -22 690 -22 690 -16 c 2,72,-1
 690 0 l 1,73,-1
 451 0 l 2,74,75
 444 0 444 0 444 6 c 128,-1,76
 444 12 444 12 451 17 c 0,77,78
 526 64 526 64 577.5 126.5 c 128,-1,79
 629 189 629 189 629 238 c 0,41,42
EndSplineSet
EndChar

StartChar: threequarters
Encoding: 190 190 126
Width: 763
GlyphClass: 2
Flags: W
LayerCount: 2
Fore
SplineSet
194 -9 m 2,0,1
 178 -33 178 -33 166.5 -33 c 128,-1,2
 155 -33 155 -33 138 -16 c 1,3,-1
 625 682 l 2,4,5
 638 701 638 701 648 701 c 0,6,7
 663 701 663 701 680 684 c 1,8,-1
 194 -9 l 2,0,1
115.5 326 m 128,-1,10
 136 303 136 303 170.5 303 c 128,-1,11
 205 303 205 303 228 330.5 c 128,-1,12
 251 358 251 358 251 394 c 0,13,14
 251 469 251 469 175 487 c 1,15,16
 154 479 154 479 143.5 468.5 c 128,-1,17
 133 458 133 458 134 451 c 1,18,-1
 134 444 l 1,19,20
 131 443 131 443 127 443 c 0,21,22
 110 443 110 443 110 458 c 128,-1,23
 110 473 110 473 126.5 487 c 128,-1,24
 143 501 143 501 163.5 511 c 128,-1,25
 184 521 184 521 200.5 542.5 c 128,-1,26
 217 564 217 564 217 592 c 0,27,28
 217 644 217 644 165 644 c 0,29,30
 143 644 143 644 129 632 c 128,-1,31
 115 620 115 620 115 605 c 128,-1,32
 115 590 115 590 122 577 c 1,33,34
 110 556 110 556 94 556 c 0,35,36
 59 556 59 556 59 588 c 0,37,38
 59 623 59 623 99 647.5 c 128,-1,39
 139 672 139 672 177.5 672 c 128,-1,40
 216 672 216 672 248.5 653 c 128,-1,41
 281 634 281 634 281 604 c 0,42,43
 281 550 281 550 201 505 c 1,44,-1
 201 504 l 1,45,46
 255 492 255 492 281 466 c 128,-1,47
 307 440 307 440 307 406 c 0,48,49
 307 350 307 350 266 313 c 128,-1,50
 225 276 225 276 165.5 276 c 128,-1,51
 106 276 106 276 79.5 295.5 c 128,-1,52
 53 315 53 315 53 335 c 0,53,54
 53 374 53 374 85 374 c 0,55,56
 91 374 91 374 94 373 c 1,57,9
 95 349 95 349 115.5 326 c 128,-1,10
607 -64 m 1,58,-1
 531 -66 l 2,59,60
 525 -66 525 -66 525 -55.5 c 128,-1,61
 525 -45 525 -45 529 -45 c 2,62,-1
 558 -45 l 2,63,64
 569 -45 569 -45 569 -28 c 2,65,-1
 569 57 l 1,66,-1
 416 57 l 2,67,68
 408 57 408 57 408 69 c 128,-1,69
 408 81 408 81 416 90 c 2,70,-1
 613 329 l 1,71,72
 638 329 638 329 638 314 c 0,73,74
 638 311 638 311 636 290 c 0,75,76
 631 239 631 239 631 134 c 2,77,-1
 631 91 l 1,78,-1
 683 91 l 2,79,80
 693 91 693 91 693 74 c 128,-1,81
 693 57 693 57 683 57 c 2,82,-1
 631 57 l 1,83,-1
 631 -43 l 1,84,-1
 660 -42 l 2,85,86
 666 -42 666 -42 666 -53 c 128,-1,87
 666 -64 666 -64 662 -64 c 2,88,-1
 607 -64 l 1,58,-1
569 90 m 1,89,-1
 569 180 l 1,90,-1
 571 229 l 1,91,-1
 568 229 l 1,92,-1
 453 90 l 1,93,-1
 569 90 l 1,89,-1
EndSplineSet
EndChar

StartChar: questiondown
Encoding: 191 191 127
Width: 406
GlyphClass: 2
Flags: W
LayerCount: 2
Fore
SplineSet
291 247 m 1,0,-1
 298 89 l 2,1,2
 298 69 298 69 250 69 c 0,3,4
 167 69 167 69 148.5 60 c 128,-1,5
 130 51 130 51 117 40 c 0,6,7
 92 20 92 20 92 -30 c 128,-1,8
 92 -80 92 -80 135.5 -123 c 128,-1,9
 179 -166 179 -166 235 -166 c 0,10,11
 272 -166 272 -166 320 -128 c 1,12,13
 361 -141 361 -141 361 -183 c 0,14,15
 361 -208 361 -208 343 -227 c 128,-1,16
 325 -246 325 -246 295 -246 c 0,17,18
 196 -246 196 -246 123 -170 c 128,-1,19
 50 -94 50 -94 50 8 c 0,20,21
 50 79 50 79 97.5 119.5 c 128,-1,22
 145 160 145 160 217 160 c 0,23,24
 228 160 228 160 250 158 c 1,25,26
 252 188 252 188 252 220 c 128,-1,27
 252 252 252 252 250 265 c 1,28,29
 259 273 259 273 271 273 c 0,30,31
 291 273 291 273 291 247 c 1,0,-1
225.5 438.5 m 128,-1,33
 242 456 242 456 265.5 456 c 128,-1,34
 289 456 289 456 306 439.5 c 128,-1,35
 323 423 323 423 323 400 c 128,-1,36
 323 377 323 377 307.5 359.5 c 128,-1,37
 292 342 292 342 268.5 342 c 128,-1,38
 245 342 245 342 227 357.5 c 128,-1,39
 209 373 209 373 209 397 c 128,-1,32
 209 421 209 421 225.5 438.5 c 128,-1,33
EndSplineSet
EndChar

StartChar: Agrave
Encoding: 192 192 128
Width: 655
GlyphClass: 2
Flags: W
LayerCount: 2
Fore
SplineSet
533 1 m 1,0,-1
 406 -2 l 2,1,2
 397 -2 397 -2 397 15 c 128,-1,3
 397 32 397 32 406 32 c 2,4,-1
 463 32 l 2,5,6
 484 32 484 32 484 49 c 0,7,8
 484 56 484 56 446 168.5 c 128,-1,9
 408 281 408 281 399 309 c 1,10,-1
 218 309 l 1,11,12
 147 83 147 83 147 48 c 0,13,14
 147 33 147 33 153 33 c 2,15,-1
 225 33 l 2,16,17
 236 33 236 33 236 16.5 c 128,-1,18
 236 0 236 0 223 0 c 2,19,-1
 94 1 l 1,20,-1
 -17 -2 l 2,21,22
 -26 -2 -26 -2 -26 15 c 128,-1,23
 -26 32 -26 32 -17 32 c 2,24,-1
 33 32 l 2,25,26
 55 32 55 32 66 54 c 0,27,28
 108 145 108 145 172.5 325 c 128,-1,29
 237 505 237 505 260.5 563.5 c 128,-1,30
 284 622 284 622 284 628.5 c 128,-1,31
 284 635 284 635 280 643 c 128,-1,32
 276 651 276 651 276 653 c 0,33,34
 276 661 276 661 290.5 661 c 128,-1,35
 305 661 305 661 317.5 668 c 128,-1,36
 330 675 330 675 334 684 c 0,37,38
 345 706 345 706 354 706 c 0,39,40
 358 706 358 706 368 676 c 1,41,-1
 569 133 l 2,42,43
 607 33 607 33 622 33 c 2,44,-1
 658 33 l 2,45,46
 668 33 668 33 668 16.5 c 128,-1,47
 668 0 668 0 660 0 c 2,48,-1
 533 1 l 1,0,-1
309 569 m 1,49,50
 278 489 278 489 231 349 c 1,51,-1
 385 349 l 1,52,53
 318 552 318 552 313 569 c 1,54,-1
 309 569 l 1,49,50
226 907 m 0,55,56
 226 921 226 921 236 930 c 128,-1,57
 246 939 246 939 267.5 939 c 128,-1,58
 289 939 289 939 303.5 924.5 c 128,-1,59
 318 910 318 910 353 857 c 128,-1,60
 388 804 388 804 413.5 776 c 128,-1,61
 439 748 439 748 439 745 c 0,62,63
 439 736 439 736 429.5 736 c 128,-1,64
 420 736 420 736 416 739 c 0,65,66
 294 823 294 823 260 852 c 128,-1,67
 226 881 226 881 226 907 c 0,55,56
EndSplineSet
EndChar

StartChar: Aacute
Encoding: 193 193 129
Width: 585
GlyphClass: 2
Flags: W
LayerCount: 2
Fore
SplineSet
264 736 m 0,0,1
 251 736 251 736 251 745 c 0,2,3
 251 748 251 748 272 771.5 c 128,-1,4
 293 795 293 795 323.5 837 c 128,-1,5
 354 879 354 879 365 898 c 0,6,7
 390 939 390 939 429 939 c 0,8,9
 444 939 444 939 454 930 c 128,-1,10
 464 921 464 921 464 907 c 0,11,12
 464 881 464 881 430 852 c 128,-1,13
 396 823 396 823 274 739 c 0,14,15
 269 736 269 736 264 736 c 0,0,1
533 1 m 1,16,-1
 406 -2 l 2,17,18
 397 -2 397 -2 397 15 c 128,-1,19
 397 32 397 32 406 32 c 2,20,-1
 463 32 l 2,21,22
 484 32 484 32 484 49 c 0,23,24
 484 56 484 56 446 168.5 c 128,-1,25
 408 281 408 281 399 309 c 1,26,-1
 218 309 l 1,27,28
 147 83 147 83 147 48 c 0,29,30
 147 33 147 33 153 33 c 2,31,-1
 225 33 l 2,32,33
 236 33 236 33 236 16.5 c 128,-1,34
 236 0 236 0 223 0 c 2,35,-1
 94 1 l 1,36,37
 94 1 94 1 -17 -2 c 0,38,39
 -26 -2 -26 -2 -26 15 c 128,-1,40
 -26 32 -26 32 -17 32 c 2,41,-1
 33 32 l 2,42,43
 55 32 55 32 66 54 c 0,44,45
 108 145 108 145 172.5 325 c 128,-1,46
 237 505 237 505 260.5 563.5 c 128,-1,47
 284 622 284 622 284 628.5 c 128,-1,48
 284 635 284 635 280 643 c 128,-1,49
 276 651 276 651 276 653 c 0,50,51
 276 661 276 661 290.5 661 c 128,-1,52
 305 661 305 661 317.5 668 c 128,-1,53
 330 675 330 675 334 684 c 0,54,55
 345 706 345 706 354 706 c 0,56,57
 358 706 358 706 368 676 c 1,58,-1
 569 133 l 2,59,60
 607 33 607 33 622 33 c 2,61,-1
 658 33 l 2,62,63
 668 33 668 33 668 16.5 c 128,-1,64
 668 0 668 0 660 0 c 2,65,-1
 533 1 l 1,16,-1
309 569 m 1,66,67
 278 489 278 489 231 349 c 1,68,-1
 385 349 l 1,69,70
 318 552 318 552 313 569 c 1,71,-1
 309 569 l 1,66,67
EndSplineSet
EndChar

StartChar: Acircumflex
Encoding: 194 194 130
Width: 655
GlyphClass: 2
Flags: W
LayerCount: 2
Fore
SplineSet
533 1 m 1,0,-1
 406 -2 l 2,1,2
 397 -2 397 -2 397 15 c 128,-1,3
 397 32 397 32 406 32 c 2,4,-1
 463 32 l 2,5,6
 484 32 484 32 484 49 c 0,7,8
 484 56 484 56 446 168.5 c 128,-1,9
 408 281 408 281 399 309 c 1,10,-1
 218 309 l 1,11,12
 147 83 147 83 147 48 c 0,13,14
 147 33 147 33 153 33 c 2,15,-1
 225 33 l 2,16,17
 236 33 236 33 236 16.5 c 128,-1,18
 236 0 236 0 223 0 c 2,19,-1
 94 1 l 1,20,-1
 -17 -2 l 2,21,22
 -26 -2 -26 -2 -26 15 c 128,-1,23
 -26 32 -26 32 -17 32 c 2,24,-1
 33 32 l 2,25,26
 55 32 55 32 66 54 c 0,27,28
 108 145 108 145 172.5 325 c 128,-1,29
 237 505 237 505 260.5 563.5 c 128,-1,30
 284 622 284 622 284 628.5 c 128,-1,31
 284 635 284 635 280 643 c 128,-1,32
 276 651 276 651 276 653 c 0,33,34
 276 661 276 661 290.5 661 c 128,-1,35
 305 661 305 661 317.5 668 c 128,-1,36
 330 675 330 675 334 684 c 0,37,38
 345 706 345 706 354 706 c 0,39,40
 358 706 358 706 368 676 c 1,41,-1
 569 133 l 2,42,43
 607 33 607 33 622 33 c 2,44,-1
 658 33 l 2,45,46
 668 33 668 33 668 16.5 c 128,-1,47
 668 0 668 0 660 0 c 2,48,-1
 533 1 l 1,0,-1
309 569 m 1,49,50
 278 489 278 489 231 349 c 1,51,-1
 385 349 l 1,52,53
 318 552 318 552 313 569 c 1,54,-1
 309 569 l 1,49,50
218 764 m 2,55,56
 209 756 209 756 200 756 c 128,-1,57
 191 756 191 756 188 764 c 1,58,-1
 302 911 l 2,59,60
 313 925 313 925 328 925 c 128,-1,61
 343 925 343 925 357 911 c 1,62,-1
 467 764 l 1,63,64
 462 757 462 757 453 757 c 128,-1,65
 444 757 444 757 436 764 c 2,66,-1
 329 854 l 1,67,-1
 218 764 l 2,55,56
EndSplineSet
EndChar

StartChar: Atilde
Encoding: 195 195 131
Width: 655
GlyphClass: 2
Flags: W
LayerCount: 2
Fore
SplineSet
533 1 m 1,0,-1
 406 -2 l 2,1,2
 397 -2 397 -2 397 15 c 128,-1,3
 397 32 397 32 406 32 c 2,4,-1
 463 32 l 2,5,6
 484 32 484 32 484 49 c 0,7,8
 484 56 484 56 446 168.5 c 128,-1,9
 408 281 408 281 399 309 c 1,10,-1
 218 309 l 1,11,12
 147 83 147 83 147 48 c 0,13,14
 147 33 147 33 153 33 c 2,15,-1
 225 33 l 2,16,17
 236 33 236 33 236 16.5 c 128,-1,18
 236 0 236 0 223 0 c 2,19,-1
 94 1 l 1,20,-1
 -17 -2 l 2,21,22
 -26 -2 -26 -2 -26 15 c 128,-1,23
 -26 32 -26 32 -17 32 c 2,24,-1
 33 32 l 2,25,26
 55 32 55 32 66 54 c 0,27,28
 108 145 108 145 172.5 325 c 128,-1,29
 237 505 237 505 260.5 563.5 c 128,-1,30
 284 622 284 622 284 628.5 c 128,-1,31
 284 635 284 635 280 643 c 128,-1,32
 276 651 276 651 276 653 c 0,33,34
 276 661 276 661 290.5 661 c 128,-1,35
 305 661 305 661 317.5 668 c 128,-1,36
 330 675 330 675 334 684 c 0,37,38
 345 706 345 706 354 706 c 0,39,40
 358 706 358 706 368 676 c 1,41,-1
 569 133 l 2,42,43
 607 33 607 33 622 33 c 2,44,-1
 658 33 l 2,45,46
 668 33 668 33 668 16.5 c 128,-1,47
 668 0 668 0 660 0 c 2,48,-1
 533 1 l 1,0,-1
309 569 m 1,49,50
 278 489 278 489 231 349 c 1,51,-1
 385 349 l 1,52,53
 318 552 318 552 313 569 c 1,54,-1
 309 569 l 1,49,50
187 768 m 0,55,56
 185 760 185 760 177.5 760 c 128,-1,57
 170 760 170 760 165 765 c 128,-1,58
 160 770 160 770 160 779 c 0,59,60
 163 846 163 846 195 877 c 128,-1,61
 227 908 227 908 264 908 c 0,62,63
 286 908 286 908 320.5 901.5 c 128,-1,64
 355 895 355 895 374 895 c 128,-1,65
 393 895 393 895 405 896.5 c 128,-1,66
 417 898 417 898 431 904 c 0,67,68
 459 918 459 918 467 965 c 0,69,70
 468 973 468 973 478 973 c 0,71,72
 493 973 493 973 493 957 c 0,73,74
 493 888 493 888 461 856 c 128,-1,75
 429 824 429 824 389 824 c 0,76,77
 369 824 369 824 334.5 830.5 c 128,-1,78
 300 837 300 837 271.5 837 c 128,-1,79
 243 837 243 837 219 823.5 c 128,-1,80
 195 810 195 810 187 768 c 0,55,56
EndSplineSet
EndChar

StartChar: Adieresis
Encoding: 196 196 132
Width: 655
GlyphClass: 2
Flags: W
LayerCount: 2
Fore
SplineSet
533 1 m 1,0,-1
 406 -2 l 2,1,2
 397 -2 397 -2 397 15 c 128,-1,3
 397 32 397 32 406 32 c 2,4,-1
 463 32 l 2,5,6
 484 32 484 32 484 49 c 0,7,8
 484 56 484 56 446 168.5 c 128,-1,9
 408 281 408 281 399 309 c 1,10,-1
 218 309 l 1,11,12
 147 83 147 83 147 48 c 0,13,14
 147 33 147 33 153 33 c 2,15,-1
 225 33 l 2,16,17
 236 33 236 33 236 16.5 c 128,-1,18
 236 0 236 0 223 0 c 2,19,-1
 94 1 l 1,20,-1
 -17 -2 l 2,21,22
 -26 -2 -26 -2 -26 15 c 128,-1,23
 -26 32 -26 32 -17 32 c 2,24,-1
 33 32 l 2,25,26
 55 32 55 32 66 54 c 0,27,28
 108 145 108 145 172.5 325 c 128,-1,29
 237 505 237 505 260.5 563.5 c 128,-1,30
 284 622 284 622 284 628.5 c 128,-1,31
 284 635 284 635 280 643 c 128,-1,32
 276 651 276 651 276 653 c 0,33,34
 276 661 276 661 290.5 661 c 128,-1,35
 305 661 305 661 317.5 668 c 128,-1,36
 330 675 330 675 334 684 c 0,37,38
 345 706 345 706 354 706 c 0,39,40
 358 706 358 706 368 676 c 1,41,-1
 569 133 l 2,42,43
 607 33 607 33 622 33 c 2,44,-1
 658 33 l 2,45,46
 668 33 668 33 668 16.5 c 128,-1,47
 668 0 668 0 660 0 c 2,48,-1
 533 1 l 1,0,-1
309 569 m 1,49,50
 278 489 278 489 231 349 c 1,51,-1
 385 349 l 1,52,53
 318 552 318 552 313 569 c 1,54,-1
 309 569 l 1,49,50
244 789 m 128,-1,56
 222 789 222 789 207.5 804.5 c 128,-1,57
 193 820 193 820 193 841.5 c 128,-1,58
 193 863 193 863 208 877 c 128,-1,59
 223 891 223 891 243.5 891 c 128,-1,60
 264 891 264 891 279.5 876.5 c 128,-1,61
 295 862 295 862 295 841 c 128,-1,62
 295 820 295 820 280.5 804.5 c 128,-1,55
 266 789 266 789 244 789 c 128,-1,56
411 789 m 128,-1,64
 389 789 389 789 374.5 804.5 c 128,-1,65
 360 820 360 820 360 841 c 128,-1,66
 360 862 360 862 375.5 876.5 c 128,-1,67
 391 891 391 891 411 891 c 128,-1,68
 431 891 431 891 446.5 876.5 c 128,-1,69
 462 862 462 862 462 841 c 128,-1,70
 462 820 462 820 447.5 804.5 c 128,-1,63
 433 789 433 789 411 789 c 128,-1,64
EndSplineSet
EndChar

StartChar: Aring
Encoding: 197 197 133
Width: 655
GlyphClass: 2
Flags: W
LayerCount: 2
Fore
SplineSet
533 1 m 1,0,-1
 406 -2 l 2,1,2
 397 -2 397 -2 397 15 c 128,-1,3
 397 32 397 32 406 32 c 2,4,-1
 463 32 l 2,5,6
 484 32 484 32 484 49 c 0,7,8
 484 56 484 56 446 168.5 c 128,-1,9
 408 281 408 281 399 309 c 1,10,-1
 218 309 l 1,11,12
 147 83 147 83 147 48 c 0,13,14
 147 33 147 33 153 33 c 2,15,-1
 225 33 l 2,16,17
 236 33 236 33 236 16.5 c 128,-1,18
 236 0 236 0 223 0 c 2,19,-1
 94 1 l 1,20,-1
 -17 -2 l 2,21,22
 -26 -2 -26 -2 -26 15 c 128,-1,23
 -26 32 -26 32 -17 32 c 2,24,-1
 33 32 l 2,25,26
 55 32 55 32 66 54 c 0,27,28
 108 145 108 145 172.5 325 c 128,-1,29
 237 505 237 505 260.5 563.5 c 128,-1,30
 284 622 284 622 284 628.5 c 128,-1,31
 284 635 284 635 280 643 c 128,-1,32
 276 651 276 651 276 653 c 0,33,34
 276 661 276 661 290.5 661 c 128,-1,35
 305 661 305 661 317.5 668 c 128,-1,36
 330 675 330 675 334 684 c 0,37,38
 345 706 345 706 354 706 c 0,39,40
 358 706 358 706 368 676 c 1,41,-1
 569 133 l 2,42,43
 607 33 607 33 622 33 c 2,44,-1
 658 33 l 2,45,46
 668 33 668 33 668 16.5 c 128,-1,47
 668 0 668 0 660 0 c 2,48,-1
 533 1 l 1,0,-1
309 569 m 1,49,50
 278 489 278 489 231 349 c 1,51,-1
 385 349 l 1,52,53
 318 552 318 552 313 569 c 1,54,-1
 309 569 l 1,49,50
404 785.5 m 128,-1,56
 377 759 377 759 338 759 c 128,-1,57
 299 759 299 759 271.5 786 c 128,-1,58
 244 813 244 813 244 850 c 128,-1,59
 244 887 244 887 271.5 913.5 c 128,-1,60
 299 940 299 940 336.5 940 c 128,-1,61
 374 940 374 940 402.5 914.5 c 128,-1,62
 431 889 431 889 431 850.5 c 128,-1,55
 431 812 431 812 404 785.5 c 128,-1,56
296 806 m 128,-1,64
 314 788 314 788 338.5 788 c 128,-1,65
 363 788 363 788 380 806.5 c 128,-1,66
 397 825 397 825 397 850 c 128,-1,67
 397 875 397 875 379.5 893.5 c 128,-1,68
 362 912 362 912 336.5 912 c 128,-1,69
 311 912 311 912 294.5 893.5 c 128,-1,70
 278 875 278 875 278 849.5 c 128,-1,63
 278 824 278 824 296 806 c 128,-1,64
EndSplineSet
EndChar

StartChar: AE
Encoding: 198 198 134
Width: 881
GlyphClass: 2
Flags: W
LayerCount: 2
Fore
SplineSet
433 352 m 1,0,1
 380 352 380 352 230 357 c 1,2,-1
 230 318 l 1,3,-1
 433 320 l 1,4,-1
 433 352 l 1,0,1
73 1 m 1,5,-1
 -26 -2 l 2,6,7
 -35 -2 -35 -2 -35 15 c 128,-1,8
 -35 32 -35 32 -26 32 c 2,9,-1
 12 32 l 2,10,11
 44 32 44 32 110.5 140 c 128,-1,12
 177 248 177 248 269 429 c 128,-1,13
 361 610 361 610 384 650 c 1,14,-1
 418 620 l 1,15,16
 334 479 334 479 231 274.5 c 128,-1,17
 128 70 128 70 128 39 c 0,18,19
 128 33 128 33 132 33 c 2,20,-1
 185 33 l 2,21,22
 196 33 196 33 196 16.5 c 128,-1,23
 196 0 196 0 183 0 c 2,24,-1
 73 1 l 1,5,-1
331 673 m 2,25,-1
 457 671 l 1,26,-1
 747 671 l 1,27,-1
 747 692 l 2,28,29
 747 701 747 701 761.5 701 c 128,-1,30
 776 701 776 701 776 692 c 0,31,32
 776 592 776 592 786 540 c 0,33,34
 788 532 788 532 772 532 c 128,-1,35
 756 532 756 532 754 540 c 0,36,37
 738 603 738 603 716 613 c 1,38,39
 663 633 663 633 546 634 c 1,40,41
 526 633 526 633 519.5 623 c 128,-1,42
 513 613 513 613 513 588 c 2,43,-1
 513 352 l 1,44,45
 575 353 575 353 634 358 c 128,-1,46
 693 363 693 363 698 366 c 1,47,-1
 708 425 l 2,48,49
 709 432 709 432 720 432 c 0,50,51
 741 432 741 432 739 423 c 0,52,53
 734 384 734 384 734 335 c 128,-1,54
 734 286 734 286 739 247 c 0,55,56
 741 239 741 239 724.5 239 c 128,-1,57
 708 239 708 239 708 245 c 1,58,-1
 697 305 l 1,59,60
 691 308 691 308 633.5 313.5 c 128,-1,61
 576 319 576 319 513 320 c 1,62,-1
 513 128 l 1,63,64
 512 114 512 114 512 102 c 0,65,66
 512 40 512 40 534 40 c 2,67,-1
 585 40 l 1,68,69
 740 42 740 42 797 82 c 1,70,-1
 804 137 l 2,71,72
 806 145 806 145 821.5 145 c 128,-1,73
 837 145 837 145 837 139 c 2,74,-1
 828 -22 l 2,75,76
 828 -29 828 -29 812.5 -29 c 128,-1,77
 797 -29 797 -29 797 -22 c 2,78,-1
 797 0 l 1,79,-1
 550 0 l 1,80,-1
 329 -2 l 2,81,82
 321 -2 321 -2 321 15 c 128,-1,83
 321 32 321 32 329 32 c 2,84,-1
 369 32 l 2,85,86
 394 32 394 32 402 41.5 c 128,-1,87
 410 51 410 51 410 78 c 2,88,-1
 410 612 l 1,89,-1
 389 640 l 1,90,-1
 331 640 l 2,91,92
 323 640 323 640 323 656.5 c 128,-1,93
 323 673 323 673 331 673 c 2,25,-1
EndSplineSet
EndChar

StartChar: Ccedilla
Encoding: 199 199 135
Width: 727
GlyphClass: 2
Flags: W
LayerCount: 2
Fore
SplineSet
644 139 m 2,0,1
 646 150 646 150 661.5 150 c 128,-1,2
 677 150 677 150 677 141 c 2,3,-1
 669 2 l 2,4,5
 669 -6 669 -6 653.5 -6 c 128,-1,6
 638 -6 638 -6 638 2 c 2,7,-1
 638 26 l 1,8,9
 540 -13 540 -13 446 -13 c 0,10,11
 410 -13 410 -13 368 -8 c 1,12,-1
 353 -50 l 1,13,14
 355 -50 355 -50 357 -50 c 0,15,16
 389 -50 389 -50 416 -64.5 c 128,-1,17
 443 -79 443 -79 443 -109.5 c 128,-1,18
 443 -140 443 -140 420 -156 c 128,-1,19
 397 -172 397 -172 368.5 -172 c 128,-1,20
 340 -172 340 -172 311.5 -158 c 128,-1,21
 283 -144 283 -144 283 -122.5 c 128,-1,22
 283 -101 283 -101 304 -101 c 0,23,24
 320 -101 320 -101 326 -115 c 1,25,26
 322 -120 322 -120 322 -128 c 128,-1,27
 322 -136 322 -136 334 -143 c 128,-1,28
 346 -150 346 -150 361.5 -150 c 128,-1,29
 377 -150 377 -150 388.5 -140.5 c 128,-1,30
 400 -131 400 -131 400 -114 c 0,31,32
 400 -71 400 -71 340 -71 c 0,33,34
 336 -71 336 -71 328 -71.5 c 128,-1,35
 320 -72 320 -72 316 -72 c 1,36,-1
 341 -4 l 1,37,38
 208 20 208 20 127 102.5 c 128,-1,39
 46 185 46 185 46 306.5 c 128,-1,40
 46 428 46 428 106 514.5 c 128,-1,41
 166 601 166 601 258 642.5 c 128,-1,42
 350 684 350 684 446.5 684 c 128,-1,43
 543 684 543 684 619 645 c 1,44,-1
 619 668 l 2,45,46
 619 677 619 677 633.5 677 c 128,-1,47
 648 677 648 677 648 668 c 0,48,49
 648 587 648 587 658 520 c 0,50,51
 660 510 660 510 643 510 c 128,-1,52
 626 510 626 510 625 520 c 2,53,-1
 617 567 l 1,54,55
 539 639 539 639 430.5 639 c 128,-1,56
 322 639 322 639 246 559.5 c 128,-1,57
 170 480 170 480 170 334.5 c 128,-1,58
 170 189 170 189 250.5 110.5 c 128,-1,59
 331 32 331 32 452 32 c 0,60,61
 550 32 550 32 638 92 c 1,62,-1
 644 139 l 2,0,1
EndSplineSet
EndChar

StartChar: Egrave
Encoding: 200 200 136
Width: 614
GlyphClass: 2
Flags: W
LayerCount: 2
Fore
SplineSet
64 673 m 2,0,-1
 190 671 l 1,1,-1
 480 671 l 1,2,-1
 480 692 l 2,3,4
 480 701 480 701 494.5 701 c 128,-1,5
 509 701 509 701 509 692 c 0,6,7
 509 592 509 592 519 540 c 0,8,9
 521 532 521 532 505 532 c 128,-1,10
 489 532 489 532 487 540 c 0,11,12
 471 603 471 603 449 613 c 1,13,14
 396 633 396 633 279 634 c 1,15,16
 259 633 259 633 252.5 623 c 128,-1,17
 246 613 246 613 246 588 c 2,18,-1
 246 352 l 1,19,20
 308 353 308 353 367 358 c 128,-1,21
 426 363 426 363 431 366 c 1,22,-1
 441 425 l 2,23,24
 442 432 442 432 453 432 c 0,25,26
 474 432 474 432 472 423 c 0,27,28
 467 384 467 384 467 335 c 128,-1,29
 467 286 467 286 472 247 c 0,30,31
 474 239 474 239 457.5 239 c 128,-1,32
 441 239 441 239 441 245 c 1,33,-1
 430 305 l 1,34,35
 424 308 424 308 366.5 313.5 c 128,-1,36
 309 319 309 319 246 320 c 1,37,-1
 246 128 l 2,38,39
 246 40 246 40 267 40 c 2,40,-1
 318 40 l 1,41,42
 473 42 473 42 530 82 c 1,43,-1
 537 137 l 2,44,45
 539 145 539 145 554.5 145 c 128,-1,46
 570 145 570 145 570 139 c 2,47,-1
 561 -22 l 2,48,49
 561 -29 561 -29 545.5 -29 c 128,-1,50
 530 -29 530 -29 530 -22 c 2,51,-1
 530 0 l 1,52,-1
 283 0 l 1,53,-1
 59 -2 l 2,54,55
 51 -2 51 -2 51 15 c 128,-1,56
 51 32 51 32 59 32 c 2,57,-1
 102 32 l 2,58,59
 127 32 127 32 135 41.5 c 128,-1,60
 143 51 143 51 143 78 c 2,61,-1
 143 552 l 2,62,63
 143 640 143 640 122 640 c 2,64,-1
 64 640 l 2,65,66
 56 640 56 640 56 656.5 c 128,-1,67
 56 673 56 673 64 673 c 2,0,-1
216 907 m 0,68,69
 216 921 216 921 226 930 c 128,-1,70
 236 939 236 939 257.5 939 c 128,-1,71
 279 939 279 939 293.5 924.5 c 128,-1,72
 308 910 308 910 343 857 c 128,-1,73
 378 804 378 804 403.5 776 c 128,-1,74
 429 748 429 748 429 745 c 0,75,76
 429 736 429 736 419.5 736 c 128,-1,77
 410 736 410 736 406 739 c 0,78,79
 284 823 284 823 250 852 c 128,-1,80
 216 881 216 881 216 907 c 0,68,69
EndSplineSet
EndChar

StartChar: Eacute
Encoding: 201 201 137
Width: 614
GlyphClass: 2
Flags: W
LayerCount: 2
Fore
SplineSet
289 736 m 0,0,1
 276 736 276 736 276 745 c 0,2,3
 276 748 276 748 297 771.5 c 128,-1,4
 318 795 318 795 348.5 837 c 128,-1,5
 379 879 379 879 390 898 c 0,6,7
 415 939 415 939 454 939 c 0,8,9
 469 939 469 939 479 930 c 128,-1,10
 489 921 489 921 489 907 c 0,11,12
 489 881 489 881 455 852 c 128,-1,13
 421 823 421 823 299 739 c 0,14,15
 294 736 294 736 289 736 c 0,0,1
64 673 m 2,16,-1
 190 671 l 1,17,-1
 480 671 l 1,18,-1
 480 692 l 2,19,20
 480 701 480 701 494.5 701 c 128,-1,21
 509 701 509 701 509 692 c 0,22,23
 509 592 509 592 519 540 c 0,24,25
 521 532 521 532 505 532 c 128,-1,26
 489 532 489 532 487 540 c 0,27,28
 471 603 471 603 449 613 c 1,29,30
 396 633 396 633 279 634 c 1,31,32
 259 633 259 633 252.5 623 c 128,-1,33
 246 613 246 613 246 588 c 2,34,-1
 246 352 l 1,35,36
 308 353 308 353 367 358 c 128,-1,37
 426 363 426 363 431 366 c 1,38,-1
 441 425 l 2,39,40
 442 432 442 432 453 432 c 0,41,42
 474 432 474 432 472 423 c 0,43,44
 467 384 467 384 467 335 c 128,-1,45
 467 286 467 286 472 247 c 0,46,47
 474 239 474 239 457.5 239 c 128,-1,48
 441 239 441 239 441 245 c 1,49,-1
 430 305 l 1,50,51
 424 308 424 308 366.5 313.5 c 128,-1,52
 309 319 309 319 246 320 c 1,53,-1
 246 128 l 2,54,55
 246 40 246 40 267 40 c 2,56,-1
 318 40 l 1,57,58
 473 42 473 42 530 82 c 1,59,-1
 537 137 l 2,60,61
 539 145 539 145 554.5 145 c 128,-1,62
 570 145 570 145 570 139 c 2,63,-1
 561 -22 l 2,64,65
 561 -29 561 -29 545.5 -29 c 128,-1,66
 530 -29 530 -29 530 -22 c 2,67,-1
 530 0 l 1,68,-1
 283 0 l 1,69,-1
 59 -2 l 2,70,71
 51 -2 51 -2 51 15 c 128,-1,72
 51 32 51 32 59 32 c 2,73,-1
 102 32 l 2,74,75
 127 32 127 32 135 41.5 c 128,-1,76
 143 51 143 51 143 78 c 2,77,-1
 143 552 l 2,78,79
 143 640 143 640 122 640 c 2,80,-1
 64 640 l 2,81,82
 56 640 56 640 56 656.5 c 128,-1,83
 56 673 56 673 64 673 c 2,16,-1
EndSplineSet
EndChar

StartChar: Ecircumflex
Encoding: 202 202 138
Width: 614
GlyphClass: 2
Flags: W
LayerCount: 2
Fore
SplineSet
64 673 m 2,0,-1
 190 671 l 1,1,-1
 480 671 l 1,2,-1
 480 692 l 2,3,4
 480 701 480 701 494.5 701 c 128,-1,5
 509 701 509 701 509 692 c 0,6,7
 509 592 509 592 519 540 c 0,8,9
 521 532 521 532 505 532 c 128,-1,10
 489 532 489 532 487 540 c 0,11,12
 471 603 471 603 449 613 c 1,13,14
 396 633 396 633 279 634 c 1,15,16
 259 633 259 633 252.5 623 c 128,-1,17
 246 613 246 613 246 588 c 2,18,-1
 246 352 l 1,19,20
 308 353 308 353 367 358 c 128,-1,21
 426 363 426 363 431 366 c 1,22,-1
 441 425 l 2,23,24
 442 432 442 432 453 432 c 0,25,26
 474 432 474 432 472 423 c 0,27,28
 467 384 467 384 467 335 c 128,-1,29
 467 286 467 286 472 247 c 0,30,31
 474 239 474 239 457.5 239 c 128,-1,32
 441 239 441 239 441 245 c 1,33,-1
 430 305 l 1,34,35
 424 308 424 308 366.5 313.5 c 128,-1,36
 309 319 309 319 246 320 c 1,37,-1
 246 128 l 2,38,39
 246 40 246 40 267 40 c 2,40,-1
 318 40 l 1,41,42
 473 42 473 42 530 82 c 1,43,-1
 537 137 l 2,44,45
 539 145 539 145 554.5 145 c 128,-1,46
 570 145 570 145 570 139 c 2,47,-1
 561 -22 l 2,48,49
 561 -29 561 -29 545.5 -29 c 128,-1,50
 530 -29 530 -29 530 -22 c 2,51,-1
 530 0 l 1,52,-1
 283 0 l 1,53,-1
 59 -2 l 2,54,55
 51 -2 51 -2 51 15 c 128,-1,56
 51 32 51 32 59 32 c 2,57,-1
 102 32 l 2,58,59
 127 32 127 32 135 41.5 c 128,-1,60
 143 51 143 51 143 78 c 2,61,-1
 143 552 l 2,62,63
 143 640 143 640 122 640 c 2,64,-1
 64 640 l 2,65,66
 56 640 56 640 56 656.5 c 128,-1,67
 56 673 56 673 64 673 c 2,0,-1
197 764 m 2,68,69
 188 756 188 756 179 756 c 128,-1,70
 170 756 170 756 167 764 c 1,71,-1
 281 911 l 2,72,73
 292 925 292 925 307 925 c 128,-1,74
 322 925 322 925 336 911 c 1,75,-1
 446 764 l 1,76,77
 441 757 441 757 432 757 c 128,-1,78
 423 757 423 757 415 764 c 2,79,-1
 308 854 l 1,80,-1
 197 764 l 2,68,69
EndSplineSet
EndChar

StartChar: Edieresis
Encoding: 203 203 139
Width: 614
GlyphClass: 2
Flags: W
LayerCount: 2
Fore
SplineSet
64 673 m 2,0,-1
 190 671 l 1,1,-1
 480 671 l 1,2,-1
 480 692 l 2,3,4
 480 701 480 701 494.5 701 c 128,-1,5
 509 701 509 701 509 692 c 0,6,7
 509 592 509 592 519 540 c 0,8,9
 521 532 521 532 505 532 c 128,-1,10
 489 532 489 532 487 540 c 0,11,12
 471 603 471 603 449 613 c 1,13,14
 396 633 396 633 279 634 c 1,15,16
 259 633 259 633 252.5 623 c 128,-1,17
 246 613 246 613 246 588 c 2,18,-1
 246 352 l 1,19,20
 308 353 308 353 367 358 c 128,-1,21
 426 363 426 363 431 366 c 1,22,-1
 441 425 l 2,23,24
 442 432 442 432 453 432 c 0,25,26
 474 432 474 432 472 423 c 0,27,28
 467 384 467 384 467 335 c 128,-1,29
 467 286 467 286 472 247 c 0,30,31
 474 239 474 239 457.5 239 c 128,-1,32
 441 239 441 239 441 245 c 1,33,-1
 430 305 l 1,34,35
 424 308 424 308 366.5 313.5 c 128,-1,36
 309 319 309 319 246 320 c 1,37,-1
 246 128 l 2,38,39
 246 40 246 40 267 40 c 2,40,-1
 318 40 l 1,41,42
 473 42 473 42 530 82 c 1,43,-1
 537 137 l 2,44,45
 539 145 539 145 554.5 145 c 128,-1,46
 570 145 570 145 570 139 c 2,47,-1
 561 -22 l 2,48,49
 561 -29 561 -29 545.5 -29 c 128,-1,50
 530 -29 530 -29 530 -22 c 2,51,-1
 530 0 l 1,52,-1
 283 0 l 1,53,-1
 59 -2 l 2,54,55
 51 -2 51 -2 51 15 c 128,-1,56
 51 32 51 32 59 32 c 2,57,-1
 102 32 l 2,58,59
 127 32 127 32 135 41.5 c 128,-1,60
 143 51 143 51 143 78 c 2,61,-1
 143 552 l 2,62,63
 143 640 143 640 122 640 c 2,64,-1
 64 640 l 2,65,66
 56 640 56 640 56 656.5 c 128,-1,67
 56 673 56 673 64 673 c 2,0,-1
223 789 m 128,-1,69
 201 789 201 789 186.5 804.5 c 128,-1,70
 172 820 172 820 172 841.5 c 128,-1,71
 172 863 172 863 187 877 c 128,-1,72
 202 891 202 891 222.5 891 c 128,-1,73
 243 891 243 891 258.5 876.5 c 128,-1,74
 274 862 274 862 274 841 c 128,-1,75
 274 820 274 820 259.5 804.5 c 128,-1,68
 245 789 245 789 223 789 c 128,-1,69
390 789 m 128,-1,77
 368 789 368 789 353.5 804.5 c 128,-1,78
 339 820 339 820 339 841 c 128,-1,79
 339 862 339 862 354.5 876.5 c 128,-1,80
 370 891 370 891 390 891 c 128,-1,81
 410 891 410 891 425.5 876.5 c 128,-1,82
 441 862 441 862 441 841 c 128,-1,83
 441 820 441 820 426.5 804.5 c 128,-1,76
 412 789 412 789 390 789 c 128,-1,77
EndSplineSet
EndChar

StartChar: Igrave
Encoding: 204 204 140
Width: 384
GlyphClass: 2
Flags: W
LayerCount: 2
Fore
SplineSet
190 672 m 1,0,-1
 330 675 l 2,1,2
 338 675 338 675 338 658 c 128,-1,3
 338 641 338 641 330 641 c 2,4,-1
 287 641 l 2,5,6
 262 641 262 641 254 631.5 c 128,-1,7
 246 622 246 622 246 595 c 2,8,-1
 246 121 l 2,9,10
 246 33 246 33 267 33 c 2,11,-1
 325 33 l 2,12,13
 333 33 333 33 333 16.5 c 128,-1,14
 333 0 333 0 325 0 c 2,15,-1
 199 1 l 1,16,-1
 59 -2 l 2,17,18
 51 -2 51 -2 51 15 c 128,-1,19
 51 32 51 32 59 32 c 2,20,-1
 102 32 l 2,21,22
 127 32 127 32 135 41.5 c 128,-1,23
 143 51 143 51 143 78 c 2,24,-1
 143 552 l 2,25,26
 143 640 143 640 122 640 c 2,27,-1
 64 640 l 2,28,29
 56 640 56 640 56 656.5 c 128,-1,30
 56 673 56 673 64 673 c 2,31,-1
 190 672 l 1,0,-1
86 907 m 0,32,33
 86 921 86 921 96 930 c 128,-1,34
 106 939 106 939 127.5 939 c 128,-1,35
 149 939 149 939 163.5 924.5 c 128,-1,36
 178 910 178 910 213 857 c 128,-1,37
 248 804 248 804 273.5 776 c 128,-1,38
 299 748 299 748 299 745 c 0,39,40
 299 736 299 736 289.5 736 c 128,-1,41
 280 736 280 736 276 739 c 0,42,43
 154 823 154 823 120 852 c 128,-1,44
 86 881 86 881 86 907 c 0,32,33
EndSplineSet
EndChar

StartChar: Iacute
Encoding: 205 205 141
Width: 392
GlyphClass: 2
Flags: W
LayerCount: 2
Fore
SplineSet
152 739 m 0,0,1
 148 736 148 736 138.5 736 c 128,-1,2
 129 736 129 736 129 745 c 0,3,4
 129 748 129 748 150 771.5 c 128,-1,5
 171 795 171 795 201.5 837 c 128,-1,6
 232 879 232 879 243 898 c 0,7,8
 268 939 268 939 307 939 c 0,9,10
 322 939 322 939 332 930 c 128,-1,11
 342 921 342 921 342 907 c 0,12,13
 342 881 342 881 308 852 c 128,-1,14
 274 823 274 823 152 739 c 0,0,1
190 672 m 1,15,-1
 330 675 l 2,16,17
 338 675 338 675 338 658 c 128,-1,18
 338 641 338 641 330 641 c 2,19,-1
 287 641 l 2,20,21
 262 641 262 641 254 631.5 c 128,-1,22
 246 622 246 622 246 595 c 2,23,-1
 246 121 l 2,24,25
 246 33 246 33 267 33 c 2,26,-1
 325 33 l 2,27,28
 333 33 333 33 333 16.5 c 128,-1,29
 333 0 333 0 325 0 c 2,30,-1
 199 1 l 1,31,-1
 59 -2 l 2,32,33
 51 -2 51 -2 51 15 c 128,-1,34
 51 32 51 32 59 32 c 2,35,-1
 102 32 l 2,36,37
 127 32 127 32 135 41.5 c 128,-1,38
 143 51 143 51 143 78 c 2,39,-1
 143 552 l 2,40,41
 143 640 143 640 122 640 c 2,42,-1
 64 640 l 2,43,44
 56 640 56 640 56 656.5 c 128,-1,45
 56 673 56 673 64 673 c 2,46,-1
 190 672 l 1,15,-1
EndSplineSet
EndChar

StartChar: Icircumflex
Encoding: 206 206 142
Width: 384
GlyphClass: 2
Flags: W
LayerCount: 2
Fore
SplineSet
190 672 m 1,0,-1
 330 675 l 2,1,2
 338 675 338 675 338 658 c 128,-1,3
 338 641 338 641 330 641 c 2,4,-1
 287 641 l 2,5,6
 262 641 262 641 254 631.5 c 128,-1,7
 246 622 246 622 246 595 c 2,8,-1
 246 121 l 2,9,10
 246 33 246 33 267 33 c 2,11,-1
 325 33 l 2,12,13
 333 33 333 33 333 16.5 c 128,-1,14
 333 0 333 0 325 0 c 2,15,-1
 199 1 l 1,16,-1
 59 -2 l 2,17,18
 51 -2 51 -2 51 15 c 128,-1,19
 51 32 51 32 59 32 c 2,20,-1
 102 32 l 2,21,22
 127 32 127 32 135 41.5 c 128,-1,23
 143 51 143 51 143 78 c 2,24,-1
 143 552 l 2,25,26
 143 640 143 640 122 640 c 2,27,-1
 64 640 l 2,28,29
 56 640 56 640 56 656.5 c 128,-1,30
 56 673 56 673 64 673 c 2,31,-1
 190 672 l 1,0,-1
83 764 m 2,32,33
 74 756 74 756 65 756 c 128,-1,34
 56 756 56 756 53 764 c 1,35,-1
 167 911 l 2,36,37
 178 925 178 925 193 925 c 128,-1,38
 208 925 208 925 222 911 c 1,39,-1
 332 764 l 1,40,41
 327 757 327 757 318 757 c 128,-1,42
 309 757 309 757 301 764 c 2,43,-1
 194 854 l 1,44,-1
 83 764 l 2,32,33
EndSplineSet
EndChar

StartChar: Idieresis
Encoding: 207 207 143
Width: 384
GlyphClass: 2
Flags: W
LayerCount: 2
Fore
SplineSet
190 672 m 1,0,-1
 330 675 l 2,1,2
 338 675 338 675 338 658 c 128,-1,3
 338 641 338 641 330 641 c 2,4,-1
 287 641 l 2,5,6
 262 641 262 641 254 631.5 c 128,-1,7
 246 622 246 622 246 595 c 2,8,-1
 246 121 l 2,9,10
 246 33 246 33 267 33 c 2,11,-1
 325 33 l 2,12,13
 333 33 333 33 333 16.5 c 128,-1,14
 333 0 333 0 325 0 c 2,15,-1
 199 1 l 1,16,-1
 59 -2 l 2,17,18
 51 -2 51 -2 51 15 c 128,-1,19
 51 32 51 32 59 32 c 2,20,-1
 102 32 l 2,21,22
 127 32 127 32 135 41.5 c 128,-1,23
 143 51 143 51 143 78 c 2,24,-1
 143 552 l 2,25,26
 143 640 143 640 122 640 c 2,27,-1
 64 640 l 2,28,29
 56 640 56 640 56 656.5 c 128,-1,30
 56 673 56 673 64 673 c 2,31,-1
 190 672 l 1,0,-1
109 789 m 128,-1,33
 87 789 87 789 72.5 804.5 c 128,-1,34
 58 820 58 820 58 841.5 c 128,-1,35
 58 863 58 863 73 877 c 128,-1,36
 88 891 88 891 108.5 891 c 128,-1,37
 129 891 129 891 144.5 876.5 c 128,-1,38
 160 862 160 862 160 841 c 128,-1,39
 160 820 160 820 145.5 804.5 c 128,-1,32
 131 789 131 789 109 789 c 128,-1,33
276 789 m 128,-1,41
 254 789 254 789 239.5 804.5 c 128,-1,42
 225 820 225 820 225 841 c 128,-1,43
 225 862 225 862 240.5 876.5 c 128,-1,44
 256 891 256 891 276 891 c 128,-1,45
 296 891 296 891 311.5 876.5 c 128,-1,46
 327 862 327 862 327 841 c 128,-1,47
 327 820 327 820 312.5 804.5 c 128,-1,40
 298 789 298 789 276 789 c 128,-1,41
EndSplineSet
EndChar

StartChar: Eth
Encoding: 208 208 144
Width: 780
GlyphClass: 2
Flags: W
LayerCount: 2
Fore
SplineSet
59 673 m 2,0,-1
 191 671 l 1,1,-1
 327 671 l 2,2,3
 513 671 513 671 623.5 578.5 c 128,-1,4
 734 486 734 486 734 334 c 128,-1,5
 734 182 734 182 624 91 c 128,-1,6
 514 0 514 0 346 0 c 2,7,-1
 229 0 l 1,8,-1
 59 -2 l 2,9,10
 51 -2 51 -2 51 15 c 128,-1,11
 51 32 51 32 59 32 c 2,12,-1
 102 32 l 2,13,14
 127 32 127 32 135 41.5 c 128,-1,15
 143 51 143 51 143 78 c 2,16,-1
 143 335 l 1,17,-1
 105 335 l 2,18,19
 88 335 88 335 79 346 c 128,-1,20
 70 357 70 357 69 368 c 2,21,-1
 68 379 l 1,22,-1
 143 379 l 1,23,-1
 143 554 l 2,24,25
 143 639 143 639 122 639 c 2,26,-1
 59 639 l 2,27,28
 50 639 50 639 50 656 c 128,-1,29
 50 673 50 673 59 673 c 2,0,-1
281 631 m 0,30,31
 246 631 246 631 246 590 c 2,32,-1
 246 380 l 1,33,-1
 375 383 l 1,34,35
 422 383 422 383 422 341 c 0,36,37
 422 338 422 338 422 334 c 1,38,-1
 246 334 l 1,39,-1
 246 128 l 2,40,41
 246 40 246 40 267 40 c 2,42,-1
 349 41 l 2,43,44
 473 43 473 43 546.5 115.5 c 128,-1,45
 620 188 620 188 620 319.5 c 128,-1,46
 620 451 620 451 539 535.5 c 128,-1,47
 458 620 458 620 284 631 c 0,48,49
 282 631 282 631 281 631 c 0,30,31
EndSplineSet
EndChar

StartChar: Ntilde
Encoding: 209 209 145
Width: 820
GlyphClass: 2
Flags: W
LayerCount: 2
Fore
SplineSet
278 773 m 0,0,1
 276 765 276 765 269 765 c 128,-1,2
 262 765 262 765 256.5 770.5 c 128,-1,3
 251 776 251 776 251 784 c 0,4,5
 254 851 254 851 282 878 c 128,-1,6
 310 905 310 905 339.5 905 c 128,-1,7
 369 905 369 905 403.5 898.5 c 128,-1,8
 438 892 438 892 457.5 892 c 128,-1,9
 477 892 477 892 487 893 c 128,-1,10
 497 894 497 894 510 900 c 0,11,12
 536 911 536 911 544 959 c 0,13,14
 545 967 545 967 553.5 967 c 128,-1,15
 562 967 562 967 566.5 962 c 128,-1,16
 571 957 571 957 570 949 c 0,17,18
 565 829 565 829 472 829 c 0,19,20
 452 829 452 829 417.5 835.5 c 128,-1,21
 383 842 383 842 355.5 842 c 128,-1,22
 328 842 328 842 307 828.5 c 128,-1,23
 286 815 286 815 278 773 c 0,0,1
664 671 m 1,24,-1
 782 674 l 2,25,26
 791 674 791 674 791 657.5 c 128,-1,27
 791 641 791 641 782 641 c 2,28,-1
 735 641 l 2,29,30
 715 641 715 641 709 632 c 0,31,32
 686 598 686 598 684 -12 c 1,33,34
 682 -19 682 -19 668 -19 c 128,-1,35
 654 -19 654 -19 647 -12 c 0,36,37
 355 335 355 335 187 539 c 1,38,-1
 183 539 l 1,39,40
 187 175 187 175 189 104 c 128,-1,41
 191 33 191 33 210 33 c 2,42,-1
 265 33 l 2,43,44
 274 33 274 33 274 16.5 c 128,-1,45
 274 0 274 0 265 0 c 2,46,-1
 159 1 l 1,47,-1
 40 -2 l 2,48,49
 33 -2 33 -2 33 15 c 128,-1,50
 33 32 33 32 40 32 c 2,51,-1
 73 32 l 2,52,53
 96 32 96 32 106 37.5 c 128,-1,54
 116 43 116 43 117 59 c 0,55,56
 137 284 137 284 137 597 c 1,57,-1
 130 605 l 2,58,59
 110 628 110 628 94.5 634.5 c 128,-1,60
 79 641 79 641 37 641 c 0,61,62
 31 641 31 641 31 657 c 128,-1,63
 31 673 31 673 37 673 c 2,64,65
 37 673 37 673 218 671 c 1,66,67
 574 225 574 225 632 147 c 1,68,-1
 636 147 l 1,69,70
 630 544 630 544 626 592 c 128,-1,71
 622 640 622 640 603 640 c 2,72,-1
 555 640 l 2,73,74
 546 640 546 640 546 656.5 c 128,-1,75
 546 673 546 673 555 673 c 2,76,-1
 664 671 l 1,24,-1
EndSplineSet
EndChar

StartChar: Ograve
Encoding: 210 210 146
Width: 824
GlyphClass: 2
Flags: W
LayerCount: 2
Fore
SplineSet
412 684 m 128,-1,1
 562 684 562 684 669 582 c 128,-1,2
 776 480 776 480 776 335.5 c 128,-1,3
 776 191 776 191 669 89 c 128,-1,4
 562 -13 562 -13 412 -13 c 128,-1,5
 262 -13 262 -13 155 89 c 128,-1,6
 48 191 48 191 48 335.5 c 128,-1,7
 48 480 48 480 155 582 c 128,-1,0
 262 684 262 684 412 684 c 128,-1,1
412 638 m 128,-1,9
 307 638 307 638 240.5 551 c 128,-1,10
 174 464 174 464 174 335.5 c 128,-1,11
 174 207 174 207 240.5 120 c 128,-1,12
 307 33 307 33 412 33 c 128,-1,13
 517 33 517 33 583.5 120 c 128,-1,14
 650 207 650 207 650 335.5 c 128,-1,15
 650 464 650 464 583.5 551 c 128,-1,8
 517 638 517 638 412 638 c 128,-1,9
316 907 m 0,16,17
 316 921 316 921 326 930 c 128,-1,18
 336 939 336 939 357.5 939 c 128,-1,19
 379 939 379 939 393.5 924.5 c 128,-1,20
 408 910 408 910 443 857 c 128,-1,21
 478 804 478 804 503.5 776 c 128,-1,22
 529 748 529 748 529 745 c 0,23,24
 529 736 529 736 519.5 736 c 128,-1,25
 510 736 510 736 506 739 c 0,26,27
 384 823 384 823 350 852 c 128,-1,28
 316 881 316 881 316 907 c 0,16,17
EndSplineSet
EndChar

StartChar: Oacute
Encoding: 211 211 147
Width: 824
GlyphClass: 2
Flags: W
LayerCount: 2
Fore
SplineSet
385 736 m 0,0,1
 372 736 372 736 372 745 c 0,2,3
 372 748 372 748 393 771.5 c 128,-1,4
 414 795 414 795 444.5 837 c 128,-1,5
 475 879 475 879 486 898 c 0,6,7
 511 939 511 939 550 939 c 0,8,9
 565 939 565 939 575 930 c 128,-1,10
 585 921 585 921 585 907 c 0,11,12
 585 881 585 881 551 852 c 128,-1,13
 517 823 517 823 395 739 c 0,14,15
 390 736 390 736 385 736 c 0,0,1
412 684 m 128,-1,17
 562 684 562 684 669 582 c 128,-1,18
 776 480 776 480 776 335.5 c 128,-1,19
 776 191 776 191 669 89 c 128,-1,20
 562 -13 562 -13 412 -13 c 128,-1,21
 262 -13 262 -13 155 89 c 128,-1,22
 48 191 48 191 48 335.5 c 128,-1,23
 48 480 48 480 155 582 c 128,-1,16
 262 684 262 684 412 684 c 128,-1,17
412 638 m 128,-1,25
 307 638 307 638 240.5 551 c 128,-1,26
 174 464 174 464 174 335.5 c 128,-1,27
 174 207 174 207 240.5 120 c 128,-1,28
 307 33 307 33 412 33 c 128,-1,29
 517 33 517 33 583.5 120 c 128,-1,30
 650 207 650 207 650 335.5 c 128,-1,31
 650 464 650 464 583.5 551 c 128,-1,24
 517 638 517 638 412 638 c 128,-1,25
EndSplineSet
EndChar

StartChar: Ocircumflex
Encoding: 212 212 148
Width: 824
GlyphClass: 2
Flags: W
LayerCount: 2
Fore
SplineSet
412 684 m 128,-1,1
 562 684 562 684 669 582 c 128,-1,2
 776 480 776 480 776 335.5 c 128,-1,3
 776 191 776 191 669 89 c 128,-1,4
 562 -13 562 -13 412 -13 c 128,-1,5
 262 -13 262 -13 155 89 c 128,-1,6
 48 191 48 191 48 335.5 c 128,-1,7
 48 480 48 480 155 582 c 128,-1,0
 262 684 262 684 412 684 c 128,-1,1
412 638 m 128,-1,9
 307 638 307 638 240.5 551 c 128,-1,10
 174 464 174 464 174 335.5 c 128,-1,11
 174 207 174 207 240.5 120 c 128,-1,12
 307 33 307 33 412 33 c 128,-1,13
 517 33 517 33 583.5 120 c 128,-1,14
 650 207 650 207 650 335.5 c 128,-1,15
 650 464 650 464 583.5 551 c 128,-1,8
 517 638 517 638 412 638 c 128,-1,9
322 764 m 2,16,17
 313 756 313 756 304 756 c 128,-1,18
 295 756 295 756 292 764 c 1,19,-1
 406 911 l 2,20,21
 417 925 417 925 432 925 c 128,-1,22
 447 925 447 925 461 911 c 1,23,-1
 571 764 l 1,24,25
 566 757 566 757 557 757 c 128,-1,26
 548 757 548 757 540 764 c 2,27,-1
 433 854 l 1,28,-1
 322 764 l 2,16,17
EndSplineSet
EndChar

StartChar: Otilde
Encoding: 213 213 149
Width: 824
GlyphClass: 2
Flags: W
LayerCount: 2
Fore
SplineSet
412 684 m 128,-1,1
 562 684 562 684 669 582 c 128,-1,2
 776 480 776 480 776 335.5 c 128,-1,3
 776 191 776 191 669 89 c 128,-1,4
 562 -13 562 -13 412 -13 c 128,-1,5
 262 -13 262 -13 155 89 c 128,-1,6
 48 191 48 191 48 335.5 c 128,-1,7
 48 480 48 480 155 582 c 128,-1,0
 262 684 262 684 412 684 c 128,-1,1
412 638 m 128,-1,9
 307 638 307 638 240.5 551 c 128,-1,10
 174 464 174 464 174 335.5 c 128,-1,11
 174 207 174 207 240.5 120 c 128,-1,12
 307 33 307 33 412 33 c 128,-1,13
 517 33 517 33 583.5 120 c 128,-1,14
 650 207 650 207 650 335.5 c 128,-1,15
 650 464 650 464 583.5 551 c 128,-1,8
 517 638 517 638 412 638 c 128,-1,9
272 773 m 0,16,17
 270 765 270 765 263 765 c 128,-1,18
 256 765 256 765 250.5 770.5 c 128,-1,19
 245 776 245 776 245 784 c 0,20,21
 248 851 248 851 280 882 c 128,-1,22
 312 913 312 913 349 913 c 0,23,24
 371 913 371 913 405.5 906.5 c 128,-1,25
 440 900 440 900 459 900 c 128,-1,26
 478 900 478 900 490 901.5 c 128,-1,27
 502 903 502 903 516 910 c 0,28,29
 544 923 544 923 552 970 c 0,30,31
 553 978 553 978 562 978 c 0,32,33
 578 978 578 978 578 963 c 0,34,35
 578 893 578 893 546 861 c 128,-1,36
 514 829 514 829 474 829 c 0,37,38
 454 829 454 829 419.5 835.5 c 128,-1,39
 385 842 385 842 356.5 842 c 128,-1,40
 328 842 328 842 304 828.5 c 128,-1,41
 280 815 280 815 272 773 c 0,16,17
EndSplineSet
EndChar

StartChar: Odieresis
Encoding: 214 214 150
Width: 824
GlyphClass: 2
Flags: W
LayerCount: 2
Fore
SplineSet
412 684 m 128,-1,1
 562 684 562 684 669 582 c 128,-1,2
 776 480 776 480 776 335.5 c 128,-1,3
 776 191 776 191 669 89 c 128,-1,4
 562 -13 562 -13 412 -13 c 128,-1,5
 262 -13 262 -13 155 89 c 128,-1,6
 48 191 48 191 48 335.5 c 128,-1,7
 48 480 48 480 155 582 c 128,-1,0
 262 684 262 684 412 684 c 128,-1,1
412 638 m 128,-1,9
 307 638 307 638 240.5 551 c 128,-1,10
 174 464 174 464 174 335.5 c 128,-1,11
 174 207 174 207 240.5 120 c 128,-1,12
 307 33 307 33 412 33 c 128,-1,13
 517 33 517 33 583.5 120 c 128,-1,14
 650 207 650 207 650 335.5 c 128,-1,15
 650 464 650 464 583.5 551 c 128,-1,8
 517 638 517 638 412 638 c 128,-1,9
328 789 m 128,-1,17
 306 789 306 789 291.5 804.5 c 128,-1,18
 277 820 277 820 277 841.5 c 128,-1,19
 277 863 277 863 292 877 c 128,-1,20
 307 891 307 891 327.5 891 c 128,-1,21
 348 891 348 891 363.5 876.5 c 128,-1,22
 379 862 379 862 379 841 c 128,-1,23
 379 820 379 820 364.5 804.5 c 128,-1,16
 350 789 350 789 328 789 c 128,-1,17
495 789 m 128,-1,25
 473 789 473 789 458.5 804.5 c 128,-1,26
 444 820 444 820 444 841 c 128,-1,27
 444 862 444 862 459.5 876.5 c 128,-1,28
 475 891 475 891 495 891 c 128,-1,29
 515 891 515 891 530.5 876.5 c 128,-1,30
 546 862 546 862 546 841 c 128,-1,31
 546 820 546 820 531.5 804.5 c 128,-1,24
 517 789 517 789 495 789 c 128,-1,25
EndSplineSet
EndChar

StartChar: multiply
Encoding: 215 215 151
Width: 520
GlyphClass: 2
Flags: W
LayerCount: 2
Fore
SplineSet
468 81 m 1,0,1
 451 56 451 56 440 56 c 128,-1,2
 429 56 429 56 412 71 c 1,3,-1
 260 225 l 1,4,-1
 108 71 l 1,5,6
 91 56 91 56 84.5 56 c 128,-1,7
 78 56 78 56 76 56 c 0,8,9
 67 58 67 58 52 81 c 1,10,-1
 228 256 l 1,11,-1
 45 438 l 1,12,13
 55 464 55 464 73 464 c 0,14,15
 85 464 85 464 98 451 c 2,16,-1
 260 287 l 1,17,-1
 422 451 l 2,18,19
 435 464 435 464 442 464 c 128,-1,20
 449 464 449 464 453.5 462.5 c 128,-1,21
 458 461 458 461 464 455 c 128,-1,22
 470 449 470 449 475 438 c 1,23,-1
 291 256 l 1,24,-1
 468 81 l 1,0,1
EndSplineSet
EndChar

StartChar: Oslash
Encoding: 216 216 152
Width: 824
GlyphClass: 2
Flags: W
LayerCount: 2
Fore
SplineSet
776 336 m 0,0,1
 776 191 776 191 669 89 c 128,-1,2
 562 -13 562 -13 412 -13 c 0,3,4
 350 -13 350 -13 295 5 c 1,5,-1
 232 -113 l 2,6,7
 220 -137 220 -137 206.5 -137 c 128,-1,8
 193 -137 193 -137 176 -120 c 1,9,-1
 252 22 l 1,10,11
 160 66 160 66 104 150 c 128,-1,12
 48 234 48 234 48 336 c 0,13,14
 48 480 48 480 155 582 c 128,-1,15
 262 684 262 684 412 684 c 0,16,17
 504 684 504 684 585 641 c 1,18,-1
 642 746 l 2,19,20
 653 766 653 766 663 766 c 0,21,22
 681 766 681 766 696 749 c 1,23,-1
 625 617 l 1,24,25
 695 569 695 569 735.5 495 c 128,-1,26
 776 421 776 421 776 336 c 0,0,1
412 638 m 0,27,28
 307 638 307 638 240.5 551 c 128,-1,29
 174 464 174 464 174 336 c 0,30,31
 174 254 174 254 202.5 186 c 128,-1,32
 231 118 231 118 282 78 c 1,33,-1
 554 582 l 1,34,35
 492 638 492 638 412 638 c 0,27,28
583.5 120 m 128,-1,37
 650 207 650 207 650 334 c 128,-1,38
 650 461 650 461 587 546 c 1,39,-1
 321 53 l 1,40,41
 364 33 364 33 412 33 c 0,42,36
 517 33 517 33 583.5 120 c 128,-1,37
EndSplineSet
EndChar

StartChar: Ugrave
Encoding: 217 217 153
Width: 782
GlyphClass: 2
Flags: W
LayerCount: 2
Fore
SplineSet
631 672 m 1,0,-1
 739 675 l 2,1,2
 747 675 747 675 747 658 c 128,-1,3
 747 641 747 641 739 641 c 2,4,-1
 709 641 l 2,5,6
 684 641 684 641 676.5 631.5 c 128,-1,7
 669 622 669 622 667 595 c 0,8,9
 658 460 658 460 658 255 c 0,10,11
 658 129 658 129 580 58 c 128,-1,12
 502 -13 502 -13 394.5 -13 c 128,-1,13
 287 -13 287 -13 209.5 53.5 c 128,-1,14
 132 120 132 120 132 241 c 2,15,-1
 132 552 l 2,16,17
 132 640 132 640 111 640 c 2,18,-1
 53 640 l 2,19,20
 45 640 45 640 45 656.5 c 128,-1,21
 45 673 45 673 53 673 c 2,22,-1
 179 672 l 1,23,-1
 319 675 l 2,24,25
 327 675 327 675 327 658 c 128,-1,26
 327 641 327 641 319 641 c 2,27,-1
 276 641 l 2,28,29
 251 641 251 641 243 631.5 c 128,-1,30
 235 622 235 622 235 595 c 2,31,-1
 235 269 l 2,32,33
 235 163 235 163 287.5 109.5 c 128,-1,34
 340 56 340 56 422 56 c 128,-1,35
 504 56 504 56 552.5 115.5 c 128,-1,36
 601 175 601 175 601 290 c 0,37,38
 601 449 601 449 597 544.5 c 128,-1,39
 593 640 593 640 574 640 c 2,40,-1
 518 640 l 2,41,42
 510 640 510 640 510 656.5 c 128,-1,43
 510 673 510 673 518 673 c 2,44,-1
 631 672 l 1,0,-1
286 907 m 0,45,46
 286 921 286 921 296 930 c 128,-1,47
 306 939 306 939 327.5 939 c 128,-1,48
 349 939 349 939 363.5 924.5 c 128,-1,49
 378 910 378 910 413 857 c 128,-1,50
 448 804 448 804 473.5 776 c 128,-1,51
 499 748 499 748 499 745 c 0,52,53
 499 736 499 736 489.5 736 c 128,-1,54
 480 736 480 736 476 739 c 0,55,56
 354 823 354 823 320 852 c 128,-1,57
 286 881 286 881 286 907 c 0,45,46
EndSplineSet
EndChar

StartChar: Uacute
Encoding: 218 218 154
Width: 782
GlyphClass: 2
Flags: W
LayerCount: 2
Fore
SplineSet
381 736 m 0,0,1
 368 736 368 736 368 745 c 0,2,3
 368 748 368 748 389 771.5 c 128,-1,4
 410 795 410 795 440.5 837 c 128,-1,5
 471 879 471 879 482 898 c 0,6,7
 507 939 507 939 546 939 c 0,8,9
 561 939 561 939 571 930 c 128,-1,10
 581 921 581 921 581 907 c 0,11,12
 581 881 581 881 547 852 c 128,-1,13
 513 823 513 823 391 739 c 0,14,15
 386 736 386 736 381 736 c 0,0,1
631 672 m 1,16,-1
 739 675 l 2,17,18
 747 675 747 675 747 658 c 128,-1,19
 747 641 747 641 739 641 c 2,20,-1
 709 641 l 2,21,22
 684 641 684 641 676.5 631.5 c 128,-1,23
 669 622 669 622 667 595 c 0,24,25
 658 460 658 460 658 255 c 0,26,27
 658 129 658 129 580 58 c 128,-1,28
 502 -13 502 -13 394.5 -13 c 128,-1,29
 287 -13 287 -13 209.5 53.5 c 128,-1,30
 132 120 132 120 132 241 c 2,31,-1
 132 552 l 2,32,33
 132 640 132 640 111 640 c 2,34,-1
 53 640 l 2,35,36
 45 640 45 640 45 656.5 c 128,-1,37
 45 673 45 673 53 673 c 2,38,-1
 179 672 l 1,39,-1
 319 675 l 2,40,41
 327 675 327 675 327 658 c 128,-1,42
 327 641 327 641 319 641 c 2,43,-1
 276 641 l 2,44,45
 251 641 251 641 243 631.5 c 128,-1,46
 235 622 235 622 235 595 c 2,47,-1
 235 269 l 2,48,49
 235 163 235 163 287.5 109.5 c 128,-1,50
 340 56 340 56 422 56 c 128,-1,51
 504 56 504 56 552.5 115.5 c 128,-1,52
 601 175 601 175 601 290 c 0,53,54
 601 449 601 449 597 544.5 c 128,-1,55
 593 640 593 640 574 640 c 2,56,-1
 518 640 l 2,57,58
 510 640 510 640 510 656.5 c 128,-1,59
 510 673 510 673 518 673 c 2,60,-1
 631 672 l 1,16,-1
EndSplineSet
EndChar

StartChar: Ucircumflex
Encoding: 219 219 155
Width: 782
GlyphClass: 2
Flags: W
LayerCount: 2
Fore
SplineSet
631 672 m 1,0,-1
 739 675 l 2,1,2
 747 675 747 675 747 658 c 128,-1,3
 747 641 747 641 739 641 c 2,4,-1
 709 641 l 2,5,6
 684 641 684 641 676.5 631.5 c 128,-1,7
 669 622 669 622 667 595 c 0,8,9
 658 460 658 460 658 255 c 0,10,11
 658 129 658 129 580 58 c 128,-1,12
 502 -13 502 -13 394.5 -13 c 128,-1,13
 287 -13 287 -13 209.5 53.5 c 128,-1,14
 132 120 132 120 132 241 c 2,15,-1
 132 552 l 2,16,17
 132 640 132 640 111 640 c 2,18,-1
 53 640 l 2,19,20
 45 640 45 640 45 656.5 c 128,-1,21
 45 673 45 673 53 673 c 2,22,-1
 179 672 l 1,23,-1
 319 675 l 2,24,25
 327 675 327 675 327 658 c 128,-1,26
 327 641 327 641 319 641 c 2,27,-1
 276 641 l 2,28,29
 251 641 251 641 243 631.5 c 128,-1,30
 235 622 235 622 235 595 c 2,31,-1
 235 269 l 2,32,33
 235 163 235 163 287.5 109.5 c 128,-1,34
 340 56 340 56 422 56 c 128,-1,35
 504 56 504 56 552.5 115.5 c 128,-1,36
 601 175 601 175 601 290 c 0,37,38
 601 449 601 449 597 544.5 c 128,-1,39
 593 640 593 640 574 640 c 2,40,-1
 518 640 l 2,41,42
 510 640 510 640 510 656.5 c 128,-1,43
 510 673 510 673 518 673 c 2,44,-1
 631 672 l 1,0,-1
321 764 m 2,45,46
 312 756 312 756 303 756 c 128,-1,47
 294 756 294 756 291 764 c 1,48,-1
 405 911 l 2,49,50
 416 925 416 925 431 925 c 128,-1,51
 446 925 446 925 460 911 c 1,52,-1
 570 764 l 1,53,54
 565 757 565 757 556 757 c 128,-1,55
 547 757 547 757 539 764 c 2,56,-1
 432 854 l 1,57,-1
 321 764 l 2,45,46
EndSplineSet
EndChar

StartChar: Udieresis
Encoding: 220 220 156
Width: 782
GlyphClass: 2
Flags: W
LayerCount: 2
Fore
SplineSet
631 672 m 1,0,-1
 739 675 l 2,1,2
 747 675 747 675 747 658 c 128,-1,3
 747 641 747 641 739 641 c 2,4,-1
 709 641 l 2,5,6
 684 641 684 641 676.5 631.5 c 128,-1,7
 669 622 669 622 667 595 c 0,8,9
 658 460 658 460 658 255 c 0,10,11
 658 129 658 129 580 58 c 128,-1,12
 502 -13 502 -13 394.5 -13 c 128,-1,13
 287 -13 287 -13 209.5 53.5 c 128,-1,14
 132 120 132 120 132 241 c 2,15,-1
 132 552 l 2,16,17
 132 640 132 640 111 640 c 2,18,-1
 53 640 l 2,19,20
 45 640 45 640 45 656.5 c 128,-1,21
 45 673 45 673 53 673 c 2,22,-1
 179 672 l 1,23,-1
 319 675 l 2,24,25
 327 675 327 675 327 658 c 128,-1,26
 327 641 327 641 319 641 c 2,27,-1
 276 641 l 2,28,29
 251 641 251 641 243 631.5 c 128,-1,30
 235 622 235 622 235 595 c 2,31,-1
 235 269 l 2,32,33
 235 163 235 163 287.5 109.5 c 128,-1,34
 340 56 340 56 422 56 c 128,-1,35
 504 56 504 56 552.5 115.5 c 128,-1,36
 601 175 601 175 601 290 c 0,37,38
 601 449 601 449 597 544.5 c 128,-1,39
 593 640 593 640 574 640 c 2,40,-1
 518 640 l 2,41,42
 510 640 510 640 510 656.5 c 128,-1,43
 510 673 510 673 518 673 c 2,44,-1
 631 672 l 1,0,-1
347 789 m 128,-1,46
 325 789 325 789 310.5 804.5 c 128,-1,47
 296 820 296 820 296 841.5 c 128,-1,48
 296 863 296 863 311 877 c 128,-1,49
 326 891 326 891 346.5 891 c 128,-1,50
 367 891 367 891 382.5 876.5 c 128,-1,51
 398 862 398 862 398 841 c 128,-1,52
 398 820 398 820 383.5 804.5 c 128,-1,45
 369 789 369 789 347 789 c 128,-1,46
514 789 m 128,-1,54
 492 789 492 789 477.5 804.5 c 128,-1,55
 463 820 463 820 463 841 c 128,-1,56
 463 862 463 862 478.5 876.5 c 128,-1,57
 494 891 494 891 514 891 c 128,-1,58
 534 891 534 891 549.5 876.5 c 128,-1,59
 565 862 565 862 565 841 c 128,-1,60
 565 820 565 820 550.5 804.5 c 128,-1,53
 536 789 536 789 514 789 c 128,-1,54
EndSplineSet
EndChar

StartChar: Yacute
Encoding: 221 221 157
Width: 606
GlyphClass: 2
Flags: W
LayerCount: 2
Fore
SplineSet
318 739 m 0,0,1
 314 736 314 736 304.5 736 c 128,-1,2
 295 736 295 736 295 745 c 0,3,4
 295 748 295 748 316 771.5 c 128,-1,5
 337 795 337 795 367.5 837 c 128,-1,6
 398 879 398 879 409 898 c 0,7,8
 434 939 434 939 473 939 c 0,9,10
 488 939 488 939 498 930 c 128,-1,11
 508 921 508 921 508 907 c 0,12,13
 508 881 508 881 474 852 c 128,-1,14
 440 823 440 823 318 739 c 0,0,1
310 1 m 1,15,-1
 172 -2 l 2,16,17
 164 -2 164 -2 164 15 c 128,-1,18
 164 32 164 32 172 32 c 2,19,-1
 215 32 l 2,20,21
 240 32 240 32 248 41.5 c 128,-1,22
 256 51 256 51 256 78 c 2,23,-1
 256 302 l 1,24,25
 257 343 257 343 55 577 c 0,26,27
 22 616 22 616 4 628.5 c 128,-1,28
 -14 641 -14 641 -29 641 c 2,29,-1
 -61 641 l 2,30,31
 -68 641 -68 641 -68 657 c 128,-1,32
 -68 673 -68 673 -61 673 c 2,33,-1
 63 671 l 1,34,-1
 204 673 l 2,35,36
 213 673 213 673 213 656.5 c 128,-1,37
 213 640 213 640 204 640 c 2,38,-1
 134 640 l 1,39,40
 134 636 134 636 170 593 c 0,41,42
 286 457 286 457 324 379 c 1,43,-1
 327 379 l 1,44,45
 348 415 348 415 416.5 500.5 c 128,-1,46
 485 586 485 586 493.5 603 c 128,-1,47
 502 620 502 620 502 629 c 0,48,49
 502 641 502 641 491 641 c 2,50,-1
 452 641 l 2,51,52
 443 641 443 641 443 657 c 128,-1,53
 443 673 443 673 452 673 c 2,54,-1
 570 671 l 1,55,-1
 681 673 l 2,56,57
 691 673 691 673 691 656.5 c 128,-1,58
 691 640 691 640 681 640 c 2,59,-1
 656 640 l 2,60,61
 631 640 631 640 613 624 c 0,62,63
 540 563 540 563 447.5 459 c 128,-1,64
 355 355 355 355 355 321 c 2,65,-1
 355 105 l 2,66,67
 355 33 355 33 376 33 c 2,68,-1
 434 33 l 2,69,70
 442 33 442 33 442 16.5 c 128,-1,71
 442 0 442 0 434 0 c 2,72,-1
 310 1 l 1,15,-1
EndSplineSet
EndChar

StartChar: Thorn
Encoding: 222 222 158
Width: 583
GlyphClass: 2
Flags: W
LayerCount: 2
Fore
SplineSet
190 672 m 1,0,-1
 332 675 l 2,1,2
 340 675 340 675 340 658 c 128,-1,3
 340 641 340 641 332 641 c 2,4,-1
 302 641 l 2,5,6
 277 641 277 641 269.5 632.5 c 128,-1,7
 262 624 262 624 260 598 c 128,-1,8
 258 572 258 572 256 536 c 1,9,-1
 305 536 l 2,10,11
 430 536 430 536 493 485.5 c 128,-1,12
 556 435 556 435 556 361.5 c 128,-1,13
 556 288 556 288 498.5 230 c 128,-1,14
 441 172 441 172 353 172 c 0,15,16
 295 172 295 172 242 196 c 1,17,-1
 242 121 l 2,18,19
 242 33 242 33 263 33 c 2,20,-1
 321 33 l 2,21,22
 329 33 329 33 329 16.5 c 128,-1,23
 329 0 329 0 321 0 c 2,24,-1
 199 1 l 1,25,-1
 59 -2 l 2,26,27
 51 -2 51 -2 51 15 c 128,-1,28
 51 32 51 32 59 32 c 2,29,-1
 102 32 l 2,30,31
 127 32 127 32 135 41.5 c 128,-1,32
 143 51 143 51 143 78 c 2,33,-1
 143 552 l 2,34,35
 143 640 143 640 122 640 c 2,36,-1
 64 640 l 2,37,38
 56 640 56 640 56 656.5 c 128,-1,39
 56 673 56 673 64 673 c 2,40,-1
 190 672 l 1,0,-1
408 260.5 m 128,-1,42
 448 299 448 299 448 355 c 128,-1,43
 448 411 448 411 405 453.5 c 128,-1,44
 362 496 362 496 282 496 c 0,45,46
 252 496 252 496 252 477 c 1,47,48
 245 350 245 350 242 228 c 1,49,50
 268 222 268 222 299 222 c 0,51,41
 368 222 368 222 408 260.5 c 128,-1,42
EndSplineSet
EndChar

StartChar: germandbls
Encoding: 223 223 159
Width: 545
GlyphClass: 2
Flags: W
LayerCount: 2
Fore
SplineSet
128 1 m 1,0,-1
 40 -2 l 2,1,2
 33 -2 33 -2 33 13 c 128,-1,3
 33 28 33 28 38 28 c 2,4,-1
 96 28 l 2,5,6
 108 28 108 28 108 45 c 2,7,-1
 108 399 l 1,8,-1
 38 399 l 2,9,10
 27 399 27 399 27 415.5 c 128,-1,11
 27 432 27 432 36 432 c 0,12,13
 99 432 99 432 106 453 c 0,14,15
 111 468 111 468 119.5 505 c 128,-1,16
 128 542 128 542 135 566.5 c 128,-1,17
 142 591 142 591 157.5 623.5 c 128,-1,18
 173 656 173 656 192 676 c 128,-1,19
 211 696 211 696 244 710.5 c 128,-1,20
 277 725 277 725 322.5 725 c 128,-1,21
 368 725 368 725 396.5 700 c 128,-1,22
 425 675 425 675 425 640.5 c 128,-1,23
 425 606 425 606 409 579 c 128,-1,24
 393 552 393 552 373.5 533 c 128,-1,25
 354 514 354 514 338 487.5 c 128,-1,26
 322 461 322 461 322 428.5 c 128,-1,27
 322 396 322 396 341.5 365 c 128,-1,28
 361 334 361 334 389 311.5 c 128,-1,29
 417 289 417 289 445 266.5 c 128,-1,30
 473 244 473 244 492.5 210.5 c 128,-1,31
 512 177 512 177 512 135 c 0,32,33
 512 74 512 74 466 32 c 128,-1,34
 420 -10 420 -10 367.5 -10 c 128,-1,35
 315 -10 315 -10 288.5 14 c 128,-1,36
 262 38 262 38 262 83 c 0,37,38
 262 93 262 93 278 94 c 0,39,40
 287 94 287 94 288 89 c 1,41,42
 288 33 288 33 357 33 c 0,43,44
 390 33 390 33 413 55 c 128,-1,45
 436 77 436 77 436 112 c 128,-1,46
 436 147 436 147 419.5 175.5 c 128,-1,47
 403 204 403 204 380 224.5 c 128,-1,48
 357 245 357 245 334 267 c 0,49,50
 278 321 278 321 278 407 c 0,51,52
 278 459 278 459 314 524.5 c 128,-1,53
 350 590 350 590 350 613 c 0,54,55
 350 682 350 682 296 682 c 0,56,57
 246 682 246 682 224 642 c 0,58,59
 202 603 202 603 198 565 c 0,60,61
 193 517 193 517 193 466 c 2,62,-1
 193 118 l 2,63,64
 193 71 193 71 195 44 c 128,-1,65
 197 17 197 17 197 8.5 c 128,-1,66
 197 0 197 0 192 0 c 2,67,-1
 128 1 l 1,0,-1
EndSplineSet
EndChar

StartChar: agrave
Encoding: 224 224 160
Width: 471
GlyphClass: 2
Flags: W
LayerCount: 2
Fore
SplineSet
375 324 m 1,0,1
 375 324 375 324 365 123 c 1,2,3
 365 56 365 56 409 56 c 0,4,5
 427 56 427 56 439.5 66.5 c 128,-1,6
 452 77 452 77 454 77 c 0,7,8
 464 77 464 77 464 67 c 0,9,10
 464 41 464 41 434.5 15 c 128,-1,11
 405 -11 405 -11 369 -11 c 128,-1,12
 333 -11 333 -11 314.5 18.5 c 128,-1,13
 296 48 296 48 296 91 c 0,14,15
 296 95 296 95 296 100 c 1,16,-1
 293 100 l 1,17,18
 275 51 275 51 232 19 c 128,-1,19
 189 -13 189 -13 141.5 -13 c 128,-1,20
 94 -13 94 -13 69.5 6.5 c 128,-1,21
 45 26 45 26 45 62 c 0,22,23
 45 119 45 119 110 169 c 128,-1,24
 175 219 175 219 291 253 c 1,25,26
 293 287 293 287 293 293 c 0,27,28
 293 347 293 347 272.5 382 c 128,-1,29
 252 417 252 417 211 417 c 128,-1,30
 170 417 170 417 144.5 393.5 c 128,-1,31
 119 370 119 370 119 326 c 0,32,33
 119 312 119 312 120 304 c 1,34,35
 113 294 113 294 93 294 c 128,-1,36
 73 294 73 294 58 306 c 128,-1,37
 43 318 43 318 43 341 c 0,38,39
 43 386 43 386 100 418 c 128,-1,40
 157 450 157 450 220 450 c 0,41,42
 375 450 375 450 375 324 c 1,0,1
182 42 m 0,43,44
 223 42 223 42 255 91 c 128,-1,45
 287 140 287 140 291 224 c 1,46,47
 206 193 206 193 172 160 c 128,-1,48
 138 127 138 127 138 89 c 0,49,50
 138 42 138 42 182 42 c 0,43,44
129 705 m 0,51,52
 129 719 129 719 139 728 c 128,-1,53
 149 737 149 737 170.5 737 c 128,-1,54
 192 737 192 737 206.5 722.5 c 128,-1,55
 221 708 221 708 256 655 c 128,-1,56
 291 602 291 602 316.5 574 c 128,-1,57
 342 546 342 546 342 543 c 0,58,59
 342 534 342 534 329 534 c 0,60,61
 324 534 324 534 319 537 c 0,62,63
 197 621 197 621 163 650 c 128,-1,64
 129 679 129 679 129 705 c 0,51,52
EndSplineSet
EndChar

StartChar: aacute
Encoding: 225 225 161
Width: 471
GlyphClass: 2
Flags: W
LayerCount: 2
Fore
SplineSet
375 324 m 1,0,1
 375 324 375 324 365 123 c 1,2,3
 365 56 365 56 409 56 c 0,4,5
 427 56 427 56 439.5 66.5 c 128,-1,6
 452 77 452 77 454 77 c 0,7,8
 464 77 464 77 464 67 c 0,9,10
 464 41 464 41 434.5 15 c 128,-1,11
 405 -11 405 -11 369 -11 c 128,-1,12
 333 -11 333 -11 314.5 18.5 c 128,-1,13
 296 48 296 48 296 91 c 0,14,15
 296 95 296 95 296 100 c 1,16,-1
 293 100 l 1,17,18
 275 51 275 51 232 19 c 128,-1,19
 189 -13 189 -13 141.5 -13 c 128,-1,20
 94 -13 94 -13 69.5 6.5 c 128,-1,21
 45 26 45 26 45 62 c 0,22,23
 45 119 45 119 110 169 c 128,-1,24
 175 219 175 219 291 253 c 1,25,26
 293 287 293 287 293 293 c 0,27,28
 293 347 293 347 272.5 382 c 128,-1,29
 252 417 252 417 211 417 c 128,-1,30
 170 417 170 417 144.5 393.5 c 128,-1,31
 119 370 119 370 119 326 c 0,32,33
 119 312 119 312 120 304 c 1,34,35
 113 294 113 294 93 294 c 128,-1,36
 73 294 73 294 58 306 c 128,-1,37
 43 318 43 318 43 341 c 0,38,39
 43 386 43 386 100 418 c 128,-1,40
 157 450 157 450 220 450 c 0,41,42
 375 450 375 450 375 324 c 1,0,1
182 42 m 0,43,44
 223 42 223 42 255 91 c 128,-1,45
 287 140 287 140 291 224 c 1,46,47
 206 193 206 193 172 160 c 128,-1,48
 138 127 138 127 138 89 c 0,49,50
 138 42 138 42 182 42 c 0,43,44
163 533 m 0,51,52
 150 533 150 533 150 542 c 0,53,54
 150 545 150 545 171 568.5 c 128,-1,55
 192 592 192 592 222.5 634 c 128,-1,56
 253 676 253 676 264 694 c 0,57,58
 289 736 289 736 328 736 c 0,59,60
 343 736 343 736 353 727 c 128,-1,61
 363 718 363 718 363 704 c 0,62,63
 363 678 363 678 329 649 c 128,-1,64
 295 620 295 620 173 536 c 0,65,66
 168 533 168 533 163 533 c 0,51,52
EndSplineSet
EndChar

StartChar: acircumflex
Encoding: 226 226 162
Width: 471
GlyphClass: 2
Flags: W
LayerCount: 2
Fore
SplineSet
375 324 m 1,0,1
 375 324 375 324 365 123 c 1,2,3
 365 56 365 56 409 56 c 0,4,5
 427 56 427 56 439.5 66.5 c 128,-1,6
 452 77 452 77 454 77 c 0,7,8
 464 77 464 77 464 67 c 0,9,10
 464 41 464 41 434.5 15 c 128,-1,11
 405 -11 405 -11 369 -11 c 128,-1,12
 333 -11 333 -11 314.5 18.5 c 128,-1,13
 296 48 296 48 296 91 c 0,14,15
 296 95 296 95 296 100 c 1,16,-1
 293 100 l 1,17,18
 275 51 275 51 232 19 c 128,-1,19
 189 -13 189 -13 141.5 -13 c 128,-1,20
 94 -13 94 -13 69.5 6.5 c 128,-1,21
 45 26 45 26 45 62 c 0,22,23
 45 119 45 119 110 169 c 128,-1,24
 175 219 175 219 291 253 c 1,25,26
 293 287 293 287 293 293 c 0,27,28
 293 347 293 347 272.5 382 c 128,-1,29
 252 417 252 417 211 417 c 128,-1,30
 170 417 170 417 144.5 393.5 c 128,-1,31
 119 370 119 370 119 326 c 0,32,33
 119 312 119 312 120 304 c 1,34,35
 113 294 113 294 93 294 c 128,-1,36
 73 294 73 294 58 306 c 128,-1,37
 43 318 43 318 43 341 c 0,38,39
 43 386 43 386 100 418 c 128,-1,40
 157 450 157 450 220 450 c 0,41,42
 375 450 375 450 375 324 c 1,0,1
182 42 m 0,43,44
 223 42 223 42 255 91 c 128,-1,45
 287 140 287 140 291 224 c 1,46,47
 206 193 206 193 172 160 c 128,-1,48
 138 127 138 127 138 89 c 0,49,50
 138 42 138 42 182 42 c 0,43,44
126 530 m 2,51,52
 117 522 117 522 108 522 c 128,-1,53
 99 522 99 522 96 530 c 1,54,-1
 210 677 l 2,55,56
 221 691 221 691 236 691 c 128,-1,57
 251 691 251 691 265 677 c 1,58,-1
 375 530 l 1,59,60
 370 523 370 523 361 523 c 128,-1,61
 352 523 352 523 344 530 c 2,62,-1
 237 620 l 1,63,-1
 126 530 l 2,51,52
EndSplineSet
EndChar

StartChar: atilde
Encoding: 227 227 163
Width: 471
GlyphClass: 2
Flags: W
LayerCount: 2
Fore
SplineSet
375 324 m 1,0,1
 375 324 375 324 365 123 c 1,2,3
 365 56 365 56 409 56 c 0,4,5
 427 56 427 56 439.5 66.5 c 128,-1,6
 452 77 452 77 454 77 c 0,7,8
 464 77 464 77 464 67 c 0,9,10
 464 41 464 41 434.5 15 c 128,-1,11
 405 -11 405 -11 369 -11 c 128,-1,12
 333 -11 333 -11 314.5 18.5 c 128,-1,13
 296 48 296 48 296 91 c 0,14,15
 296 95 296 95 296 100 c 1,16,-1
 293 100 l 1,17,18
 275 51 275 51 232 19 c 128,-1,19
 189 -13 189 -13 141.5 -13 c 128,-1,20
 94 -13 94 -13 69.5 6.5 c 128,-1,21
 45 26 45 26 45 62 c 0,22,23
 45 119 45 119 110 169 c 128,-1,24
 175 219 175 219 291 253 c 1,25,26
 293 287 293 287 293 293 c 0,27,28
 293 347 293 347 272.5 382 c 128,-1,29
 252 417 252 417 211 417 c 128,-1,30
 170 417 170 417 144.5 393.5 c 128,-1,31
 119 370 119 370 119 326 c 0,32,33
 119 312 119 312 120 304 c 1,34,35
 113 294 113 294 93 294 c 128,-1,36
 73 294 73 294 58 306 c 128,-1,37
 43 318 43 318 43 341 c 0,38,39
 43 386 43 386 100 418 c 128,-1,40
 157 450 157 450 220 450 c 0,41,42
 375 450 375 450 375 324 c 1,0,1
182 42 m 0,43,44
 223 42 223 42 255 91 c 128,-1,45
 287 140 287 140 291 224 c 1,46,47
 206 193 206 193 172 160 c 128,-1,48
 138 127 138 127 138 89 c 0,49,50
 138 42 138 42 182 42 c 0,43,44
95 534 m 0,51,52
 93 526 93 526 85.5 526 c 128,-1,53
 78 526 78 526 73 531 c 128,-1,54
 68 536 68 536 68 545 c 0,55,56
 71 612 71 612 103 643 c 128,-1,57
 135 674 135 674 172 674 c 0,58,59
 194 674 194 674 228.5 667.5 c 128,-1,60
 263 661 263 661 282 661 c 128,-1,61
 301 661 301 661 313 662.5 c 128,-1,62
 325 664 325 664 339 670 c 0,63,64
 367 684 367 684 375 731 c 0,65,66
 376 739 376 739 386 739 c 0,67,68
 401 739 401 739 401 723 c 0,69,70
 401 654 401 654 369 622 c 128,-1,71
 337 590 337 590 297 590 c 0,72,73
 277 590 277 590 242.5 596.5 c 128,-1,74
 208 603 208 603 179.5 603 c 128,-1,75
 151 603 151 603 127 589.5 c 128,-1,76
 103 576 103 576 95 534 c 0,51,52
EndSplineSet
EndChar

